<?xml version="1.0" encoding="UTF-8"?>
<svg xmlns="http://www.w3.org/2000/svg" width="30" height="30" viewBox="0 0 30 30" fill="none">
  <path d="M27.4004 8.275C27.2736 7.96956 27.0308 7.72684 26.7254 7.6C26.5751 7.53595 26.4138 7.50197 26.2504 7.5H20.0004C19.6689 7.5 19.3509 7.6317 19.1165 7.86612C18.8821 8.10054 18.7504 8.41848 18.7504 8.75C18.7504 9.08152 18.8821 9.39946 19.1165 9.63388C19.3509 9.8683 19.6689 10 20.0004 10H23.2379L16.2504 16.9875L12.1379 12.8625C12.0217 12.7453 11.8835 12.6523 11.7311 12.5889C11.5788 12.5254 11.4154 12.4928 11.2504 12.4928C11.0854 12.4928 10.922 12.5254 10.7697 12.5889C10.6174 12.6523 10.4791 12.7453 10.3629 12.8625L2.86291 20.3625C2.74575 20.4787 2.65276 20.617 2.5893 20.7693C2.52584 20.9216 2.49316 21.085 2.49316 21.25C2.49316 21.415 2.52584 21.5784 2.5893 21.7307C2.65276 21.883 2.74575 22.0213 2.86291 22.1375C2.97912 22.2547 3.11737 22.3477 3.26969 22.4111C3.42202 22.4746 3.5854 22.5072 3.75041 22.5072C3.91543 22.5072 4.07881 22.4746 4.23113 22.4111C4.38346 22.3477 4.52171 22.2547 4.63791 22.1375L11.2504 15.5125L15.3629 19.6375C15.4791 19.7547 15.6174 19.8477 15.7697 19.9111C15.922 19.9746 16.0854 20.0072 16.2504 20.0072C16.4154 20.0072 16.5788 19.9746 16.7311 19.9111C16.8835 19.8477 17.0217 19.7547 17.1379 19.6375L25.0004 11.7625V15C25.0004 15.3315 25.1321 15.6495 25.3665 15.8839C25.6009 16.1183 25.9189 16.25 26.2504 16.25C26.5819 16.25 26.8999 16.1183 27.1343 15.8839C27.3687 15.6495 27.5004 15.3315 27.5004 15V8.75C27.4984 8.58665 27.4645 8.42528 27.4004 8.275Z" fill="#12D67D"></path>
</svg>
