<svg xmlns="http://www.w3.org/2000/svg" width="1100" height="324" viewBox="0 0 1100 324" fill="none"><rect x="50" y="302" width="999" height="22" fill="white"></rect><path d="M77.6127 308.818H79.4771L82.7186 316.733H82.8379L86.0794 308.818H87.9437V319H86.4821V311.632H86.3876L83.3848 318.985H82.1717L79.1689 311.627H79.0744V319H77.6127V308.818ZM91.0671 308.818L93.9009 317.111H94.0153L96.8491 308.818H98.5096L94.8455 319H93.0707L89.4066 308.818H91.0671ZM99.9799 319V308.818H103.609C104.401 308.818 105.058 308.962 105.578 309.251C106.098 309.539 106.488 309.933 106.746 310.434C107.005 310.931 107.134 311.491 107.134 312.114C107.134 312.741 107.003 313.304 106.741 313.805C106.483 314.302 106.092 314.696 105.568 314.988C105.048 315.276 104.393 315.42 103.604 315.42H101.108V314.118H103.465C103.965 314.118 104.372 314.032 104.683 313.859C104.995 313.684 105.223 313.445 105.369 313.143C105.515 312.842 105.588 312.499 105.588 312.114C105.588 311.73 105.515 311.388 105.369 311.09C105.223 310.792 104.993 310.558 104.678 310.389C104.367 310.22 103.956 310.136 103.445 310.136H101.516V319H99.9799ZM115.514 317.29V310.568H116.851V317.29H115.514ZM112.824 314.595V313.263H119.546V314.595H112.824ZM125.669 319V308.818H129.299C130.091 308.818 130.747 308.962 131.267 309.251C131.788 309.539 132.177 309.933 132.436 310.434C132.694 310.931 132.824 311.491 132.824 312.114C132.824 312.741 132.693 313.304 132.431 313.805C132.172 314.302 131.781 314.696 131.257 314.988C130.737 315.276 130.083 315.42 129.294 315.42H126.798V314.118H129.154C129.655 314.118 130.061 314.032 130.373 313.859C130.684 313.684 130.913 313.445 131.059 313.143C131.204 312.842 131.277 312.499 131.277 312.114C131.277 311.73 131.204 311.388 131.059 311.09C130.913 310.792 130.682 310.558 130.368 310.389C130.056 310.22 129.645 310.136 129.135 310.136H127.206V319H125.669ZM134.505 319V311.364H135.992V319H134.505ZM135.256 310.185C134.997 310.185 134.775 310.099 134.59 309.927C134.407 309.751 134.316 309.542 134.316 309.3C134.316 309.055 134.407 308.846 134.59 308.674C134.775 308.498 134.997 308.411 135.256 308.411C135.514 308.411 135.735 308.498 135.917 308.674C136.103 308.846 136.195 309.055 136.195 309.3C136.195 309.542 136.103 309.751 135.917 309.927C135.735 310.099 135.514 310.185 135.256 310.185ZM139.478 308.818V319H137.991V308.818H139.478ZM144.694 319.154C143.979 319.154 143.354 318.99 142.82 318.662C142.287 318.334 141.872 317.875 141.577 317.285C141.282 316.695 141.135 316.005 141.135 315.217C141.135 314.424 141.282 313.732 141.577 313.138C141.872 312.545 142.287 312.085 142.82 311.756C143.354 311.428 143.979 311.264 144.694 311.264C145.41 311.264 146.035 311.428 146.569 311.756C147.102 312.085 147.517 312.545 147.812 313.138C148.107 313.732 148.254 314.424 148.254 315.217C148.254 316.005 148.107 316.695 147.812 317.285C147.517 317.875 147.102 318.334 146.569 318.662C146.035 318.99 145.41 319.154 144.694 319.154ZM144.699 317.906C145.163 317.906 145.548 317.784 145.853 317.538C146.158 317.293 146.383 316.967 146.529 316.559C146.678 316.151 146.753 315.702 146.753 315.212C146.753 314.724 146.678 314.277 146.529 313.869C146.383 313.458 146.158 313.129 145.853 312.88C145.548 312.631 145.163 312.507 144.699 312.507C144.232 312.507 143.844 312.631 143.536 312.88C143.231 313.129 143.004 313.458 142.855 313.869C142.709 314.277 142.636 314.724 142.636 315.212C142.636 315.702 142.709 316.151 142.855 316.559C143.004 316.967 143.231 317.293 143.536 317.538C143.844 317.784 144.232 317.906 144.699 317.906ZM153.478 311.364V312.557H149.307V311.364H153.478ZM150.425 309.534H151.912V316.758C151.912 317.046 151.955 317.263 152.041 317.409C152.127 317.552 152.238 317.649 152.374 317.702C152.513 317.752 152.664 317.777 152.827 317.777C152.946 317.777 153.05 317.769 153.14 317.752C153.229 317.736 153.299 317.722 153.349 317.712L153.617 318.94C153.531 318.973 153.408 319.007 153.249 319.04C153.09 319.076 152.891 319.096 152.653 319.099C152.262 319.106 151.897 319.036 151.559 318.891C151.221 318.745 150.947 318.519 150.739 318.214C150.53 317.91 150.425 317.527 150.425 317.066V309.534ZM160.722 313.228L159.374 313.467C159.318 313.294 159.228 313.13 159.106 312.974C158.987 312.819 158.824 312.691 158.619 312.592C158.413 312.492 158.156 312.442 157.848 312.442C157.427 312.442 157.076 312.537 156.794 312.726C156.512 312.911 156.371 313.152 156.371 313.447C156.371 313.702 156.466 313.907 156.655 314.063C156.844 314.219 157.149 314.347 157.57 314.446L158.783 314.724C159.485 314.887 160.009 315.137 160.354 315.475C160.698 315.813 160.871 316.252 160.871 316.793C160.871 317.25 160.738 317.658 160.473 318.016C160.211 318.37 159.845 318.649 159.374 318.851C158.907 319.053 158.365 319.154 157.749 319.154C156.893 319.154 156.196 318.972 155.656 318.607C155.115 318.239 154.784 317.717 154.661 317.041L156.098 316.822C156.188 317.197 156.371 317.48 156.65 317.673C156.928 317.862 157.291 317.956 157.739 317.956C158.226 317.956 158.615 317.855 158.907 317.653C159.199 317.447 159.344 317.197 159.344 316.902C159.344 316.663 159.255 316.463 159.076 316.3C158.9 316.138 158.63 316.015 158.266 315.933L156.973 315.649C156.26 315.487 155.733 315.228 155.392 314.874C155.054 314.519 154.885 314.07 154.885 313.526C154.885 313.076 155.011 312.681 155.263 312.343C155.515 312.005 155.863 311.741 156.307 311.553C156.751 311.36 157.26 311.264 157.833 311.264C158.658 311.264 159.308 311.443 159.782 311.801C160.256 312.156 160.569 312.631 160.722 313.228Z" fill="#7D7A78"></path><path d="M292.235 319V308.818H295.864C296.656 308.818 297.312 308.962 297.833 309.251C298.353 309.539 298.743 309.933 299.001 310.434C299.26 310.931 299.389 311.491 299.389 312.114C299.389 312.741 299.258 313.304 298.996 313.805C298.738 314.302 298.347 314.696 297.823 314.988C297.303 315.276 296.648 315.42 295.859 315.42H293.363V314.118H295.72C296.22 314.118 296.626 314.032 296.938 313.859C297.249 313.684 297.478 313.445 297.624 313.143C297.77 312.842 297.843 312.499 297.843 312.114C297.843 311.73 297.77 311.388 297.624 311.09C297.478 310.792 297.248 310.558 296.933 310.389C296.621 310.22 296.21 310.136 295.7 310.136H293.771V319H292.235ZM301.071 319V311.364H302.507V312.577H302.587C302.726 312.166 302.971 311.843 303.323 311.607C303.677 311.369 304.078 311.249 304.526 311.249C304.619 311.249 304.728 311.253 304.854 311.259C304.983 311.266 305.084 311.274 305.157 311.284V312.706C305.098 312.689 304.992 312.671 304.839 312.651C304.687 312.628 304.534 312.616 304.382 312.616C304.03 312.616 303.717 312.691 303.442 312.84C303.17 312.986 302.955 313.19 302.796 313.452C302.637 313.71 302.557 314.005 302.557 314.337V319H301.071ZM309.387 319.154C308.671 319.154 308.046 318.99 307.513 318.662C306.979 318.334 306.565 317.875 306.27 317.285C305.975 316.695 305.827 316.005 305.827 315.217C305.827 314.424 305.975 313.732 306.27 313.138C306.565 312.545 306.979 312.085 307.513 311.756C308.046 311.428 308.671 311.264 309.387 311.264C310.103 311.264 310.727 311.428 311.261 311.756C311.795 312.085 312.209 312.545 312.504 313.138C312.799 313.732 312.946 314.424 312.946 315.217C312.946 316.005 312.799 316.695 312.504 317.285C312.209 317.875 311.795 318.334 311.261 318.662C310.727 318.99 310.103 319.154 309.387 319.154ZM309.392 317.906C309.856 317.906 310.24 317.784 310.545 317.538C310.85 317.293 311.075 316.967 311.221 316.559C311.37 316.151 311.445 315.702 311.445 315.212C311.445 314.724 311.37 314.277 311.221 313.869C311.075 313.458 310.85 313.129 310.545 312.88C310.24 312.631 309.856 312.507 309.392 312.507C308.924 312.507 308.537 312.631 308.228 312.88C307.924 313.129 307.696 313.458 307.547 313.869C307.401 314.277 307.329 314.724 307.329 315.212C307.329 315.702 307.401 316.151 307.547 316.559C307.696 316.967 307.924 317.293 308.228 317.538C308.537 317.784 308.924 317.906 309.392 317.906ZM317.464 319.149C316.848 319.149 316.298 318.992 315.814 318.677C315.333 318.359 314.955 317.906 314.68 317.32C314.409 316.73 314.273 316.022 314.273 315.197C314.273 314.371 314.41 313.665 314.685 313.079C314.964 312.492 315.345 312.043 315.829 311.732C316.313 311.42 316.861 311.264 317.474 311.264C317.948 311.264 318.329 311.344 318.618 311.503C318.909 311.659 319.135 311.841 319.294 312.05C319.456 312.259 319.582 312.442 319.672 312.602H319.761V308.818H321.248V319H319.796V317.812H319.672C319.582 317.974 319.453 318.16 319.284 318.369C319.118 318.577 318.89 318.76 318.598 318.915C318.306 319.071 317.928 319.149 317.464 319.149ZM317.793 317.881C318.22 317.881 318.581 317.769 318.876 317.543C319.175 317.315 319.4 316.998 319.552 316.594C319.708 316.189 319.786 315.719 319.786 315.182C319.786 314.652 319.71 314.187 319.557 313.79C319.405 313.392 319.181 313.082 318.886 312.86C318.591 312.638 318.227 312.527 317.793 312.527C317.345 312.527 316.972 312.643 316.674 312.875C316.376 313.107 316.15 313.424 315.998 313.825C315.849 314.226 315.774 314.678 315.774 315.182C315.774 315.692 315.85 316.151 316.003 316.559C316.155 316.967 316.381 317.29 316.679 317.528C316.98 317.764 317.352 317.881 317.793 317.881ZM328.207 315.833V311.364H329.698V319H328.237V317.678H328.157C327.981 318.085 327.7 318.425 327.312 318.697C326.927 318.965 326.448 319.099 325.875 319.099C325.385 319.099 324.95 318.992 324.573 318.776C324.198 318.558 323.903 318.234 323.688 317.807C323.475 317.379 323.369 316.851 323.369 316.221V311.364H324.856V316.042C324.856 316.562 325 316.977 325.288 317.285C325.577 317.593 325.951 317.747 326.412 317.747C326.69 317.747 326.967 317.678 327.242 317.538C327.521 317.399 327.751 317.189 327.933 316.907C328.119 316.625 328.21 316.267 328.207 315.833ZM334.912 319.154C334.173 319.154 333.537 318.987 333.003 318.652C332.473 318.314 332.065 317.848 331.78 317.255C331.495 316.662 331.353 315.982 331.353 315.217C331.353 314.441 331.498 313.757 331.79 313.163C332.082 312.567 332.493 312.101 333.023 311.766C333.553 311.432 334.178 311.264 334.897 311.264C335.477 311.264 335.994 311.372 336.448 311.587C336.902 311.799 337.269 312.098 337.547 312.482C337.829 312.867 337.996 313.316 338.049 313.83H336.603C336.523 313.472 336.341 313.163 336.056 312.905C335.774 312.646 335.396 312.517 334.922 312.517C334.508 312.517 334.145 312.626 333.833 312.845C333.525 313.061 333.285 313.369 333.112 313.77C332.94 314.168 332.854 314.638 332.854 315.182C332.854 315.739 332.938 316.219 333.108 316.624C333.277 317.028 333.515 317.341 333.823 317.563C334.135 317.785 334.501 317.896 334.922 317.896C335.204 317.896 335.459 317.845 335.688 317.742C335.92 317.636 336.114 317.485 336.269 317.29C336.429 317.094 336.54 316.859 336.603 316.584H338.049C337.996 317.078 337.835 317.518 337.567 317.906C337.299 318.294 336.939 318.599 336.488 318.821C336.041 319.043 335.515 319.154 334.912 319.154ZM343.204 311.364V312.557H339.032V311.364H343.204ZM340.151 309.534H341.638V316.758C341.638 317.046 341.681 317.263 341.767 317.409C341.853 317.552 341.964 317.649 342.1 317.702C342.239 317.752 342.39 317.777 342.552 317.777C342.672 317.777 342.776 317.769 342.866 317.752C342.955 317.736 343.025 317.722 343.074 317.712L343.343 318.94C343.257 318.973 343.134 319.007 342.975 319.04C342.816 319.076 342.617 319.096 342.378 319.099C341.987 319.106 341.623 319.036 341.285 318.891C340.946 318.745 340.673 318.519 340.464 318.214C340.255 317.91 340.151 317.527 340.151 317.066V309.534ZM354.226 311.493C354.173 311.022 353.954 310.658 353.569 310.399C353.185 310.137 352.701 310.006 352.118 310.006C351.7 310.006 351.339 310.073 351.034 310.205C350.729 310.335 350.492 310.513 350.323 310.742C350.157 310.968 350.074 311.224 350.074 311.513C350.074 311.755 350.131 311.964 350.243 312.139C350.359 312.315 350.51 312.462 350.696 312.582C350.885 312.698 351.087 312.795 351.302 312.875C351.518 312.951 351.725 313.014 351.924 313.064L352.918 313.322C353.243 313.402 353.576 313.51 353.917 313.646C354.259 313.781 354.575 313.96 354.867 314.183C355.159 314.405 355.394 314.68 355.573 315.008C355.755 315.336 355.846 315.729 355.846 316.186C355.846 316.763 355.697 317.275 355.399 317.722C355.104 318.17 354.675 318.523 354.111 318.781C353.551 319.04 352.873 319.169 352.078 319.169C351.316 319.169 350.656 319.048 350.099 318.806C349.542 318.564 349.107 318.221 348.792 317.777C348.477 317.33 348.303 316.799 348.27 316.186H349.811C349.841 316.554 349.96 316.861 350.169 317.106C350.381 317.348 350.651 317.528 350.979 317.648C351.311 317.764 351.674 317.822 352.068 317.822C352.502 317.822 352.888 317.754 353.226 317.618C353.568 317.479 353.836 317.286 354.032 317.041C354.227 316.793 354.325 316.503 354.325 316.171C354.325 315.87 354.239 315.623 354.066 315.43C353.897 315.238 353.667 315.079 353.375 314.953C353.087 314.827 352.761 314.716 352.396 314.62L351.193 314.292C350.378 314.07 349.731 313.743 349.254 313.312C348.78 312.882 348.543 312.312 348.543 311.602C348.543 311.016 348.702 310.504 349.02 310.066C349.339 309.629 349.769 309.289 350.313 309.047C350.857 308.802 351.47 308.679 352.152 308.679C352.842 308.679 353.45 308.8 353.977 309.042C354.507 309.284 354.925 309.617 355.23 310.041C355.535 310.462 355.694 310.946 355.707 311.493H354.226ZM361.127 311.364V312.557H356.956V311.364H361.127ZM358.075 309.534H359.561V316.758C359.561 317.046 359.604 317.263 359.691 317.409C359.777 317.552 359.888 317.649 360.024 317.702C360.163 317.752 360.314 317.777 360.476 317.777C360.595 317.777 360.7 317.769 360.789 317.752C360.879 317.736 360.948 317.722 360.998 317.712L361.267 318.94C361.18 318.973 361.058 319.007 360.899 319.04C360.74 319.076 360.541 319.096 360.302 319.099C359.911 319.106 359.546 319.036 359.208 318.891C358.87 318.745 358.597 318.519 358.388 318.214C358.179 317.91 358.075 317.527 358.075 317.066V309.534ZM362.772 319V311.364H364.209V312.577H364.288C364.427 312.166 364.673 311.843 365.024 311.607C365.379 311.369 365.78 311.249 366.227 311.249C366.32 311.249 366.429 311.253 366.555 311.259C366.684 311.266 366.785 311.274 366.858 311.284V312.706C366.799 312.689 366.693 312.671 366.54 312.651C366.388 312.628 366.235 312.616 366.083 312.616C365.732 312.616 365.418 312.691 365.143 312.84C364.871 312.986 364.656 313.19 364.497 313.452C364.338 313.71 364.258 314.005 364.258 314.337V319H362.772ZM370.299 319.169C369.815 319.169 369.377 319.08 368.986 318.901C368.595 318.718 368.285 318.455 368.057 318.11C367.831 317.765 367.718 317.343 367.718 316.842C367.718 316.411 367.801 316.057 367.967 315.778C368.133 315.5 368.357 315.28 368.638 315.117C368.92 314.955 369.235 314.832 369.583 314.749C369.931 314.666 370.285 314.603 370.647 314.56C371.104 314.507 371.475 314.464 371.76 314.431C372.045 314.395 372.253 314.337 372.382 314.257C372.511 314.178 372.576 314.048 372.576 313.869V313.835C372.576 313.4 372.453 313.064 372.208 312.825C371.966 312.587 371.605 312.467 371.124 312.467C370.624 312.467 370.229 312.578 369.941 312.8C369.656 313.019 369.459 313.263 369.349 313.531L367.952 313.213C368.118 312.749 368.36 312.375 368.678 312.089C368.999 311.801 369.369 311.592 369.787 311.463C370.204 311.33 370.643 311.264 371.104 311.264C371.409 311.264 371.732 311.301 372.074 311.374C372.418 311.443 372.74 311.572 373.038 311.761C373.34 311.95 373.587 312.22 373.779 312.572C373.971 312.92 374.067 313.372 374.067 313.929V319H372.616V317.956H372.556C372.46 318.148 372.316 318.337 372.123 318.523C371.931 318.708 371.684 318.862 371.383 318.985C371.081 319.108 370.72 319.169 370.299 319.169ZM370.622 317.976C371.033 317.976 371.384 317.895 371.676 317.732C371.971 317.57 372.195 317.358 372.347 317.096C372.503 316.831 372.581 316.547 372.581 316.246V315.261C372.528 315.314 372.425 315.364 372.272 315.411C372.123 315.454 371.953 315.492 371.76 315.525C371.568 315.555 371.381 315.583 371.199 315.609C371.016 315.633 370.864 315.652 370.741 315.669C370.453 315.705 370.189 315.767 369.951 315.853C369.715 315.939 369.526 316.063 369.384 316.226C369.245 316.385 369.175 316.597 369.175 316.862C369.175 317.23 369.311 317.509 369.583 317.697C369.855 317.883 370.201 317.976 370.622 317.976ZM379.612 311.364V312.557H375.441V311.364H379.612ZM376.559 309.534H378.046V316.758C378.046 317.046 378.089 317.263 378.175 317.409C378.261 317.552 378.372 317.649 378.508 317.702C378.647 317.752 378.798 317.777 378.96 317.777C379.08 317.777 379.184 317.769 379.274 317.752C379.363 317.736 379.433 317.722 379.483 317.712L379.751 318.94C379.665 318.973 379.542 319.007 379.383 319.04C379.224 319.076 379.025 319.096 378.786 319.099C378.395 319.106 378.031 319.036 377.693 318.891C377.355 318.745 377.081 318.519 376.872 318.214C376.664 317.91 376.559 317.527 376.559 317.066V309.534ZM384.465 319.154C383.713 319.154 383.065 318.993 382.521 318.672C381.981 318.347 381.564 317.891 381.269 317.305C380.977 316.715 380.831 316.024 380.831 315.232C380.831 314.449 380.977 313.76 381.269 313.163C381.564 312.567 381.975 312.101 382.502 311.766C383.032 311.432 383.652 311.264 384.361 311.264C384.792 311.264 385.209 311.335 385.614 311.478C386.018 311.621 386.381 311.844 386.703 312.149C387.024 312.454 387.278 312.85 387.463 313.337C387.649 313.821 387.742 314.41 387.742 315.102V315.629H381.671V314.516H386.285C386.285 314.125 386.205 313.778 386.046 313.477C385.887 313.172 385.663 312.931 385.375 312.756C385.09 312.58 384.755 312.492 384.371 312.492C383.953 312.492 383.589 312.595 383.277 312.8C382.969 313.003 382.73 313.268 382.561 313.596C382.395 313.921 382.313 314.274 382.313 314.655V315.525C382.313 316.035 382.402 316.469 382.581 316.827C382.763 317.185 383.017 317.459 383.342 317.648C383.667 317.833 384.046 317.926 384.48 317.926C384.762 317.926 385.019 317.886 385.251 317.807C385.483 317.724 385.683 317.601 385.852 317.439C386.021 317.277 386.151 317.076 386.24 316.837L387.647 317.091C387.534 317.505 387.332 317.868 387.041 318.18C386.752 318.488 386.389 318.728 385.952 318.901C385.518 319.07 385.022 319.154 384.465 319.154ZM392.593 322.023C391.986 322.023 391.464 321.943 391.027 321.784C390.592 321.625 390.238 321.415 389.963 321.153C389.688 320.891 389.482 320.604 389.346 320.293L390.624 319.766C390.713 319.911 390.833 320.066 390.982 320.228C391.134 320.394 391.34 320.535 391.598 320.651C391.86 320.767 392.197 320.825 392.608 320.825C393.171 320.825 393.637 320.687 394.005 320.412C394.372 320.14 394.556 319.706 394.556 319.109V317.608H394.462C394.372 317.77 394.243 317.951 394.074 318.15C393.908 318.349 393.68 318.521 393.388 318.667C393.096 318.813 392.717 318.886 392.25 318.886C391.646 318.886 391.103 318.745 390.619 318.463C390.138 318.178 389.757 317.759 389.475 317.205C389.197 316.648 389.058 315.964 389.058 315.152C389.058 314.34 389.195 313.644 389.47 313.064C389.749 312.484 390.13 312.04 390.614 311.732C391.098 311.42 391.646 311.264 392.259 311.264C392.733 311.264 393.116 311.344 393.408 311.503C393.7 311.659 393.927 311.841 394.089 312.05C394.255 312.259 394.382 312.442 394.472 312.602H394.581V311.364H396.038V319.169C396.038 319.825 395.885 320.364 395.581 320.785C395.276 321.206 394.863 321.517 394.343 321.719C393.826 321.922 393.242 322.023 392.593 322.023ZM392.578 317.653C393.005 317.653 393.367 317.553 393.661 317.354C393.96 317.152 394.185 316.864 394.338 316.489C394.493 316.112 394.571 315.659 394.571 315.132C394.571 314.618 394.495 314.166 394.343 313.775C394.19 313.384 393.966 313.079 393.671 312.86C393.376 312.638 393.012 312.527 392.578 312.527C392.13 312.527 391.757 312.643 391.459 312.875C391.161 313.104 390.935 313.415 390.783 313.81C390.634 314.204 390.559 314.645 390.559 315.132C390.559 315.633 390.635 316.072 390.788 316.45C390.94 316.827 391.166 317.122 391.464 317.335C391.766 317.547 392.137 317.653 392.578 317.653ZM398.971 321.864C398.749 321.864 398.547 321.845 398.365 321.809C398.182 321.776 398.046 321.739 397.957 321.7L398.315 320.482C398.587 320.554 398.829 320.586 399.041 320.576C399.253 320.566 399.44 320.487 399.603 320.337C399.768 320.188 399.914 319.945 400.04 319.607L400.224 319.099L397.43 311.364H399.021L400.955 317.29H401.034L402.968 311.364H404.564L401.417 320.019C401.271 320.417 401.086 320.753 400.86 321.028C400.635 321.307 400.367 321.516 400.055 321.655C399.743 321.794 399.382 321.864 398.971 321.864ZM412.659 317.29V310.568H413.997V317.29H412.659ZM409.97 314.595V313.263H416.691V314.595H409.97ZM426.111 319H422.815V308.818H426.215C427.213 308.818 428.07 309.022 428.786 309.43C429.502 309.834 430.05 310.416 430.431 311.175C430.816 311.93 431.008 312.837 431.008 313.894C431.008 314.955 430.814 315.866 430.426 316.629C430.042 317.391 429.485 317.978 428.756 318.388C428.027 318.796 427.145 319 426.111 319ZM424.351 317.658H426.027C426.802 317.658 427.447 317.512 427.96 317.22C428.474 316.925 428.859 316.499 429.114 315.942C429.369 315.382 429.497 314.7 429.497 313.894C429.497 313.095 429.369 312.418 429.114 311.861C428.862 311.304 428.486 310.881 427.985 310.593C427.485 310.305 426.863 310.161 426.121 310.161H424.351V317.658ZM436.09 319.154C435.338 319.154 434.69 318.993 434.146 318.672C433.606 318.347 433.189 317.891 432.894 317.305C432.602 316.715 432.456 316.024 432.456 315.232C432.456 314.449 432.602 313.76 432.894 313.163C433.189 312.567 433.6 312.101 434.127 311.766C434.657 311.432 435.277 311.264 435.986 311.264C436.417 311.264 436.834 311.335 437.239 311.478C437.643 311.621 438.006 311.844 438.328 312.149C438.649 312.454 438.903 312.85 439.088 313.337C439.274 313.821 439.367 314.41 439.367 315.102V315.629H433.296V314.516H437.91C437.91 314.125 437.83 313.778 437.671 313.477C437.512 313.172 437.288 312.931 437 312.756C436.715 312.58 436.38 312.492 435.996 312.492C435.578 312.492 435.214 312.595 434.902 312.8C434.594 313.003 434.355 313.268 434.186 313.596C434.02 313.921 433.938 314.274 433.938 314.655V315.525C433.938 316.035 434.027 316.469 434.206 316.827C434.388 317.185 434.642 317.459 434.967 317.648C435.292 317.833 435.671 317.926 436.105 317.926C436.387 317.926 436.644 317.886 436.876 317.807C437.108 317.724 437.308 317.601 437.477 317.439C437.646 317.277 437.776 317.076 437.865 316.837L439.272 317.091C439.159 317.505 438.957 317.868 438.666 318.18C438.377 318.488 438.014 318.728 437.577 318.901C437.143 319.07 436.647 319.154 436.09 319.154ZM446.738 313.228L445.391 313.467C445.335 313.294 445.245 313.13 445.122 312.974C445.003 312.819 444.841 312.691 444.635 312.592C444.43 312.492 444.173 312.442 443.865 312.442C443.444 312.442 443.092 312.537 442.811 312.726C442.529 312.911 442.388 313.152 442.388 313.447C442.388 313.702 442.483 313.907 442.671 314.063C442.86 314.219 443.165 314.347 443.586 314.446L444.799 314.724C445.502 314.887 446.026 315.137 446.37 315.475C446.715 315.813 446.887 316.252 446.887 316.793C446.887 317.25 446.755 317.658 446.49 318.016C446.228 318.37 445.862 318.649 445.391 318.851C444.924 319.053 444.382 319.154 443.765 319.154C442.91 319.154 442.212 318.972 441.672 318.607C441.132 318.239 440.8 317.717 440.678 317.041L442.115 316.822C442.204 317.197 442.388 317.48 442.666 317.673C442.945 317.862 443.308 317.956 443.755 317.956C444.242 317.956 444.632 317.855 444.924 317.653C445.215 317.447 445.361 317.197 445.361 316.902C445.361 316.663 445.272 316.463 445.093 316.3C444.917 316.138 444.647 316.015 444.282 315.933L442.99 315.649C442.277 315.487 441.75 315.228 441.409 314.874C441.071 314.519 440.902 314.07 440.902 313.526C440.902 313.076 441.027 312.681 441.279 312.343C441.531 312.005 441.879 311.741 442.323 311.553C442.768 311.36 443.276 311.264 443.85 311.264C444.675 311.264 445.325 311.443 445.799 311.801C446.273 312.156 446.586 312.631 446.738 313.228ZM448.522 319V311.364H450.008V319H448.522ZM449.272 310.185C449.014 310.185 448.792 310.099 448.606 309.927C448.424 309.751 448.333 309.542 448.333 309.3C448.333 309.055 448.424 308.846 448.606 308.674C448.792 308.498 449.014 308.411 449.272 308.411C449.531 308.411 449.751 308.498 449.934 308.674C450.119 308.846 450.212 309.055 450.212 309.3C450.212 309.542 450.119 309.751 449.934 309.927C449.751 310.099 449.531 310.185 449.272 310.185ZM455.21 322.023C454.603 322.023 454.081 321.943 453.644 321.784C453.21 321.625 452.855 321.415 452.58 321.153C452.305 320.891 452.099 320.604 451.963 320.293L453.241 319.766C453.331 319.911 453.45 320.066 453.599 320.228C453.751 320.394 453.957 320.535 454.215 320.651C454.477 320.767 454.814 320.825 455.225 320.825C455.788 320.825 456.254 320.687 456.622 320.412C456.99 320.14 457.174 319.706 457.174 319.109V317.608H457.079C456.99 317.77 456.86 317.951 456.691 318.15C456.526 318.349 456.297 318.521 456.005 318.667C455.714 318.813 455.334 318.886 454.867 318.886C454.264 318.886 453.72 318.745 453.236 318.463C452.755 318.178 452.374 317.759 452.093 317.205C451.814 316.648 451.675 315.964 451.675 315.152C451.675 314.34 451.813 313.644 452.088 313.064C452.366 312.484 452.747 312.04 453.231 311.732C453.715 311.42 454.264 311.264 454.877 311.264C455.351 311.264 455.733 311.344 456.025 311.503C456.317 311.659 456.544 311.841 456.706 312.05C456.872 312.259 457 312.442 457.089 312.602H457.198V311.364H458.655V319.169C458.655 319.825 458.503 320.364 458.198 320.785C457.893 321.206 457.48 321.517 456.96 321.719C456.443 321.922 455.859 322.023 455.21 322.023ZM455.195 317.653C455.622 317.653 455.984 317.553 456.279 317.354C456.577 317.152 456.802 316.864 456.955 316.489C457.111 316.112 457.188 315.659 457.188 315.132C457.188 314.618 457.112 314.166 456.96 313.775C456.807 313.384 456.584 313.079 456.289 312.86C455.994 312.638 455.629 312.527 455.195 312.527C454.747 312.527 454.375 312.643 454.076 312.875C453.778 313.104 453.553 313.415 453.4 313.81C453.251 314.204 453.176 314.645 453.176 315.132C453.176 315.633 453.253 316.072 453.405 316.45C453.558 316.827 453.783 317.122 454.081 317.335C454.383 317.547 454.754 317.653 455.195 317.653ZM462.135 314.466V319H460.649V311.364H462.076V312.607H462.17C462.346 312.202 462.621 311.877 462.995 311.632C463.373 311.387 463.849 311.264 464.422 311.264C464.943 311.264 465.398 311.374 465.789 311.592C466.18 311.808 466.484 312.129 466.699 312.557C466.915 312.984 467.022 313.513 467.022 314.143V319H465.536V314.322C465.536 313.768 465.392 313.336 465.103 313.024C464.815 312.709 464.419 312.552 463.915 312.552C463.57 312.552 463.264 312.626 462.995 312.776C462.73 312.925 462.52 313.143 462.364 313.432C462.211 313.717 462.135 314.062 462.135 314.466ZM478.394 311.493C478.341 311.022 478.122 310.658 477.737 310.399C477.353 310.137 476.869 310.006 476.286 310.006C475.868 310.006 475.507 310.073 475.202 310.205C474.897 310.335 474.66 310.513 474.491 310.742C474.325 310.968 474.242 311.224 474.242 311.513C474.242 311.755 474.299 311.964 474.411 312.139C474.527 312.315 474.678 312.462 474.864 312.582C475.053 312.698 475.255 312.795 475.47 312.875C475.686 312.951 475.893 313.014 476.092 313.064L477.086 313.322C477.411 313.402 477.744 313.51 478.085 313.646C478.427 313.781 478.743 313.96 479.035 314.183C479.327 314.405 479.562 314.68 479.741 315.008C479.923 315.336 480.014 315.729 480.014 316.186C480.014 316.763 479.865 317.275 479.567 317.722C479.272 318.17 478.843 318.523 478.279 318.781C477.719 319.04 477.041 319.169 476.246 319.169C475.484 319.169 474.824 319.048 474.267 318.806C473.71 318.564 473.274 318.221 472.96 317.777C472.645 317.33 472.471 316.799 472.438 316.186H473.979C474.009 316.554 474.128 316.861 474.337 317.106C474.549 317.348 474.819 317.528 475.147 317.648C475.479 317.764 475.841 317.822 476.236 317.822C476.67 317.822 477.056 317.754 477.394 317.618C477.736 317.479 478.004 317.286 478.2 317.041C478.395 316.793 478.493 316.503 478.493 316.171C478.493 315.87 478.407 315.623 478.234 315.43C478.065 315.238 477.835 315.079 477.543 314.953C477.255 314.827 476.929 314.716 476.564 314.62L475.361 314.292C474.546 314.07 473.899 313.743 473.422 313.312C472.948 312.882 472.711 312.312 472.711 311.602C472.711 311.016 472.87 310.504 473.188 310.066C473.506 309.629 473.937 309.289 474.481 309.047C475.024 308.802 475.638 308.679 476.32 308.679C477.01 308.679 477.618 308.8 478.145 309.042C478.675 309.284 479.093 309.617 479.398 310.041C479.703 310.462 479.862 310.946 479.875 311.493H478.394ZM482.67 321.864C482.448 321.864 482.246 321.845 482.064 321.809C481.882 321.776 481.746 321.739 481.656 321.7L482.014 320.482C482.286 320.554 482.528 320.586 482.74 320.576C482.952 320.566 483.139 320.487 483.302 320.337C483.467 320.188 483.613 319.945 483.739 319.607L483.923 319.099L481.129 311.364H482.72L484.654 317.29H484.734L486.668 311.364H488.263L485.116 320.019C484.971 320.417 484.785 320.753 484.56 321.028C484.334 321.307 484.066 321.516 483.754 321.655C483.443 321.794 483.081 321.864 482.67 321.864ZM495.383 313.228L494.035 313.467C493.979 313.294 493.89 313.13 493.767 312.974C493.648 312.819 493.485 312.691 493.28 312.592C493.074 312.492 492.817 312.442 492.509 312.442C492.088 312.442 491.737 312.537 491.455 312.726C491.173 312.911 491.033 313.152 491.033 313.447C491.033 313.702 491.127 313.907 491.316 314.063C491.505 314.219 491.81 314.347 492.231 314.446L493.444 314.724C494.146 314.887 494.67 315.137 495.015 315.475C495.36 315.813 495.532 316.252 495.532 316.793C495.532 317.25 495.399 317.658 495.134 318.016C494.872 318.37 494.506 318.649 494.035 318.851C493.568 319.053 493.026 319.154 492.41 319.154C491.555 319.154 490.857 318.972 490.317 318.607C489.776 318.239 489.445 317.717 489.322 317.041L490.759 316.822C490.849 317.197 491.033 317.48 491.311 317.673C491.589 317.862 491.952 317.956 492.4 317.956C492.887 317.956 493.276 317.855 493.568 317.653C493.86 317.447 494.006 317.197 494.006 316.902C494.006 316.663 493.916 316.463 493.737 316.3C493.561 316.138 493.291 316.015 492.927 315.933L491.634 315.649C490.922 315.487 490.395 315.228 490.053 314.874C489.715 314.519 489.546 314.07 489.546 313.526C489.546 313.076 489.672 312.681 489.924 312.343C490.176 312.005 490.524 311.741 490.968 311.553C491.412 311.36 491.921 311.264 492.494 311.264C493.32 311.264 493.969 311.443 494.443 311.801C494.917 312.156 495.23 312.631 495.383 313.228ZM500.731 311.364V312.557H496.56V311.364H500.731ZM497.678 309.534H499.165V316.758C499.165 317.046 499.208 317.263 499.294 317.409C499.38 317.552 499.491 317.649 499.627 317.702C499.766 317.752 499.917 317.777 500.08 317.777C500.199 317.777 500.303 317.769 500.393 317.752C500.482 317.736 500.552 317.722 500.602 317.712L500.87 318.94C500.784 318.973 500.661 319.007 500.502 319.04C500.343 319.076 500.144 319.096 499.906 319.099C499.515 319.106 499.15 319.036 498.812 318.891C498.474 318.745 498.2 318.519 497.992 318.214C497.783 317.91 497.678 317.527 497.678 317.066V309.534ZM505.584 319.154C504.832 319.154 504.184 318.993 503.641 318.672C503.1 318.347 502.683 317.891 502.388 317.305C502.096 316.715 501.95 316.024 501.95 315.232C501.95 314.449 502.096 313.76 502.388 313.163C502.683 312.567 503.094 312.101 503.621 311.766C504.151 311.432 504.771 311.264 505.48 311.264C505.911 311.264 506.329 311.335 506.733 311.478C507.137 311.621 507.5 311.844 507.822 312.149C508.143 312.454 508.397 312.85 508.582 313.337C508.768 313.821 508.861 314.41 508.861 315.102V315.629H502.79V314.516H507.404C507.404 314.125 507.324 313.778 507.165 313.477C507.006 313.172 506.783 312.931 506.494 312.756C506.209 312.58 505.874 312.492 505.49 312.492C505.072 312.492 504.708 312.595 504.396 312.8C504.088 313.003 503.849 313.268 503.68 313.596C503.515 313.921 503.432 314.274 503.432 314.655V315.525C503.432 316.035 503.521 316.469 503.7 316.827C503.882 317.185 504.136 317.459 504.461 317.648C504.786 317.833 505.165 317.926 505.599 317.926C505.881 317.926 506.138 317.886 506.37 317.807C506.602 317.724 506.802 317.601 506.972 317.439C507.141 317.277 507.27 317.076 507.359 316.837L508.766 317.091C508.654 317.505 508.451 317.868 508.16 318.18C507.871 318.488 507.508 318.728 507.071 318.901C506.637 319.07 506.141 319.154 505.584 319.154ZM510.51 319V311.364H511.937V312.607H512.031C512.19 312.186 512.451 311.857 512.812 311.622C513.173 311.384 513.606 311.264 514.109 311.264C514.62 311.264 515.047 311.384 515.392 311.622C515.74 311.861 515.997 312.189 516.163 312.607H516.242C516.425 312.199 516.715 311.874 517.112 311.632C517.51 311.387 517.984 311.264 518.534 311.264C519.227 311.264 519.792 311.481 520.229 311.915C520.67 312.35 520.891 313.004 520.891 313.879V319H519.404V314.018C519.404 313.501 519.263 313.127 518.982 312.895C518.7 312.663 518.363 312.547 517.972 312.547C517.488 312.547 517.112 312.696 516.844 312.994C516.575 313.289 516.441 313.669 516.441 314.133V319H514.96V313.924C514.96 313.51 514.83 313.177 514.572 312.925C514.313 312.673 513.977 312.547 513.563 312.547C513.281 312.547 513.021 312.621 512.782 312.771C512.547 312.916 512.356 313.12 512.21 313.382C512.068 313.644 511.997 313.947 511.997 314.292V319H510.51Z" fill="#7D7A78"></path><path d="M590.5 319V308.818H596.814V310.141H592.037V313.243H596.362V314.56H592.037V319H590.5ZM600.779 319.169C600.295 319.169 599.858 319.08 599.467 318.901C599.076 318.718 598.766 318.455 598.537 318.11C598.312 317.765 598.199 317.343 598.199 316.842C598.199 316.411 598.282 316.057 598.448 315.778C598.613 315.5 598.837 315.28 599.119 315.117C599.4 314.955 599.715 314.832 600.063 314.749C600.411 314.666 600.766 314.603 601.127 314.56C601.585 314.507 601.956 314.464 602.241 314.431C602.526 314.395 602.733 314.337 602.862 314.257C602.992 314.178 603.056 314.048 603.056 313.869V313.835C603.056 313.4 602.934 313.064 602.688 312.825C602.446 312.587 602.085 312.467 601.604 312.467C601.104 312.467 600.71 312.578 600.421 312.8C600.136 313.019 599.939 313.263 599.83 313.531L598.433 313.213C598.598 312.749 598.84 312.375 599.158 312.089C599.48 311.801 599.85 311.592 600.267 311.463C600.685 311.33 601.124 311.264 601.585 311.264C601.89 311.264 602.213 311.301 602.554 311.374C602.899 311.443 603.22 311.572 603.519 311.761C603.82 311.95 604.067 312.22 604.259 312.572C604.452 312.92 604.548 313.372 604.548 313.929V319H603.096V317.956H603.036C602.94 318.148 602.796 318.337 602.604 318.523C602.412 318.708 602.165 318.862 601.863 318.985C601.561 319.108 601.2 319.169 600.779 319.169ZM601.102 317.976C601.513 317.976 601.865 317.895 602.156 317.732C602.451 317.57 602.675 317.358 602.828 317.096C602.983 316.831 603.061 316.547 603.061 316.246V315.261C603.008 315.314 602.905 315.364 602.753 315.411C602.604 315.454 602.433 315.492 602.241 315.525C602.049 315.555 601.861 315.583 601.679 315.609C601.497 315.633 601.344 315.652 601.222 315.669C600.933 315.705 600.67 315.767 600.431 315.853C600.196 315.939 600.007 316.063 599.864 316.226C599.725 316.385 599.656 316.597 599.656 316.862C599.656 317.23 599.792 317.509 600.063 317.697C600.335 317.883 600.681 317.976 601.102 317.976ZM612.25 313.228L610.903 313.467C610.846 313.294 610.757 313.13 610.634 312.974C610.515 312.819 610.352 312.691 610.147 312.592C609.941 312.492 609.685 312.442 609.376 312.442C608.955 312.442 608.604 312.537 608.322 312.726C608.041 312.911 607.9 313.152 607.9 313.447C607.9 313.702 607.994 313.907 608.183 314.063C608.372 314.219 608.677 314.347 609.098 314.446L610.311 314.724C611.014 314.887 611.537 315.137 611.882 315.475C612.227 315.813 612.399 316.252 612.399 316.793C612.399 317.25 612.266 317.658 612.001 318.016C611.739 318.37 611.373 318.649 610.903 318.851C610.435 319.053 609.893 319.154 609.277 319.154C608.422 319.154 607.724 318.972 607.184 318.607C606.644 318.239 606.312 317.717 606.19 317.041L607.626 316.822C607.716 317.197 607.9 317.48 608.178 317.673C608.457 317.862 608.82 317.956 609.267 317.956C609.754 317.956 610.144 317.855 610.435 317.653C610.727 317.447 610.873 317.197 610.873 316.902C610.873 316.663 610.783 316.463 610.604 316.3C610.429 316.138 610.159 316.015 609.794 315.933L608.501 315.649C607.789 315.487 607.262 315.228 606.92 314.874C606.582 314.519 606.413 314.07 606.413 313.526C606.413 313.076 606.539 312.681 606.791 312.343C607.043 312.005 607.391 311.741 607.835 311.553C608.279 311.36 608.788 311.264 609.361 311.264C610.187 311.264 610.836 311.443 611.31 311.801C611.784 312.156 612.097 312.631 612.25 313.228ZM617.598 311.364V312.557H613.427V311.364H617.598ZM614.546 309.534H616.032V316.758C616.032 317.046 616.075 317.263 616.161 317.409C616.247 317.552 616.359 317.649 616.494 317.702C616.634 317.752 616.784 317.777 616.947 317.777C617.066 317.777 617.171 317.769 617.26 317.752C617.35 317.736 617.419 317.722 617.469 317.712L617.737 318.94C617.651 318.973 617.528 319.007 617.369 319.04C617.21 319.076 617.011 319.096 616.773 319.099C616.382 319.106 616.017 319.036 615.679 318.891C615.341 318.745 615.068 318.519 614.859 318.214C614.65 317.91 614.546 317.527 614.546 317.066V309.534ZM622.565 310.141V308.818H630.445V310.141H627.268V319H625.737V310.141H622.565ZM634.25 319.154C633.498 319.154 632.85 318.993 632.307 318.672C631.766 318.347 631.349 317.891 631.054 317.305C630.762 316.715 630.616 316.024 630.616 315.232C630.616 314.449 630.762 313.76 631.054 313.163C631.349 312.567 631.76 312.101 632.287 311.766C632.817 311.432 633.437 311.264 634.146 311.264C634.577 311.264 634.995 311.335 635.399 311.478C635.803 311.621 636.166 311.844 636.488 312.149C636.809 312.454 637.063 312.85 637.248 313.337C637.434 313.821 637.527 314.41 637.527 315.102V315.629H631.456V314.516H636.07C636.07 314.125 635.991 313.778 635.831 313.477C635.672 313.172 635.449 312.931 635.16 312.756C634.875 312.58 634.54 312.492 634.156 312.492C633.738 312.492 633.374 312.595 633.062 312.8C632.754 313.003 632.515 313.268 632.346 313.596C632.181 313.921 632.098 314.274 632.098 314.655V315.525C632.098 316.035 632.187 316.469 632.366 316.827C632.549 317.185 632.802 317.459 633.127 317.648C633.452 317.833 633.831 317.926 634.265 317.926C634.547 317.926 634.804 317.886 635.036 317.807C635.268 317.724 635.468 317.601 635.638 317.439C635.807 317.277 635.936 317.076 636.025 316.837L637.432 317.091C637.32 317.505 637.117 317.868 636.826 318.18C636.537 318.488 636.174 318.728 635.737 318.901C635.303 319.07 634.807 319.154 634.25 319.154ZM644.898 313.228L643.551 313.467C643.495 313.294 643.405 313.13 643.283 312.974C643.163 312.819 643.001 312.691 642.795 312.592C642.59 312.492 642.333 312.442 642.025 312.442C641.604 312.442 641.253 312.537 640.971 312.726C640.689 312.911 640.548 313.152 640.548 313.447C640.548 313.702 640.643 313.907 640.832 314.063C641.021 314.219 641.325 314.347 641.746 314.446L642.959 314.724C643.662 314.887 644.186 315.137 644.53 315.475C644.875 315.813 645.047 316.252 645.047 316.793C645.047 317.25 644.915 317.658 644.65 318.016C644.388 318.37 644.022 318.649 643.551 318.851C643.084 319.053 642.542 319.154 641.925 319.154C641.07 319.154 640.373 318.972 639.832 318.607C639.292 318.239 638.961 317.717 638.838 317.041L640.275 316.822C640.364 317.197 640.548 317.48 640.827 317.673C641.105 317.862 641.468 317.956 641.915 317.956C642.403 317.956 642.792 317.855 643.084 317.653C643.375 317.447 643.521 317.197 643.521 316.902C643.521 316.663 643.432 316.463 643.253 316.3C643.077 316.138 642.807 316.015 642.442 315.933L641.15 315.649C640.437 315.487 639.91 315.228 639.569 314.874C639.231 314.519 639.062 314.07 639.062 313.526C639.062 313.076 639.188 312.681 639.44 312.343C639.691 312.005 640.039 311.741 640.484 311.553C640.928 311.36 641.436 311.264 642.01 311.264C642.835 311.264 643.485 311.443 643.959 311.801C644.433 312.156 644.746 312.631 644.898 313.228ZM650.247 311.364V312.557H646.075V311.364H650.247ZM647.194 309.534H648.68V316.758C648.68 317.046 648.724 317.263 648.81 317.409C648.896 317.552 649.007 317.649 649.143 317.702C649.282 317.752 649.433 317.777 649.595 317.777C649.715 317.777 649.819 317.769 649.908 317.752C649.998 317.736 650.068 317.722 650.117 317.712L650.386 318.94C650.3 318.973 650.177 319.007 650.018 319.04C649.859 319.076 649.66 319.096 649.421 319.099C649.03 319.106 648.666 319.036 648.328 318.891C647.989 318.745 647.716 318.519 647.507 318.214C647.298 317.91 647.194 317.527 647.194 317.066V309.534ZM651.891 319V311.364H653.377V319H651.891ZM652.642 310.185C652.383 310.185 652.161 310.099 651.975 309.927C651.793 309.751 651.702 309.542 651.702 309.3C651.702 309.055 651.793 308.846 651.975 308.674C652.161 308.498 652.383 308.411 652.642 308.411C652.9 308.411 653.121 308.498 653.303 308.674C653.488 308.846 653.581 309.055 653.581 309.3C653.581 309.542 653.488 309.751 653.303 309.927C653.121 310.099 652.9 310.185 652.642 310.185ZM656.864 314.466V319H655.377V311.364H656.804V312.607H656.899C657.074 312.202 657.349 311.877 657.724 311.632C658.102 311.387 658.577 311.264 659.151 311.264C659.671 311.264 660.127 311.374 660.518 311.592C660.909 311.808 661.212 312.129 661.428 312.557C661.643 312.984 661.751 313.513 661.751 314.143V319H660.264V314.322C660.264 313.768 660.12 313.336 659.832 313.024C659.543 312.709 659.147 312.552 658.644 312.552C658.299 312.552 657.992 312.626 657.724 312.776C657.459 312.925 657.248 313.143 657.092 313.432C656.94 313.717 656.864 314.062 656.864 314.466ZM666.946 322.023C666.34 322.023 665.818 321.943 665.38 321.784C664.946 321.625 664.591 321.415 664.316 321.153C664.041 320.891 663.836 320.604 663.7 320.293L664.977 319.766C665.067 319.911 665.186 320.066 665.335 320.228C665.488 320.394 665.693 320.535 665.952 320.651C666.214 320.767 666.55 320.825 666.961 320.825C667.524 320.825 667.99 320.687 668.358 320.412C668.726 320.14 668.91 319.706 668.91 319.109V317.608H668.815C668.726 317.77 668.597 317.951 668.428 318.15C668.262 318.349 668.033 318.521 667.742 318.667C667.45 318.813 667.07 318.886 666.603 318.886C666 318.886 665.456 318.745 664.972 318.463C664.492 318.178 664.111 317.759 663.829 317.205C663.551 316.648 663.411 315.964 663.411 315.152C663.411 314.34 663.549 313.644 663.824 313.064C664.102 312.484 664.484 312.04 664.967 311.732C665.451 311.42 666 311.264 666.613 311.264C667.087 311.264 667.47 311.344 667.761 311.503C668.053 311.659 668.28 311.841 668.443 312.05C668.608 312.259 668.736 312.442 668.825 312.602H668.935V311.364H670.391V319.169C670.391 319.825 670.239 320.364 669.934 320.785C669.629 321.206 669.216 321.517 668.696 321.719C668.179 321.922 667.596 322.023 666.946 322.023ZM666.931 317.653C667.359 317.653 667.72 317.553 668.015 317.354C668.313 317.152 668.539 316.864 668.691 316.489C668.847 316.112 668.925 315.659 668.925 315.132C668.925 314.618 668.849 314.166 668.696 313.775C668.544 313.384 668.32 313.079 668.025 312.86C667.73 312.638 667.365 312.527 666.931 312.527C666.484 312.527 666.111 312.643 665.813 312.875C665.514 313.104 665.289 313.415 665.136 313.81C664.987 314.204 664.913 314.645 664.913 315.132C664.913 315.633 664.989 316.072 665.141 316.45C665.294 316.827 665.519 317.122 665.818 317.335C666.119 317.547 666.49 317.653 666.931 317.653ZM679.083 317.29V310.568H680.42V317.29H679.083ZM676.393 314.595V313.263H683.115V314.595H676.393ZM689.239 319V308.818H695.622V310.141H690.775V313.243H695.289V314.56H690.775V317.678H695.682V319H689.239ZM698.728 311.364L700.414 314.337L702.114 311.364H703.74L701.358 315.182L703.759 319H702.134L700.414 316.146L698.698 319H697.068L699.444 315.182L697.098 311.364H698.728ZM705.266 321.864V311.364H706.718V312.602H706.842C706.928 312.442 707.052 312.259 707.215 312.05C707.377 311.841 707.603 311.659 707.891 311.503C708.179 311.344 708.56 311.264 709.034 311.264C709.651 311.264 710.201 311.42 710.685 311.732C711.169 312.043 711.548 312.492 711.823 313.079C712.102 313.665 712.241 314.371 712.241 315.197C712.241 316.022 712.103 316.73 711.828 317.32C711.553 317.906 711.175 318.359 710.695 318.677C710.214 318.992 709.666 319.149 709.049 319.149C708.585 319.149 708.206 319.071 707.911 318.915C707.619 318.76 707.39 318.577 707.225 318.369C707.059 318.16 706.931 317.974 706.842 317.812H706.752V321.864H705.266ZM706.723 315.182C706.723 315.719 706.8 316.189 706.956 316.594C707.112 316.998 707.337 317.315 707.632 317.543C707.927 317.769 708.289 317.881 708.716 317.881C709.16 317.881 709.532 317.764 709.83 317.528C710.128 317.29 710.353 316.967 710.506 316.559C710.662 316.151 710.74 315.692 710.74 315.182C710.74 314.678 710.663 314.226 710.511 313.825C710.362 313.424 710.136 313.107 709.835 312.875C709.536 312.643 709.164 312.527 708.716 312.527C708.285 312.527 707.921 312.638 707.622 312.86C707.327 313.082 707.104 313.392 706.951 313.79C706.799 314.187 706.723 314.652 706.723 315.182ZM717.198 319.154C716.445 319.154 715.797 318.993 715.254 318.672C714.714 318.347 714.296 317.891 714.001 317.305C713.709 316.715 713.563 316.024 713.563 315.232C713.563 314.449 713.709 313.76 714.001 313.163C714.296 312.567 714.707 312.101 715.234 311.766C715.764 311.432 716.384 311.264 717.093 311.264C717.524 311.264 717.942 311.335 718.346 311.478C718.751 311.621 719.113 311.844 719.435 312.149C719.756 312.454 720.01 312.85 720.196 313.337C720.381 313.821 720.474 314.41 720.474 315.102V315.629H714.404V314.516H719.017C719.017 314.125 718.938 313.778 718.779 313.477C718.62 313.172 718.396 312.931 718.108 312.756C717.822 312.58 717.488 312.492 717.103 312.492C716.686 312.492 716.321 312.595 716.009 312.8C715.701 313.003 715.463 313.268 715.294 313.596C715.128 313.921 715.045 314.274 715.045 314.655V315.525C715.045 316.035 715.134 316.469 715.313 316.827C715.496 317.185 715.749 317.459 716.074 317.648C716.399 317.833 716.778 317.926 717.213 317.926C717.494 317.926 717.751 317.886 717.983 317.807C718.215 317.724 718.416 317.601 718.585 317.439C718.754 317.277 718.883 317.076 718.973 316.837L720.38 317.091C720.267 317.505 720.065 317.868 719.773 318.18C719.485 318.488 719.122 318.728 718.684 318.901C718.25 319.07 717.755 319.154 717.198 319.154ZM722.123 319V311.364H723.56V312.577H723.64C723.779 312.166 724.024 311.843 724.375 311.607C724.73 311.369 725.131 311.249 725.579 311.249C725.671 311.249 725.781 311.253 725.907 311.259C726.036 311.266 726.137 311.274 726.21 311.284V312.706C726.15 312.689 726.044 312.671 725.892 312.651C725.739 312.628 725.587 312.616 725.434 312.616C725.083 312.616 724.77 312.691 724.495 312.84C724.223 312.986 724.008 313.19 723.848 313.452C723.689 313.71 723.61 314.005 723.61 314.337V319H722.123ZM727.496 319V311.364H728.983V319H727.496ZM728.247 310.185C727.989 310.185 727.766 310.099 727.581 309.927C727.399 309.751 727.307 309.542 727.307 309.3C727.307 309.055 727.399 308.846 727.581 308.674C727.766 308.498 727.989 308.411 728.247 308.411C728.506 308.411 728.726 308.498 728.908 308.674C729.094 308.846 729.187 309.055 729.187 309.3C729.187 309.542 729.094 309.751 728.908 309.927C728.726 310.099 728.506 310.185 728.247 310.185ZM730.983 319V311.364H732.41V312.607H732.504C732.663 312.186 732.923 311.857 733.285 311.622C733.646 311.384 734.078 311.264 734.582 311.264C735.093 311.264 735.52 311.384 735.865 311.622C736.213 311.861 736.47 312.189 736.635 312.607H736.715C736.897 312.199 737.187 311.874 737.585 311.632C737.983 311.387 738.457 311.264 739.007 311.264C739.7 311.264 740.265 311.481 740.702 311.915C741.143 312.35 741.363 313.004 741.363 313.879V319H739.877V314.018C739.877 313.501 739.736 313.127 739.454 312.895C739.173 312.663 738.836 312.547 738.445 312.547C737.961 312.547 737.585 312.696 737.316 312.994C737.048 313.289 736.914 313.669 736.914 314.133V319H735.432V313.924C735.432 313.51 735.303 313.177 735.044 312.925C734.786 312.673 734.45 312.547 734.035 312.547C733.754 312.547 733.493 312.621 733.255 312.771C733.019 312.916 732.829 313.12 732.683 313.382C732.54 313.644 732.469 313.947 732.469 314.292V319H730.983ZM746.647 319.154C745.895 319.154 745.247 318.993 744.703 318.672C744.163 318.347 743.745 317.891 743.45 317.305C743.159 316.715 743.013 316.024 743.013 315.232C743.013 314.449 743.159 313.76 743.45 313.163C743.745 312.567 744.156 312.101 744.683 311.766C745.213 311.432 745.833 311.264 746.543 311.264C746.973 311.264 747.391 311.335 747.795 311.478C748.2 311.621 748.563 311.844 748.884 312.149C749.206 312.454 749.459 312.85 749.645 313.337C749.83 313.821 749.923 314.41 749.923 315.102V315.629H743.853V314.516H748.467C748.467 314.125 748.387 313.778 748.228 313.477C748.069 313.172 747.845 312.931 747.557 312.756C747.272 312.58 746.937 312.492 746.552 312.492C746.135 312.492 745.77 312.595 745.459 312.8C745.15 313.003 744.912 313.268 744.743 313.596C744.577 313.921 744.494 314.274 744.494 314.655V315.525C744.494 316.035 744.584 316.469 744.763 316.827C744.945 317.185 745.199 317.459 745.523 317.648C745.848 317.833 746.228 317.926 746.662 317.926C746.944 317.926 747.2 317.886 747.432 317.807C747.664 317.724 747.865 317.601 748.034 317.439C748.203 317.277 748.332 317.076 748.422 316.837L749.829 317.091C749.716 317.505 749.514 317.868 749.222 318.18C748.934 318.488 748.571 318.728 748.133 318.901C747.699 319.07 747.204 319.154 746.647 319.154ZM753.059 314.466V319H751.573V311.364H752.999V312.607H753.094C753.27 312.202 753.545 311.877 753.919 311.632C754.297 311.387 754.773 311.264 755.346 311.264C755.866 311.264 756.322 311.374 756.713 311.592C757.104 311.808 757.408 312.129 757.623 312.557C757.838 312.984 757.946 313.513 757.946 314.143V319H756.46V314.322C756.46 313.768 756.315 313.336 756.027 313.024C755.739 312.709 755.343 312.552 754.839 312.552C754.494 312.552 754.188 312.626 753.919 312.776C753.654 312.925 753.444 313.143 753.288 313.432C753.135 313.717 753.059 314.062 753.059 314.466ZM763.504 311.364V312.557H759.333V311.364H763.504ZM760.452 309.534H761.938V316.758C761.938 317.046 761.981 317.263 762.068 317.409C762.154 317.552 762.265 317.649 762.401 317.702C762.54 317.752 762.691 317.777 762.853 317.777C762.972 317.777 763.077 317.769 763.166 317.752C763.256 317.736 763.325 317.722 763.375 317.712L763.644 318.94C763.557 318.973 763.435 319.007 763.276 319.04C763.117 319.076 762.918 319.096 762.679 319.099C762.288 319.106 761.923 319.036 761.585 318.891C761.247 318.745 760.974 318.519 760.765 318.214C760.556 317.91 760.452 317.527 760.452 317.066V309.534ZM767.371 319.169C766.887 319.169 766.45 319.08 766.059 318.901C765.667 318.718 765.358 318.455 765.129 318.11C764.903 317.765 764.791 317.343 764.791 316.842C764.791 316.411 764.874 316.057 765.039 315.778C765.205 315.5 765.429 315.28 765.71 315.117C765.992 314.955 766.307 314.832 766.655 314.749C767.003 314.666 767.358 314.603 767.719 314.56C768.176 314.507 768.548 314.464 768.833 314.431C769.118 314.395 769.325 314.337 769.454 314.257C769.583 314.178 769.648 314.048 769.648 313.869V313.835C769.648 313.4 769.525 313.064 769.28 312.825C769.038 312.587 768.677 312.467 768.196 312.467C767.696 312.467 767.301 312.578 767.013 312.8C766.728 313.019 766.531 313.263 766.421 313.531L765.024 313.213C765.19 312.749 765.432 312.375 765.75 312.089C766.072 311.801 766.441 311.592 766.859 311.463C767.277 311.33 767.716 311.264 768.176 311.264C768.481 311.264 768.804 311.301 769.146 311.374C769.491 311.443 769.812 311.572 770.11 311.761C770.412 311.95 770.659 312.22 770.851 312.572C771.043 312.92 771.139 313.372 771.139 313.929V319H769.688V317.956H769.628C769.532 318.148 769.388 318.337 769.196 318.523C769.003 318.708 768.756 318.862 768.455 318.985C768.153 319.108 767.792 319.169 767.371 319.169ZM767.694 317.976C768.105 317.976 768.456 317.895 768.748 317.732C769.043 317.57 769.267 317.358 769.419 317.096C769.575 316.831 769.653 316.547 769.653 316.246V315.261C769.6 315.314 769.497 315.364 769.345 315.411C769.196 315.454 769.025 315.492 768.833 315.525C768.64 315.555 768.453 315.583 768.271 315.609C768.089 315.633 767.936 315.652 767.813 315.669C767.525 315.705 767.262 315.767 767.023 315.853C766.788 315.939 766.599 316.063 766.456 316.226C766.317 316.385 766.247 316.597 766.247 316.862C766.247 317.23 766.383 317.509 766.655 317.697C766.927 317.883 767.273 317.976 767.694 317.976ZM776.684 311.364V312.557H772.513V311.364H776.684ZM773.631 309.534H775.118V316.758C775.118 317.046 775.161 317.263 775.247 317.409C775.333 317.552 775.444 317.649 775.58 317.702C775.72 317.752 775.87 317.777 776.033 317.777C776.152 317.777 776.256 317.769 776.346 317.752C776.435 317.736 776.505 317.722 776.555 317.712L776.823 318.94C776.737 318.973 776.614 319.007 776.455 319.04C776.296 319.076 776.097 319.096 775.859 319.099C775.468 319.106 775.103 319.036 774.765 318.891C774.427 318.745 774.153 318.519 773.945 318.214C773.736 317.91 773.631 317.527 773.631 317.066V309.534ZM778.328 319V311.364H779.815V319H778.328ZM779.079 310.185C778.821 310.185 778.599 310.099 778.413 309.927C778.231 309.751 778.139 309.542 778.139 309.3C778.139 309.055 778.231 308.846 778.413 308.674C778.599 308.498 778.821 308.411 779.079 308.411C779.338 308.411 779.558 308.498 779.74 308.674C779.926 308.846 780.019 309.055 780.019 309.3C780.019 309.542 779.926 309.751 779.74 309.927C779.558 310.099 779.338 310.185 779.079 310.185ZM785.031 319.154C784.315 319.154 783.691 318.99 783.157 318.662C782.623 318.334 782.209 317.875 781.914 317.285C781.619 316.695 781.472 316.005 781.472 315.217C781.472 314.424 781.619 313.732 781.914 313.138C782.209 312.545 782.623 312.085 783.157 311.756C783.691 311.428 784.315 311.264 785.031 311.264C785.747 311.264 786.372 311.428 786.906 311.756C787.439 312.085 787.854 312.545 788.149 313.138C788.444 313.732 788.591 314.424 788.591 315.217C788.591 316.005 788.444 316.695 788.149 317.285C787.854 317.875 787.439 318.334 786.906 318.662C786.372 318.99 785.747 319.154 785.031 319.154ZM785.036 317.906C785.5 317.906 785.885 317.784 786.19 317.538C786.495 317.293 786.72 316.967 786.866 316.559C787.015 316.151 787.09 315.702 787.09 315.212C787.09 314.724 787.015 314.277 786.866 313.869C786.72 313.458 786.495 313.129 786.19 312.88C785.885 312.631 785.5 312.507 785.036 312.507C784.569 312.507 784.181 312.631 783.873 312.88C783.568 313.129 783.341 313.458 783.192 313.869C783.046 314.277 782.973 314.724 782.973 315.212C782.973 315.702 783.046 316.151 783.192 316.559C783.341 316.967 783.568 317.293 783.873 317.538C784.181 317.784 784.569 317.906 785.036 317.906ZM791.737 314.466V319H790.25V311.364H791.677V312.607H791.772C791.947 312.202 792.222 311.877 792.597 311.632C792.975 311.387 793.45 311.264 794.024 311.264C794.544 311.264 795 311.374 795.391 311.592C795.782 311.808 796.085 312.129 796.301 312.557C796.516 312.984 796.624 313.513 796.624 314.143V319H795.137V314.322C795.137 313.768 794.993 313.336 794.705 313.024C794.416 312.709 794.02 312.552 793.517 312.552C793.172 312.552 792.865 312.626 792.597 312.776C792.332 312.925 792.121 313.143 791.965 313.432C791.813 313.717 791.737 314.062 791.737 314.466Z" fill="#7D7A78"></path><path d="M942.779 308.818V319H941.367L936.192 311.533H936.097V319H934.561V308.818H935.983L941.163 316.295H941.258V308.818H942.779ZM948.192 319.154C947.439 319.154 946.792 318.993 946.248 318.672C945.708 318.347 945.29 317.891 944.995 317.305C944.703 316.715 944.558 316.024 944.558 315.232C944.558 314.449 944.703 313.76 944.995 313.163C945.29 312.567 945.701 312.101 946.228 311.766C946.758 311.432 947.378 311.264 948.087 311.264C948.518 311.264 948.936 311.335 949.34 311.478C949.745 311.621 950.108 311.844 950.429 312.149C950.751 312.454 951.004 312.85 951.19 313.337C951.375 313.821 951.468 314.41 951.468 315.102V315.629H945.398V314.516H950.011C950.011 314.125 949.932 313.778 949.773 313.477C949.614 313.172 949.39 312.931 949.102 312.756C948.817 312.58 948.482 312.492 948.097 312.492C947.68 312.492 947.315 312.595 947.004 312.8C946.695 313.003 946.457 313.268 946.288 313.596C946.122 313.921 946.039 314.274 946.039 314.655V315.525C946.039 316.035 946.129 316.469 946.308 316.827C946.49 317.185 946.743 317.459 947.068 317.648C947.393 317.833 947.773 317.926 948.207 317.926C948.488 317.926 948.745 317.886 948.977 317.807C949.209 317.724 949.41 317.601 949.579 317.439C949.748 317.277 949.877 317.076 949.967 316.837L951.374 317.091C951.261 317.505 951.059 317.868 950.767 318.18C950.479 318.488 950.116 318.728 949.678 318.901C949.244 319.07 948.749 319.154 948.192 319.154ZM954.759 319L952.512 311.364H954.048L955.545 316.972H955.619L957.121 311.364H958.657L960.149 316.947H960.223L961.71 311.364H963.246L961.004 319H959.487L957.936 313.487H957.822L956.271 319H954.759ZM968.481 308.818H970.345L973.587 316.733H973.706L976.948 308.818H978.812V319H977.35V311.632H977.256L974.253 318.985H973.04L970.037 311.627H969.943V319H968.481V308.818ZM983.148 319.169C982.664 319.169 982.227 319.08 981.836 318.901C981.445 318.718 981.135 318.455 980.906 318.11C980.681 317.765 980.568 317.343 980.568 316.842C980.568 316.411 980.651 316.057 980.817 315.778C980.982 315.5 981.206 315.28 981.488 315.117C981.77 314.955 982.084 314.832 982.432 314.749C982.78 314.666 983.135 314.603 983.496 314.56C983.954 314.507 984.325 314.464 984.61 314.431C984.895 314.395 985.102 314.337 985.231 314.257C985.361 314.178 985.425 314.048 985.425 313.869V313.835C985.425 313.4 985.303 313.064 985.057 312.825C984.815 312.587 984.454 312.467 983.974 312.467C983.473 312.467 983.079 312.578 982.79 312.8C982.505 313.019 982.308 313.263 982.199 313.531L980.802 313.213C980.967 312.749 981.209 312.375 981.528 312.089C981.849 311.801 982.219 311.592 982.636 311.463C983.054 311.33 983.493 311.264 983.954 311.264C984.259 311.264 984.582 311.301 984.923 311.374C985.268 311.443 985.589 311.572 985.888 311.761C986.189 311.95 986.436 312.22 986.628 312.572C986.821 312.92 986.917 313.372 986.917 313.929V319H985.465V317.956H985.405C985.309 318.148 985.165 318.337 984.973 318.523C984.781 318.708 984.534 318.862 984.232 318.985C983.931 319.108 983.569 319.169 983.148 319.169ZM983.472 317.976C983.882 317.976 984.234 317.895 984.525 317.732C984.82 317.57 985.044 317.358 985.197 317.096C985.352 316.831 985.43 316.547 985.43 316.246V315.261C985.377 315.314 985.275 315.364 985.122 315.411C984.973 315.454 984.802 315.492 984.61 315.525C984.418 315.555 984.23 315.583 984.048 315.609C983.866 315.633 983.713 315.652 983.591 315.669C983.302 315.705 983.039 315.767 982.8 315.853C982.565 315.939 982.376 316.063 982.234 316.226C982.094 316.385 982.025 316.597 982.025 316.862C982.025 317.23 982.161 317.509 982.432 317.697C982.704 317.883 983.051 317.976 983.472 317.976ZM988.897 319V311.364H990.334V312.577H990.413C990.552 312.166 990.798 311.843 991.149 311.607C991.504 311.369 991.905 311.249 992.352 311.249C992.445 311.249 992.554 311.253 992.68 311.259C992.809 311.266 992.91 311.274 992.983 311.284V312.706C992.924 312.689 992.818 312.671 992.665 312.651C992.513 312.628 992.36 312.616 992.208 312.616C991.857 312.616 991.543 312.691 991.268 312.84C990.996 312.986 990.781 313.19 990.622 313.452C990.463 313.71 990.383 314.005 990.383 314.337V319H988.897ZM995.637 316.41L995.627 314.595H995.886L998.928 311.364H1000.71L997.238 315.043H997.004L995.637 316.41ZM994.27 319V308.818H995.756V319H994.27ZM999.092 319L996.358 315.371L997.382 314.332L1000.92 319H999.092ZM1005.04 319.154C1004.29 319.154 1003.64 318.993 1003.1 318.672C1002.56 318.347 1002.14 317.891 1001.84 317.305C1001.55 316.715 1001.41 316.024 1001.41 315.232C1001.41 314.449 1001.55 313.76 1001.84 313.163C1002.14 312.567 1002.55 312.101 1003.08 311.766C1003.61 311.432 1004.23 311.264 1004.94 311.264C1005.37 311.264 1005.78 311.335 1006.19 311.478C1006.59 311.621 1006.96 311.844 1007.28 312.149C1007.6 312.454 1007.85 312.85 1008.04 313.337C1008.22 313.821 1008.32 314.41 1008.32 315.102V315.629H1002.25V314.516H1006.86C1006.86 314.125 1006.78 313.778 1006.62 313.477C1006.46 313.172 1006.24 312.931 1005.95 312.756C1005.66 312.58 1005.33 312.492 1004.95 312.492C1004.53 312.492 1004.16 312.595 1003.85 312.8C1003.54 313.003 1003.3 313.268 1003.14 313.596C1002.97 313.921 1002.89 314.274 1002.89 314.655V315.525C1002.89 316.035 1002.98 316.469 1003.16 316.827C1003.34 317.185 1003.59 317.459 1003.92 317.648C1004.24 317.833 1004.62 317.926 1005.05 317.926C1005.34 317.926 1005.59 317.886 1005.83 317.807C1006.06 317.724 1006.26 317.601 1006.43 317.439C1006.6 317.277 1006.72 317.076 1006.81 316.837L1008.22 317.091C1008.11 317.505 1007.91 317.868 1007.61 318.18C1007.33 318.488 1006.96 318.728 1006.53 318.901C1006.09 319.07 1005.6 319.154 1005.04 319.154ZM1013.53 311.364V312.557H1009.36V311.364H1013.53ZM1010.48 309.534H1011.96V316.758C1011.96 317.046 1012.01 317.263 1012.09 317.409C1012.18 317.552 1012.29 317.649 1012.43 317.702C1012.57 317.752 1012.72 317.777 1012.88 317.777C1013 317.777 1013.1 317.769 1013.19 317.752C1013.28 317.736 1013.35 317.722 1013.4 317.712L1013.67 318.94C1013.58 318.973 1013.46 319.007 1013.3 319.04C1013.14 319.076 1012.94 319.096 1012.7 319.099C1012.31 319.106 1011.95 319.036 1011.61 318.891C1011.27 318.745 1011 318.519 1010.79 318.214C1010.58 317.91 1010.48 317.527 1010.48 317.066V309.534ZM1020.77 313.228L1019.43 313.467C1019.37 313.294 1019.28 313.13 1019.16 312.974C1019.04 312.819 1018.88 312.691 1018.67 312.592C1018.46 312.492 1018.21 312.442 1017.9 312.442C1017.48 312.442 1017.13 312.537 1016.85 312.726C1016.56 312.911 1016.42 313.152 1016.42 313.447C1016.42 313.702 1016.52 313.907 1016.71 314.063C1016.9 314.219 1017.2 314.347 1017.62 314.446L1018.83 314.724C1019.54 314.887 1020.06 315.137 1020.41 315.475C1020.75 315.813 1020.92 316.252 1020.92 316.793C1020.92 317.25 1020.79 317.658 1020.52 318.016C1020.26 318.37 1019.9 318.649 1019.43 318.851C1018.96 319.053 1018.42 319.154 1017.8 319.154C1016.95 319.154 1016.25 318.972 1015.71 318.607C1015.17 318.239 1014.84 317.717 1014.71 317.041L1016.15 316.822C1016.24 317.197 1016.42 317.48 1016.7 317.673C1016.98 317.862 1017.34 317.956 1017.79 317.956C1018.28 317.956 1018.67 317.855 1018.96 317.653C1019.25 317.447 1019.4 317.197 1019.4 316.902C1019.4 316.663 1019.31 316.463 1019.13 316.3C1018.95 316.138 1018.68 316.015 1018.32 315.933L1017.02 315.649C1016.31 315.487 1015.79 315.228 1015.44 314.874C1015.11 314.519 1014.94 314.07 1014.94 313.526C1014.94 313.076 1015.06 312.681 1015.31 312.343C1015.57 312.005 1015.91 311.741 1016.36 311.553C1016.8 311.36 1017.31 311.264 1017.88 311.264C1018.71 311.264 1019.36 311.443 1019.83 311.801C1020.31 312.156 1020.62 312.631 1020.77 313.228Z" fill="#7D7A78"></path><path d="M3 240.5C3 240.5 242.5 254.5 555.5 206.5C868.5 158.5 1097.5 8 1097.5 8" stroke="url(#paint0_linear_1357_3010)" stroke-width="5" stroke-linecap="round"></path><path d="M2 233.5C2 233.5 241.5 247.5 554.5 199.5C867.5 151.5 1096.5 1 1096.5 1" stroke="black" stroke-linecap="round"></path><circle cx="123.5" cy="243.5" r="13" fill="#FFB93A" stroke="white" stroke-width="3"></circle><circle cx="406.5" cy="225.5" r="13" fill="#6D97A9" stroke="white" stroke-width="3"></circle><circle cx="693.5" cy="175.5" r="13" fill="#1892F4" stroke="white" stroke-width="3"></circle><circle cx="977.5" cy="76.5" r="13" fill="#80EBD5" stroke="white" stroke-width="3"></circle><path d="M93.4251 278.28C93.4251 279.04 93.6151 279.71 93.9951 280.29C94.3951 280.85 94.9051 281.36 95.5251 281.82C96.1651 282.28 96.8351 282.74 97.5351 283.2C98.2951 283.68 99.0151 284.19 99.6951 284.73C100.395 285.25 100.965 285.86 101.405 286.56C101.865 287.24 102.095 288.06 102.095 289.02C102.095 290.08 101.805 291.01 101.225 291.81C100.665 292.61 99.8951 293.24 98.9151 293.7C97.9551 294.14 96.8551 294.36 95.6151 294.36C95.0151 294.36 94.3851 294.3 93.7251 294.18C93.0851 294.06 92.4951 293.91 91.9551 293.73C91.4351 293.55 91.0551 293.36 90.8151 293.16C90.7351 293.1 90.6651 293.04 90.6051 292.98C90.5451 292.9 90.5151 292.77 90.5151 292.59L90.4251 287.82C90.4051 287.72 90.4451 287.67 90.5451 287.67C90.6651 287.65 90.7351 287.68 90.7551 287.76C91.0551 288.38 91.3851 289.04 91.7451 289.74C92.1051 290.42 92.5051 291.05 92.9451 291.63C93.4051 292.21 93.9151 292.69 94.4751 293.07C95.0351 293.43 95.6751 293.61 96.3951 293.61C96.8551 293.61 97.2951 293.53 97.7151 293.37C98.1351 293.21 98.4751 292.92 98.7351 292.5C99.0151 292.08 99.1551 291.5 99.1551 290.76C99.1551 289.82 98.9451 289.02 98.5251 288.36C98.1051 287.68 97.5651 287.09 96.9051 286.59C96.2451 286.07 95.5551 285.58 94.8351 285.12C94.1351 284.66 93.4651 284.19 92.8251 283.71C92.1851 283.21 91.6651 282.65 91.2651 282.03C90.8651 281.39 90.6651 280.63 90.6651 279.75C90.6651 278.63 90.9751 277.72 91.5951 277.02C92.2351 276.3 93.0351 275.77 93.9951 275.43C94.9751 275.09 95.9651 274.92 96.9651 274.92C97.6851 274.92 98.4051 274.99 99.1251 275.13C99.8451 275.25 100.415 275.4 100.835 275.58C101.035 275.66 101.155 275.75 101.195 275.85C101.255 275.95 101.285 276.06 101.285 276.18V280.59C101.285 280.65 101.235 280.7 101.135 280.74C101.055 280.76 100.995 280.74 100.955 280.68C100.835 280.44 100.665 280.05 100.445 279.51C100.225 278.95 99.9351 278.37 99.5751 277.77C99.2151 277.17 98.7551 276.66 98.1951 276.24C97.6351 275.8 96.9551 275.58 96.1551 275.58C95.6551 275.58 95.1951 275.68 94.7751 275.88C94.3751 276.08 94.0451 276.38 93.7851 276.78C93.5451 277.16 93.4251 277.66 93.4251 278.28ZM109.165 294.36C108.685 294.36 108.195 294.28 107.695 294.12C107.215 293.96 106.805 293.68 106.465 293.28C106.145 292.88 105.985 292.32 105.985 291.6V284.94C105.985 284.52 105.935 284.19 105.835 283.95C105.735 283.71 105.575 283.54 105.355 283.44C105.135 283.34 104.835 283.29 104.455 283.29C104.375 283.29 104.335 283.2 104.335 283.02C104.335 282.84 104.375 282.75 104.455 282.75C105.475 282.71 106.305 282.49 106.945 282.09C107.585 281.67 108.065 281.06 108.385 280.26C108.425 280.18 108.505 280.14 108.625 280.14C108.765 280.14 108.835 280.18 108.835 280.26V290.61C108.835 291.41 109.035 291.98 109.435 292.32C109.855 292.66 110.365 292.83 110.965 292.83C111.425 292.83 111.855 292.74 112.255 292.56C112.675 292.36 113.025 292.15 113.305 291.93C113.365 291.87 113.435 291.89 113.515 291.99C113.615 292.07 113.625 292.14 113.545 292.2C112.805 292.94 112.085 293.49 111.385 293.85C110.705 294.19 109.965 294.36 109.165 294.36ZM112.615 283.95C111.795 283.77 110.995 283.65 110.215 283.59C109.455 283.51 108.645 283.47 107.785 283.47V282.69C108.605 282.69 109.405 282.66 110.185 282.6C110.985 282.54 111.835 282.47 112.735 282.39C112.775 282.39 112.815 282.47 112.855 282.63C112.915 282.77 112.945 282.93 112.945 283.11C112.945 283.31 112.905 283.51 112.825 283.71C112.765 283.89 112.695 283.97 112.615 283.95ZM123.293 294.18C123.213 294.22 123.113 294.24 122.993 294.24C122.633 294.24 122.273 294 121.913 293.52C121.553 293.04 121.373 292.35 121.373 291.45V286.35C121.373 285.57 121.323 284.92 121.223 284.4C121.123 283.88 120.963 283.49 120.743 283.23C120.523 282.97 120.223 282.84 119.843 282.84C119.543 282.84 119.273 282.92 119.033 283.08C118.793 283.22 118.603 283.46 118.463 283.8C118.323 284.12 118.233 284.57 118.193 285.15C118.133 285.73 117.953 286.16 117.653 286.44C117.353 286.7 116.943 286.83 116.423 286.83C115.923 286.83 115.563 286.72 115.343 286.5C115.123 286.28 115.013 285.98 115.013 285.6C115.013 285.16 115.223 284.74 115.643 284.34C116.063 283.92 116.583 283.55 117.203 283.23C117.843 282.89 118.503 282.63 119.183 282.45C119.863 282.25 120.473 282.15 121.013 282.15C121.893 282.15 122.643 282.42 123.263 282.96C123.883 283.48 124.193 284.31 124.193 285.45V290.76C124.193 291.34 124.293 291.79 124.493 292.11C124.713 292.43 125.013 292.59 125.393 292.59C125.673 292.59 125.963 292.52 126.263 292.38C126.343 292.34 126.403 292.38 126.443 292.5C126.503 292.6 126.483 292.67 126.383 292.71L123.293 294.18ZM116.993 294.21C116.373 294.21 115.873 294.05 115.493 293.73C115.113 293.39 114.923 292.91 114.923 292.29C114.923 291.57 115.193 291.06 115.733 290.76C116.293 290.44 117.153 290.09 118.313 289.71L121.673 288.63L121.793 289.08L119.723 289.83C119.183 290.03 118.793 290.25 118.553 290.49C118.333 290.73 118.223 291.02 118.223 291.36C118.223 291.78 118.343 292.11 118.583 292.35C118.823 292.59 119.123 292.71 119.483 292.71C119.643 292.71 119.853 292.68 120.113 292.62C120.393 292.54 120.693 292.43 121.013 292.29L122.663 291.39L122.693 291.9L120.113 293.31C119.613 293.57 119.083 293.79 118.523 293.97C117.963 294.13 117.453 294.21 116.993 294.21ZM131.18 285.87L130.94 285.48C131.72 284.58 132.38 283.89 132.92 283.41C133.46 282.93 133.92 282.6 134.3 282.42C134.68 282.22 135.02 282.12 135.32 282.12C135.74 282.12 136.17 282.28 136.61 282.6C137.07 282.9 137.3 283.3 137.3 283.8C137.3 284.22 137.17 284.57 136.91 284.85C136.67 285.11 136.33 285.24 135.89 285.24C135.47 285.24 135.15 285.13 134.93 284.91C134.73 284.69 134.54 284.48 134.36 284.28C134.2 284.06 133.96 283.95 133.64 283.95C133.5 283.95 133.34 284 133.16 284.1C133 284.18 132.76 284.36 132.44 284.64C132.14 284.9 131.72 285.31 131.18 285.87ZM127.52 294C127.46 294 127.43 293.94 127.43 293.82C127.43 293.7 127.46 293.64 127.52 293.64C128.14 293.64 128.56 293.5 128.78 293.22C129 292.92 129.11 292.37 129.11 291.57V285.93C129.11 285.31 129.04 284.86 128.9 284.58C128.76 284.28 128.52 284.13 128.18 284.13C128 284.13 127.79 284.17 127.55 284.25C127.31 284.31 127.04 284.41 126.74 284.55C126.66 284.59 126.6 284.55 126.56 284.43C126.52 284.31 126.52 284.24 126.56 284.22L130.73 282.18C130.85 282.14 130.92 282.12 130.94 282.12C131.16 282.12 131.38 282.36 131.6 282.84C131.82 283.32 131.93 284.01 131.93 284.91V291.57C131.93 292.09 132.01 292.51 132.17 292.83C132.33 293.13 132.6 293.34 132.98 293.46C133.38 293.58 133.92 293.64 134.6 293.64C134.68 293.64 134.72 293.7 134.72 293.82C134.72 293.94 134.68 294 134.6 294C134.06 294 133.44 293.99 132.74 293.97C132.06 293.95 131.32 293.94 130.52 293.94C129.96 293.94 129.42 293.95 128.9 293.97C128.38 293.99 127.92 294 127.52 294ZM143.237 294.36C142.757 294.36 142.267 294.28 141.767 294.12C141.287 293.96 140.877 293.68 140.537 293.28C140.217 292.88 140.057 292.32 140.057 291.6V284.94C140.057 284.52 140.007 284.19 139.907 283.95C139.807 283.71 139.647 283.54 139.427 283.44C139.207 283.34 138.907 283.29 138.527 283.29C138.447 283.29 138.407 283.2 138.407 283.02C138.407 282.84 138.447 282.75 138.527 282.75C139.547 282.71 140.377 282.49 141.017 282.09C141.657 281.67 142.137 281.06 142.457 280.26C142.497 280.18 142.577 280.14 142.697 280.14C142.837 280.14 142.907 280.18 142.907 280.26V290.61C142.907 291.41 143.107 291.98 143.507 292.32C143.927 292.66 144.437 292.83 145.037 292.83C145.497 292.83 145.927 292.74 146.327 292.56C146.747 292.36 147.097 292.15 147.377 291.93C147.437 291.87 147.507 291.89 147.587 291.99C147.687 292.07 147.697 292.14 147.617 292.2C146.877 292.94 146.157 293.49 145.457 293.85C144.777 294.19 144.037 294.36 143.237 294.36ZM146.687 283.95C145.867 283.77 145.067 283.65 144.287 283.59C143.527 283.51 142.717 283.47 141.857 283.47V282.69C142.677 282.69 143.477 282.66 144.257 282.6C145.057 282.54 145.907 282.47 146.807 282.39C146.847 282.39 146.887 282.47 146.927 282.63C146.987 282.77 147.017 282.93 147.017 283.11C147.017 283.31 146.977 283.51 146.897 283.71C146.837 283.89 146.767 283.97 146.687 283.95Z" fill="#C68611"></path><path d="M383.585 283.95L383.915 283.41C385.295 283.41 386.485 283.63 387.485 284.07C388.505 284.51 389.295 285.12 389.855 285.9C390.415 286.66 390.695 287.55 390.695 288.57C390.695 289.61 390.395 290.55 389.795 291.39C389.195 292.23 388.365 292.9 387.305 293.4C386.265 293.88 385.085 294.12 383.765 294.12C383.225 294.12 382.535 294.09 381.695 294.03C380.875 293.97 380.125 293.94 379.445 293.94C378.725 293.94 378.035 293.95 377.375 293.97C376.735 293.99 376.155 294 375.635 294C375.575 294 375.545 293.94 375.545 293.82C375.545 293.7 375.575 293.64 375.635 293.64C376.195 293.64 376.625 293.59 376.925 293.49C377.245 293.39 377.465 293.19 377.585 292.89C377.725 292.59 377.795 292.15 377.795 291.57V277.68C377.795 277.1 377.735 276.67 377.615 276.39C377.495 276.09 377.275 275.89 376.955 275.79C376.655 275.67 376.225 275.61 375.665 275.61C375.625 275.61 375.605 275.55 375.605 275.43C375.605 275.31 375.625 275.25 375.665 275.25C376.185 275.25 376.765 275.27 377.405 275.31C378.045 275.33 378.725 275.34 379.445 275.34C380.025 275.34 380.625 275.31 381.245 275.25C381.865 275.19 382.495 275.16 383.135 275.16C384.335 275.16 385.355 275.31 386.195 275.61C387.055 275.89 387.715 276.32 388.175 276.9C388.635 277.46 388.865 278.17 388.865 279.03C388.865 280.13 388.425 281.14 387.545 282.06C386.665 282.96 385.345 283.59 383.585 283.95ZM382.685 275.82C382.305 275.82 381.995 275.88 381.755 276C381.535 276.12 381.375 276.32 381.275 276.6C381.195 276.86 381.155 277.24 381.155 277.74V283.62L380.045 283.41C380.705 283.43 381.245 283.45 381.665 283.47C382.085 283.47 382.315 283.47 382.355 283.47C383.435 283.47 384.245 283.07 384.785 282.27C385.325 281.45 385.595 280.46 385.595 279.3C385.595 278.54 385.475 277.9 385.235 277.38C385.015 276.86 384.685 276.47 384.245 276.21C383.825 275.95 383.305 275.82 382.685 275.82ZM383.255 293.37C384.635 293.37 385.635 293.02 386.255 292.32C386.875 291.6 387.185 290.59 387.185 289.29C387.185 287.81 386.825 286.61 386.105 285.69C385.405 284.75 384.275 284.28 382.715 284.28C382.515 284.28 382.175 284.29 381.695 284.31C381.215 284.31 380.705 284.36 380.165 284.46L381.155 284.1V291.57C381.155 291.97 381.195 292.31 381.275 292.59C381.375 292.85 381.575 293.05 381.875 293.19C382.175 293.31 382.635 293.37 383.255 293.37ZM398.007 294.36C396.907 294.36 396.037 294.01 395.397 293.31C394.777 292.61 394.467 291.71 394.467 290.61V286.2C394.467 285.54 394.387 285.05 394.227 284.73C394.087 284.41 393.857 284.25 393.537 284.25C393.317 284.25 393.067 284.32 392.787 284.46C392.707 284.48 392.637 284.43 392.577 284.31C392.537 284.19 392.547 284.12 392.607 284.1L396.627 282.18C396.687 282.16 396.737 282.15 396.777 282.15C396.877 282.15 396.977 282.2 397.077 282.3C397.197 282.38 397.257 282.46 397.257 282.54V289.17C397.257 290.25 397.457 291.06 397.857 291.6C398.277 292.14 398.907 292.41 399.747 292.41C400.327 292.41 400.907 292.25 401.487 291.93C402.067 291.59 402.527 291.17 402.867 290.67L403.047 291.03C402.367 292.01 401.607 292.81 400.767 293.43C399.927 294.05 399.007 294.36 398.007 294.36ZM405.087 282.54V290.52C405.087 291.2 405.147 291.68 405.267 291.96C405.407 292.24 405.627 292.38 405.927 292.38C406.067 292.38 406.237 292.35 406.437 292.29C406.657 292.23 406.897 292.15 407.157 292.05C407.237 292.01 407.307 292.05 407.367 292.17C407.427 292.27 407.427 292.34 407.367 292.38L403.227 294.39C403.187 294.41 403.137 294.42 403.077 294.42C402.877 294.42 402.697 294.17 402.537 293.67C402.377 293.17 402.297 292.46 402.297 291.54V286.2C402.297 285.54 402.217 285.05 402.057 284.73C401.917 284.41 401.687 284.25 401.367 284.25C401.147 284.25 400.887 284.32 400.587 284.46C400.527 284.48 400.467 284.43 400.407 284.31C400.367 284.19 400.377 284.12 400.437 284.1L404.457 282.18C404.497 282.16 404.547 282.15 404.607 282.15C404.707 282.15 404.807 282.2 404.907 282.3C405.027 282.38 405.087 282.46 405.087 282.54ZM408.564 294C408.504 294 408.474 293.94 408.474 293.82C408.474 293.7 408.504 293.64 408.564 293.64C409.184 293.64 409.604 293.5 409.824 293.22C410.044 292.92 410.154 292.37 410.154 291.57V286.2C410.154 285.54 410.084 285.06 409.944 284.76C409.824 284.44 409.594 284.28 409.254 284.28C409.114 284.28 408.944 284.31 408.744 284.37C408.564 284.43 408.364 284.51 408.144 284.61C408.064 284.63 407.994 284.58 407.934 284.46C407.894 284.34 407.904 284.27 407.964 284.25L412.494 282.15C412.534 282.13 412.564 282.12 412.584 282.12C412.684 282.12 412.784 282.17 412.884 282.27C412.984 282.37 413.034 282.46 413.034 282.54C413.034 282.78 413.024 283.18 413.004 283.74C412.984 284.3 412.974 285.1 412.974 286.14V291.57C412.974 292.37 413.084 292.92 413.304 293.22C413.544 293.5 413.974 293.64 414.594 293.64C414.654 293.64 414.684 293.7 414.684 293.82C414.684 293.94 414.654 294 414.594 294C414.194 294 413.734 293.99 413.214 293.97C412.694 293.95 412.144 293.94 411.564 293.94C411.004 293.94 410.464 293.95 409.944 293.97C409.424 293.99 408.964 294 408.564 294ZM411.444 279.15C410.884 279.15 410.434 278.99 410.094 278.67C409.774 278.35 409.614 277.9 409.614 277.32C409.614 276.8 409.774 276.39 410.094 276.09C410.434 275.77 410.884 275.61 411.444 275.61C412.004 275.61 412.434 275.77 412.734 276.09C413.034 276.39 413.184 276.8 413.184 277.32C413.184 278.54 412.604 279.15 411.444 279.15ZM416.324 294C416.284 294 416.264 293.94 416.264 293.82C416.264 293.7 416.284 293.64 416.324 293.64C416.944 293.64 417.364 293.5 417.584 293.22C417.824 292.92 417.944 292.37 417.944 291.57L417.974 276.33C417.974 275.65 417.914 275.16 417.794 274.86C417.674 274.54 417.444 274.38 417.104 274.38C416.844 274.38 416.464 274.49 415.964 274.71C415.904 274.73 415.844 274.68 415.784 274.56C415.724 274.44 415.714 274.37 415.754 274.35L420.164 272.28C420.204 272.26 420.244 272.25 420.284 272.25C420.384 272.25 420.494 272.3 420.614 272.4C420.734 272.48 420.794 272.56 420.794 272.64V291.57C420.794 292.37 420.904 292.92 421.124 293.22C421.344 293.5 421.764 293.64 422.384 293.64C422.464 293.64 422.504 293.7 422.504 293.82C422.504 293.94 422.464 294 422.384 294C422.004 294 421.544 293.99 421.004 293.97C420.484 293.95 419.934 293.94 419.354 293.94C418.774 293.94 418.224 293.95 417.704 293.97C417.184 293.99 416.724 294 416.324 294ZM428.972 294.39C428.112 294.39 427.322 294.16 426.602 293.7C425.902 293.24 425.332 292.58 424.892 291.72C424.472 290.84 424.262 289.78 424.262 288.54C424.262 287.32 424.482 286.3 424.922 285.48C425.362 284.64 425.922 283.97 426.602 283.47C427.302 282.97 428.052 282.61 428.852 282.39C429.652 282.15 430.412 282.03 431.132 282.03C431.852 282.03 432.522 282.12 433.142 282.3C433.762 282.48 434.322 282.7 434.822 282.96L434.132 285.39C433.712 284.49 433.232 283.84 432.692 283.44C432.152 283.02 431.482 282.81 430.682 282.81C429.662 282.81 428.852 283.17 428.252 283.89C427.652 284.59 427.352 285.82 427.352 287.58C427.352 288.72 427.492 289.69 427.772 290.49C428.052 291.29 428.442 291.9 428.942 292.32C429.442 292.74 430.002 292.95 430.622 292.95C431.422 292.95 432.122 292.73 432.722 292.29C433.322 291.85 433.902 291.32 434.462 290.7L434.762 290.97C434.342 291.45 433.842 291.96 433.262 292.5C432.702 293.02 432.062 293.47 431.342 293.85C430.642 294.21 429.852 294.39 428.972 294.39ZM436.292 272.64V290.52C436.292 291.2 436.352 291.68 436.472 291.96C436.612 292.24 436.832 292.38 437.132 292.38C437.272 292.38 437.442 292.35 437.642 292.29C437.862 292.23 438.102 292.15 438.362 292.05C438.422 292.01 438.482 292.05 438.542 292.17C438.602 292.27 438.612 292.34 438.572 292.38L434.432 294.39C434.372 294.41 434.322 294.42 434.282 294.42C434.082 294.42 433.892 294.17 433.712 293.67C433.552 293.17 433.472 292.46 433.472 291.54V276.33C433.472 275.65 433.412 275.16 433.292 274.86C433.172 274.54 432.942 274.38 432.602 274.38C432.462 274.38 432.292 274.41 432.092 274.47C431.912 274.53 431.712 274.61 431.492 274.71C431.412 274.73 431.342 274.68 431.282 274.56C431.222 274.44 431.212 274.37 431.252 274.35L435.662 272.28C435.702 272.26 435.742 272.25 435.782 272.25C435.882 272.25 435.992 272.3 436.112 272.4C436.232 272.48 436.292 272.56 436.292 272.64Z" fill="#6D97A9"></path><path d="M677.374 294.36C675.114 294.36 673.174 293.94 671.554 293.1C669.934 292.24 668.694 291.09 667.834 289.65C666.994 288.19 666.574 286.58 666.574 284.82C666.574 283.34 666.854 282 667.414 280.8C667.994 279.58 668.794 278.54 669.814 277.68C670.854 276.8 672.064 276.12 673.444 275.64C674.824 275.16 676.324 274.92 677.944 274.92C678.844 274.92 679.774 274.99 680.734 275.13C681.714 275.27 682.504 275.47 683.104 275.73C683.284 275.79 683.394 275.87 683.434 275.97C683.494 276.05 683.534 276.2 683.554 276.42L683.944 280.59C683.944 280.65 683.894 280.69 683.794 280.71C683.694 280.73 683.624 280.7 683.584 280.62C682.904 279.1 681.944 277.91 680.704 277.05C679.484 276.17 678.074 275.73 676.474 275.73C674.394 275.73 672.824 276.46 671.764 277.92C670.724 279.36 670.204 281.28 670.204 283.68C670.204 285.7 670.544 287.48 671.224 289.02C671.924 290.54 672.864 291.73 674.044 292.59C675.244 293.43 676.604 293.85 678.124 293.85C678.884 293.85 679.494 293.76 679.954 293.58C680.414 293.4 680.744 293.05 680.944 292.53C681.164 292.01 681.274 291.24 681.274 290.22C681.274 289.26 681.214 288.56 681.094 288.12C680.994 287.66 680.734 287.36 680.314 287.22C679.894 287.08 679.224 287.01 678.304 287.01C678.184 287.01 678.124 286.93 678.124 286.77C678.124 286.61 678.174 286.53 678.274 286.53C679.654 286.61 680.904 286.66 682.024 286.68C683.144 286.68 684.324 286.65 685.564 286.59C685.664 286.59 685.714 286.66 685.714 286.8C685.714 286.94 685.664 287.01 685.564 287.01C685.224 286.99 684.974 287.06 684.814 287.22C684.674 287.36 684.584 287.68 684.544 288.18C684.504 288.68 684.484 289.46 684.484 290.52C684.484 291.18 684.504 291.67 684.544 291.99C684.584 292.31 684.614 292.55 684.634 292.71C684.674 292.85 684.694 293 684.694 293.16C684.694 293.28 684.664 293.36 684.604 293.4C684.564 293.44 684.474 293.48 684.334 293.52C683.234 293.76 682.074 293.96 680.854 294.12C679.654 294.28 678.494 294.36 677.374 294.36ZM691.496 285.87L691.256 285.48C692.036 284.58 692.696 283.89 693.236 283.41C693.776 282.93 694.236 282.6 694.616 282.42C694.996 282.22 695.336 282.12 695.636 282.12C696.056 282.12 696.486 282.28 696.926 282.6C697.386 282.9 697.616 283.3 697.616 283.8C697.616 284.22 697.486 284.57 697.226 284.85C696.986 285.11 696.646 285.24 696.206 285.24C695.786 285.24 695.466 285.13 695.246 284.91C695.046 284.69 694.856 284.48 694.676 284.28C694.516 284.06 694.276 283.95 693.956 283.95C693.816 283.95 693.656 284 693.476 284.1C693.316 284.18 693.076 284.36 692.756 284.64C692.456 284.9 692.036 285.31 691.496 285.87ZM687.836 294C687.776 294 687.746 293.94 687.746 293.82C687.746 293.7 687.776 293.64 687.836 293.64C688.456 293.64 688.876 293.5 689.096 293.22C689.316 292.92 689.426 292.37 689.426 291.57V285.93C689.426 285.31 689.356 284.86 689.216 284.58C689.076 284.28 688.836 284.13 688.496 284.13C688.316 284.13 688.106 284.17 687.866 284.25C687.626 284.31 687.356 284.41 687.056 284.55C686.976 284.59 686.916 284.55 686.876 284.43C686.836 284.31 686.836 284.24 686.876 284.22L691.046 282.18C691.166 282.14 691.236 282.12 691.256 282.12C691.476 282.12 691.696 282.36 691.916 282.84C692.136 283.32 692.246 284.01 692.246 284.91V291.57C692.246 292.09 692.326 292.51 692.486 292.83C692.646 293.13 692.916 293.34 693.296 293.46C693.696 293.58 694.236 293.64 694.916 293.64C694.996 293.64 695.036 293.7 695.036 293.82C695.036 293.94 694.996 294 694.916 294C694.376 294 693.756 293.99 693.056 293.97C692.376 293.95 691.636 293.94 690.836 293.94C690.276 293.94 689.736 293.95 689.216 293.97C688.696 293.99 688.236 294 687.836 294ZM704.792 294.39C703.532 294.39 702.442 294.1 701.522 293.52C700.602 292.94 699.892 292.17 699.392 291.21C698.892 290.23 698.642 289.18 698.642 288.06C698.642 287.02 698.842 286.12 699.242 285.36C699.642 284.6 700.172 283.98 700.832 283.5C701.492 283 702.212 282.63 702.992 282.39C703.772 282.15 704.542 282.03 705.302 282.03C706.582 282.03 707.672 282.33 708.572 282.93C709.492 283.53 710.192 284.3 710.672 285.24C711.152 286.18 711.392 287.18 711.392 288.24C711.392 289.46 711.082 290.54 710.462 291.48C709.862 292.4 709.062 293.12 708.062 293.64C707.062 294.14 705.972 294.39 704.792 294.39ZM705.692 293.76C706.492 293.76 707.092 293.37 707.492 292.59C707.892 291.81 708.092 290.71 708.092 289.29C708.092 287.83 707.902 286.61 707.522 285.63C707.162 284.65 706.692 283.91 706.112 283.41C705.532 282.91 704.922 282.66 704.282 282.66C703.502 282.66 702.902 283.01 702.482 283.71C702.082 284.41 701.882 285.49 701.882 286.95C701.882 288.31 702.052 289.51 702.392 290.55C702.732 291.57 703.192 292.36 703.772 292.92C704.352 293.48 704.992 293.76 705.692 293.76ZM726.189 293.97L721.599 284.91C721.159 284.05 720.819 283.48 720.579 283.2C720.339 282.92 720.029 282.78 719.649 282.78C719.609 282.78 719.589 282.72 719.589 282.6C719.589 282.48 719.609 282.42 719.649 282.42C719.949 282.42 720.289 282.43 720.669 282.45C721.049 282.47 721.569 282.48 722.229 282.48C722.969 282.48 723.599 282.47 724.119 282.45C724.659 282.43 725.149 282.42 725.589 282.42C725.629 282.42 725.649 282.48 725.649 282.6C725.649 282.72 725.629 282.78 725.589 282.78C725.089 282.78 724.709 282.88 724.449 283.08C724.189 283.28 724.159 283.57 724.359 283.95L727.929 290.67L726.429 293.34L729.699 285.45C730.039 284.63 730.039 283.98 729.699 283.5C729.359 283.02 728.799 282.78 728.019 282.78C727.959 282.78 727.929 282.72 727.929 282.6C727.929 282.48 727.959 282.42 728.019 282.42C728.479 282.42 728.919 282.43 729.339 282.45C729.779 282.47 730.339 282.48 731.019 282.48C731.519 282.48 731.919 282.47 732.219 282.45C732.519 282.43 732.889 282.42 733.329 282.42C733.389 282.42 733.419 282.48 733.419 282.6C733.419 282.72 733.389 282.78 733.329 282.78C732.769 282.78 732.259 283 731.799 283.44C731.359 283.86 730.939 284.54 730.539 285.48L726.849 293.97C726.829 294.05 726.719 294.09 726.519 294.09C726.339 294.09 726.229 294.05 726.189 293.97ZM718.809 293.97L714.219 284.91C713.779 284.01 713.399 283.43 713.079 283.17C712.759 282.91 712.379 282.78 711.939 282.78C711.879 282.78 711.849 282.72 711.849 282.6C711.849 282.48 711.879 282.42 711.939 282.42C712.279 282.42 712.659 282.43 713.079 282.45C713.519 282.47 714.109 282.48 714.849 282.48C715.589 282.48 716.219 282.47 716.739 282.45C717.279 282.43 717.769 282.42 718.209 282.42C718.269 282.42 718.299 282.48 718.299 282.6C718.299 282.72 718.269 282.78 718.209 282.78C717.709 282.78 717.289 282.86 716.949 283.02C716.629 283.18 716.599 283.49 716.859 283.95L720.579 290.67L719.049 293.34L722.319 285.45L723.159 285.48L719.469 293.97C719.449 294.05 719.339 294.09 719.139 294.09C718.959 294.09 718.849 294.05 718.809 293.97Z" fill="#1892F4"></path><path d="M951.561 278.28C951.561 279.04 951.751 279.71 952.131 280.29C952.531 280.85 953.041 281.36 953.661 281.82C954.301 282.28 954.971 282.74 955.671 283.2C956.431 283.68 957.151 284.19 957.831 284.73C958.531 285.25 959.101 285.86 959.541 286.56C960.001 287.24 960.231 288.06 960.231 289.02C960.231 290.08 959.941 291.01 959.361 291.81C958.801 292.61 958.031 293.24 957.051 293.7C956.091 294.14 954.991 294.36 953.751 294.36C953.151 294.36 952.521 294.3 951.861 294.18C951.221 294.06 950.631 293.91 950.091 293.73C949.571 293.55 949.191 293.36 948.951 293.16C948.871 293.1 948.801 293.04 948.741 292.98C948.681 292.9 948.651 292.77 948.651 292.59L948.561 287.82C948.541 287.72 948.581 287.67 948.681 287.67C948.801 287.65 948.871 287.68 948.891 287.76C949.191 288.38 949.521 289.04 949.881 289.74C950.241 290.42 950.641 291.05 951.081 291.63C951.541 292.21 952.051 292.69 952.611 293.07C953.171 293.43 953.811 293.61 954.531 293.61C954.991 293.61 955.431 293.53 955.851 293.37C956.271 293.21 956.611 292.92 956.871 292.5C957.151 292.08 957.291 291.5 957.291 290.76C957.291 289.82 957.081 289.02 956.661 288.36C956.241 287.68 955.701 287.09 955.041 286.59C954.381 286.07 953.691 285.58 952.971 285.12C952.271 284.66 951.601 284.19 950.961 283.71C950.321 283.21 949.801 282.65 949.401 282.03C949.001 281.39 948.801 280.63 948.801 279.75C948.801 278.63 949.111 277.72 949.731 277.02C950.371 276.3 951.171 275.77 952.131 275.43C953.111 275.09 954.101 274.92 955.101 274.92C955.821 274.92 956.541 274.99 957.261 275.13C957.981 275.25 958.551 275.4 958.971 275.58C959.171 275.66 959.291 275.75 959.331 275.85C959.391 275.95 959.421 276.06 959.421 276.18V280.59C959.421 280.65 959.371 280.7 959.271 280.74C959.191 280.76 959.131 280.74 959.091 280.68C958.971 280.44 958.801 280.05 958.581 279.51C958.361 278.95 958.071 278.37 957.711 277.77C957.351 277.17 956.891 276.66 956.331 276.24C955.771 275.8 955.091 275.58 954.291 275.58C953.791 275.58 953.331 275.68 952.911 275.88C952.511 276.08 952.181 276.38 951.921 276.78C951.681 277.16 951.561 277.66 951.561 278.28ZM968.8 294.36C967.42 294.36 966.28 294.07 965.38 293.49C964.48 292.89 963.81 292.13 963.37 291.21C962.95 290.29 962.74 289.36 962.74 288.42C962.74 287.42 962.95 286.53 963.37 285.75C963.79 284.97 964.34 284.32 965.02 283.8C965.72 283.26 966.49 282.85 967.33 282.57C968.17 282.29 969 282.15 969.82 282.15C970.4 282.15 970.98 282.24 971.56 282.42C972.14 282.58 972.62 282.83 973 283.17C973.38 283.49 973.57 283.9 973.57 284.4C973.57 284.74 973.43 285.06 973.15 285.36C972.87 285.64 972.46 285.78 971.92 285.78C971.42 285.78 971.03 285.65 970.75 285.39C970.47 285.13 970.25 284.75 970.09 284.25C969.95 283.77 969.79 283.41 969.61 283.17C969.45 282.91 969.13 282.78 968.65 282.78C967.79 282.78 967.1 283.21 966.58 284.07C966.08 284.93 965.83 286.05 965.83 287.43C965.83 288.43 965.98 289.35 966.28 290.19C966.58 291.01 967.07 291.67 967.75 292.17C968.43 292.65 969.34 292.89 970.48 292.89C971.08 292.89 971.58 292.82 971.98 292.68C972.4 292.54 972.86 292.35 973.36 292.11C973.4 292.07 973.45 292.09 973.51 292.17C973.59 292.25 973.61 292.31 973.57 292.35C972.87 292.99 972.15 293.49 971.41 293.85C970.67 294.19 969.8 294.36 968.8 294.36ZM984.036 294.18C983.956 294.22 983.856 294.24 983.736 294.24C983.376 294.24 983.016 294 982.656 293.52C982.296 293.04 982.116 292.35 982.116 291.45V286.35C982.116 285.57 982.066 284.92 981.966 284.4C981.866 283.88 981.706 283.49 981.486 283.23C981.266 282.97 980.966 282.84 980.586 282.84C980.286 282.84 980.016 282.92 979.776 283.08C979.536 283.22 979.346 283.46 979.206 283.8C979.066 284.12 978.976 284.57 978.936 285.15C978.876 285.73 978.696 286.16 978.396 286.44C978.096 286.7 977.686 286.83 977.166 286.83C976.666 286.83 976.306 286.72 976.086 286.5C975.866 286.28 975.756 285.98 975.756 285.6C975.756 285.16 975.966 284.74 976.386 284.34C976.806 283.92 977.326 283.55 977.946 283.23C978.586 282.89 979.246 282.63 979.926 282.45C980.606 282.25 981.216 282.15 981.756 282.15C982.636 282.15 983.386 282.42 984.006 282.96C984.626 283.48 984.936 284.31 984.936 285.45V290.76C984.936 291.34 985.036 291.79 985.236 292.11C985.456 292.43 985.756 292.59 986.136 292.59C986.416 292.59 986.706 292.52 987.006 292.38C987.086 292.34 987.146 292.38 987.186 292.5C987.246 292.6 987.226 292.67 987.126 292.71L984.036 294.18ZM977.736 294.21C977.116 294.21 976.616 294.05 976.236 293.73C975.856 293.39 975.666 292.91 975.666 292.29C975.666 291.57 975.936 291.06 976.476 290.76C977.036 290.44 977.896 290.09 979.056 289.71L982.416 288.63L982.536 289.08L980.466 289.83C979.926 290.03 979.536 290.25 979.296 290.49C979.076 290.73 978.966 291.02 978.966 291.36C978.966 291.78 979.086 292.11 979.326 292.35C979.566 292.59 979.866 292.71 980.226 292.71C980.386 292.71 980.596 292.68 980.856 292.62C981.136 292.54 981.436 292.43 981.756 292.29L983.406 291.39L983.436 291.9L980.856 293.31C980.356 293.57 979.826 293.79 979.266 293.97C978.706 294.13 978.196 294.21 977.736 294.21ZM988.143 294C988.103 294 988.083 293.94 988.083 293.82C988.083 293.7 988.103 293.64 988.143 293.64C988.763 293.64 989.183 293.5 989.403 293.22C989.643 292.92 989.763 292.37 989.763 291.57L989.793 276.33C989.793 275.65 989.733 275.16 989.613 274.86C989.493 274.54 989.263 274.38 988.923 274.38C988.663 274.38 988.283 274.49 987.783 274.71C987.723 274.73 987.663 274.68 987.603 274.56C987.543 274.44 987.533 274.37 987.573 274.35L991.983 272.28C992.023 272.26 992.063 272.25 992.103 272.25C992.203 272.25 992.313 272.3 992.433 272.4C992.553 272.48 992.613 272.56 992.613 272.64V291.57C992.613 292.37 992.723 292.92 992.943 293.22C993.163 293.5 993.583 293.64 994.203 293.64C994.283 293.64 994.323 293.7 994.323 293.82C994.323 293.94 994.283 294 994.203 294C993.823 294 993.363 293.99 992.823 293.97C992.303 293.95 991.753 293.94 991.173 293.94C990.593 293.94 990.043 293.95 989.523 293.97C989.003 293.99 988.543 294 988.143 294ZM1002.17 294.36C1000.87 294.36 999.76 294.09 998.84 293.55C997.94 293.01 997.25 292.3 996.77 291.42C996.31 290.52 996.08 289.57 996.08 288.57C996.08 287.39 996.38 286.32 996.98 285.36C997.58 284.38 998.39 283.6 999.41 283.02C1000.45 282.44 1001.62 282.15 1002.92 282.15C1004.16 282.15 1005.11 282.42 1005.77 282.96C1006.43 283.48 1006.76 284.2 1006.76 285.12C1006.76 285.34 1006.74 285.54 1006.7 285.72C1006.66 285.9 1006.57 285.99 1006.43 285.99H1003.55C1003.59 285.05 1003.48 284.28 1003.22 283.68C1002.96 283.06 1002.49 282.75 1001.81 282.75C1001.01 282.75 1000.36 283.17 999.86 284.01C999.36 284.83 999.11 285.93 999.11 287.31C999.11 288.43 999.29 289.41 999.65 290.25C1000.01 291.09 1000.53 291.74 1001.21 292.2C1001.89 292.66 1002.71 292.89 1003.67 292.89C1004.15 292.89 1004.66 292.82 1005.2 292.68C1005.76 292.54 1006.26 292.33 1006.7 292.05C1006.74 292.01 1006.79 292.03 1006.85 292.11C1006.93 292.19 1006.95 292.26 1006.91 292.32C1006.17 293.06 1005.41 293.59 1004.63 293.91C1003.87 294.21 1003.05 294.36 1002.17 294.36ZM998.06 286.05L998.03 285.48L1004.6 285.33V285.99L998.06 286.05Z" fill="#369A85"></path><line x1="123" y1="259" x2="123" y2="272" stroke="#EEEEEE" stroke-width="2" stroke-dasharray="5 5"></line><line x1="407" y1="249" x2="407" y2="272" stroke="#EEEEEE" stroke-width="2" stroke-dasharray="5 5"></line><line x1="694" y1="196" x2="694" y2="272" stroke="#EEEEEE" stroke-width="2" stroke-dasharray="5 5"></line><line x1="978" y1="99" x2="978" y2="272" stroke="#EEEEEE" stroke-width="2" stroke-dasharray="5 5"></line><defs><linearGradient id="paint0_linear_1357_3010" x1="1055" y1="72.5" x2="138.5" y2="259.5" gradientUnits="userSpaceOnUse"><stop stop-color="#7FEBD4"></stop><stop offset="0.463542" stop-color="#007DFB"></stop><stop offset="1" stop-color="#FFB839"></stop></linearGradient></defs></svg>