<?xml version="1.0" encoding="UTF-8"?>
<svg xmlns="http://www.w3.org/2000/svg" width="30" height="30" viewBox="0 0 30 30" fill="none">
  <path d="M21.2503 10.7626L20.0003 3.5501C19.9524 3.25432 19.7998 2.98559 19.5704 2.79287C19.3409 2.60014 19.0499 2.49625 18.7503 2.5001H11.2503C10.9507 2.49625 10.6597 2.60014 10.4302 2.79287C10.2008 2.98559 10.0482 3.25432 10.0003 3.5501L8.75029 10.7626C7.89575 12.0105 7.43848 13.4876 7.43848 15.0001C7.43848 16.5126 7.89575 17.9897 8.75029 19.2376L10.0003 26.4501C10.0482 26.7459 10.2008 27.0146 10.4302 27.2073C10.6597 27.4001 10.9507 27.504 11.2503 27.5001H18.7503C19.0499 27.504 19.3409 27.4001 19.5704 27.2073C19.7998 27.0146 19.9524 26.7459 20.0003 26.4501L21.2503 19.2376C22.1048 17.9897 22.5621 16.5126 22.5621 15.0001C22.5621 13.4876 22.1048 12.0105 21.2503 10.7626ZM12.3128 5.0001H17.6878L18.2378 8.2376C17.2271 7.75392 16.1208 7.50285 15.0003 7.50285C13.8798 7.50285 12.7735 7.75392 11.7628 8.2376L12.3128 5.0001ZM17.6878 25.0001H12.3128L11.7628 21.7626C12.7735 22.2463 13.8798 22.4974 15.0003 22.4974C16.1208 22.4974 17.2271 22.2463 18.2378 21.7626L17.6878 25.0001ZM15.0003 20.0001C14.0114 20.0001 13.0447 19.7069 12.2224 19.1574C11.4002 18.608 10.7593 17.8272 10.3809 16.9135C10.0025 15.9999 9.90344 14.9946 10.0964 14.0247C10.2893 13.0547 10.7655 12.1638 11.4648 11.4646C12.164 10.7653 13.0549 10.2891 14.0248 10.0962C14.9947 9.90325 16.0001 10.0023 16.9137 10.3807C17.8273 10.7591 18.6082 11.4 19.1576 12.2223C19.707 13.0445 20.0003 14.0112 20.0003 15.0001C20.0003 16.3262 19.4735 17.598 18.5358 18.5356C17.5981 19.4733 16.3264 20.0001 15.0003 20.0001Z" fill="#FFBC00"></path>
</svg>
