<svg width="136" height="32" viewBox="0 0 136 32" fill="none" xmlns="http://www.w3.org/2000/svg">
<path d="M26.9307 0.456114C26.6747 0.168042 26.3066 0 25.9225 0H13.0633C12.6792 0 12.3111 0.168042 12.055 0.456114L1.16429 12.8992C-0.388097 14.6677 -0.388097 17.3403 1.16429 19.1168L12.039 31.5439C12.2951 31.832 12.6632 32 13.0473 32H25.9305C26.3146 32 26.6827 31.832 26.9388 31.5439L29.0033 29.1833L35.853 21.3573L37.8135 19.1168C39.3659 17.3483 39.3659 14.6757 37.8135 12.8992L26.9307 0.456114ZM31.3639 16.14L19.6489 29.5274L19.4969 29.7034L19.3448 29.5274L7.62191 16.14L7.50188 16.004L7.62191 15.868L19.3368 2.48062L19.4889 2.30458L19.6409 2.48062L31.3559 15.868L31.4759 16.004L31.3559 16.14H31.3639Z" fill="white"/>
<path d="M108.699 5.02723C108.699 4.93921 108.627 4.86719 108.539 4.86719H104.594C104.506 4.86719 104.434 4.93921 104.434 5.02723V24.136C104.434 25.2883 104.946 26.2806 105.922 27.0167C106.73 27.6249 107.722 27.945 108.867 27.977C109.203 27.985 109.683 27.993 110.275 27.993C111.099 27.993 111.963 27.985 112.404 27.977C112.492 27.977 112.564 27.905 112.564 27.8169V24.8002C112.564 24.7122 112.492 24.6401 112.404 24.6401H110.155C109.355 24.6401 108.707 23.992 108.707 23.1918V12.5411H112.404C112.492 12.5411 112.572 12.4691 112.572 12.3731V9.34831C112.572 9.26029 112.5 9.18027 112.404 9.18027H108.707V5.02723H108.699Z" fill="white"/>
<path d="M101.954 12.6215C102.042 12.6215 102.114 12.5495 102.114 12.4615V9.30066C102.114 9.21264 102.042 9.14062 101.954 9.14062H99.3217C95.7448 9.14062 92.832 12.0534 92.832 15.6302V27.6813C92.832 27.7613 92.864 27.8333 92.9121 27.8813C92.9681 27.9373 93.0401 27.9693 93.1121 27.9693H96.833C96.9131 27.9693 96.9851 27.9373 97.0331 27.8813C97.0891 27.8253 97.1131 27.7533 97.1131 27.6813V15.4142C97.1131 14.67 97.4012 13.9658 97.9213 13.4457C98.4494 12.9176 99.1456 12.6295 99.8898 12.6295H101.938L101.954 12.6215Z" fill="white"/>
<path d="M131.934 27.9744H135.647C135.807 27.9744 135.935 27.8464 135.935 27.6863C135.943 26.182 135.959 21.2527 135.935 18.6601C135.903 15.1392 134.438 12.3785 131.565 10.458C129.725 9.22572 127.741 8.60156 125.684 8.60156C124.348 8.60156 122.955 8.86563 121.555 9.39376C118.81 10.418 116.874 12.2425 115.786 14.8271C114.545 17.7879 114.705 20.8046 116.258 23.8054C117.746 26.6861 120.835 28.4785 124.308 28.4785C125.988 28.4785 127.588 28.0464 128.925 27.2222C129.197 27.0542 129.373 26.7421 129.365 26.406L129.341 23.8614C129.341 23.7013 129.213 23.6053 129.085 23.6053C129.037 23.6053 128.989 23.6213 128.941 23.6453C127.949 24.2935 126.82 24.6216 125.604 24.6216C125.3 24.6216 124.98 24.5976 124.66 24.5576C121.635 24.1735 119.314 21.3888 119.49 18.34C119.635 15.7554 121.179 13.6988 123.612 12.8346C124.244 12.6106 124.908 12.4985 125.58 12.4985C127.5 12.4985 129.325 13.4188 130.453 14.9712C131.245 16.0594 131.646 17.3237 131.646 18.7401V27.6783C131.646 27.8304 131.774 27.9584 131.934 27.9584V27.9744Z" fill="white"/>
<path d="M67.5254 27.9857C67.6134 27.9857 67.6535 27.9297 67.6695 27.8977C67.6855 27.8737 67.7095 27.8017 67.6695 27.7297C66.4371 25.8572 62.2521 19.4876 59.9795 16.1428C59.7955 15.8707 59.7955 15.6386 59.9795 15.3586C62.2041 12.0217 66.4211 5.66016 67.6615 3.78769C67.7095 3.71567 67.6855 3.64366 67.6615 3.61965C67.6454 3.59565 67.6054 3.53163 67.5174 3.53163L62.9163 3.51562C62.8202 3.51562 62.7322 3.56364 62.6762 3.64366L55.2343 14.9345C54.9063 15.4306 54.9063 16.0708 55.2343 16.5669L62.6762 27.8497C62.7322 27.9297 62.8202 27.9777 62.9163 27.9777H67.5254V27.9857Z" fill="white"/>
<path d="M53.4963 3.54688H49.8154C49.6563 3.54688 49.5273 3.67585 49.5273 3.83495V27.6889C49.5273 27.848 49.6563 27.977 49.8154 27.977H53.4963C53.6554 27.977 53.7844 27.848 53.7844 27.6889V3.83495C53.7844 3.67585 53.6554 3.54688 53.4963 3.54688Z" fill="white"/>
<path d="M85.0195 27.9744H88.7324C88.8925 27.9744 89.0205 27.8464 89.0205 27.6863C89.0285 26.182 89.0445 21.2527 89.0205 18.6601C88.9885 15.1392 87.5241 12.3785 84.6514 10.458C82.811 9.22572 80.8265 8.60156 78.77 8.60156C77.4336 8.60156 76.0413 8.86563 74.6409 9.39376C71.8962 10.418 69.9598 12.2425 68.8715 14.8271C67.6312 17.7879 67.7912 20.8046 69.3436 23.8054C70.832 26.6861 73.9208 28.4785 77.3936 28.4785C79.074 28.4785 80.6664 28.0464 82.0028 27.2302C82.2908 27.0542 82.4589 26.7421 82.4589 26.406L82.4349 23.8614C82.4349 23.7013 82.3068 23.6053 82.1788 23.6053C82.1308 23.6053 82.0828 23.6213 82.0348 23.6533C81.0425 24.3015 79.9142 24.6296 78.6979 24.6296C78.3939 24.6296 78.0738 24.6056 77.7537 24.5656C74.729 24.1815 72.4084 21.3968 72.5844 18.348C72.7285 15.7634 74.2728 13.7068 76.7054 12.8426C77.3376 12.6186 78.0018 12.5065 78.6819 12.5065C80.6184 12.5065 82.4509 13.4508 83.5792 15.0272C84.3473 16.1074 84.7394 17.3558 84.7394 18.7481V27.6863C84.7394 27.8384 84.8675 27.9664 85.0275 27.9664L85.0195 27.9744Z" fill="white"/>
</svg>
