<svg xmlns="http://www.w3.org/2000/svg" width="152" height="41" viewBox="0 0 152 41" fill="none"><mask id="mask0_191_54640" style="mask-type:luminance" maskUnits="userSpaceOnUse" x="0" y="0" width="152" height="41"><path d="M152 0.544678H0V41.0001H152V0.544678Z" fill="white"></path></mask><g mask="url(#mask0_191_54640)"><path d="M80.9493 20.0849V30.0398H76.0666V20.7421C76.0666 19.9704 75.945 19.3811 75.7065 18.9742C75.4679 18.5673 75.0213 18.3638 74.3759 18.3638C73.8651 18.3802 73.3634 18.5028 72.9027 18.724C72.2794 19.0057 71.6734 19.3243 71.088 19.6781V30.0398H66.203V20.7421C66.203 19.9626 66.0829 19.3733 65.8428 18.9742C65.6028 18.5751 65.1592 18.3716 64.5122 18.3638C63.9972 18.3815 63.4911 18.5041 63.025 18.724C62.3955 19.0039 61.784 19.3225 61.194 19.6781V30.0398H56.2832V14.8561H59.3232L60.1674 16.4533C61.0746 15.833 62.0528 15.3234 63.0811 14.9357C63.9934 14.5717 64.9638 14.3753 65.9457 14.3557C67.9927 14.3557 69.4222 15.0136 70.2345 16.3294C71.1188 15.7523 72.0637 15.2739 73.0523 14.9029C73.9415 14.5559 74.8854 14.3706 75.8398 14.3557C77.6544 14.3557 78.9585 14.8515 79.752 15.843C80.5455 16.8345 80.9423 18.2485 80.9423 20.0849" fill="#4453E2"></path><path d="M89.2775 10.0669C89.2808 10.4204 89.2117 10.7707 89.0746 11.0965C88.9375 11.4222 88.7351 11.7165 88.4801 11.9611C88.2309 12.2186 87.9315 12.4222 87.6005 12.5594C87.2695 12.6965 86.9138 12.7643 86.5555 12.7585C85.8437 12.7512 85.1631 12.4654 84.6595 11.9622C84.156 11.4591 83.8695 10.7787 83.8616 10.0669C83.8564 9.70841 83.9245 9.35259 84.0616 9.02127C84.1987 8.68995 84.402 8.39009 84.659 8.14005C84.9042 7.88502 85.1989 7.68274 85.525 7.54562C85.8511 7.4085 86.2018 7.33943 86.5555 7.34264C86.9132 7.34264 87.2673 7.41312 87.5977 7.55006C87.9281 7.68699 88.2283 7.8877 88.4811 8.14071C88.7339 8.39371 88.9343 8.69406 89.071 9.02457C89.2076 9.35509 89.2778 9.70929 89.2775 10.0669ZM89.0273 30.0421H84.1165V14.8561H89.0273V30.0421Z" fill="#4453E2"></path><path d="M107.622 22.3088C107.622 24.8344 106.921 26.8119 105.518 28.2415C104.115 29.6711 102.189 30.3859 99.7418 30.3859C98.9237 30.3716 98.1158 30.2018 97.3612 29.8855V33.627C97.3612 34.584 96.9811 35.5017 96.3044 36.1784C95.6277 36.8551 94.7099 37.2352 93.753 37.2352H92.4785V14.8889H94.9432L95.7898 15.8243C96.9747 14.9092 98.4248 14.4036 99.9218 14.3838C102.279 14.3838 104.15 15.0729 105.534 16.451C106.919 17.8291 107.612 19.7778 107.615 22.2971M102.576 22.3275C102.576 21.0804 102.294 20.0998 101.729 19.3858C101.452 19.0356 101.095 18.7564 100.689 18.571C100.282 18.3856 99.8374 18.2994 99.391 18.3194C98.6559 18.3498 97.947 18.6008 97.3565 19.0397V25.8025C98.0025 26.2164 98.7503 26.4438 99.5173 26.4596C99.9532 26.4686 100.384 26.3689 100.772 26.1697C101.16 25.9705 101.492 25.678 101.739 25.3184C102.303 24.5561 102.585 23.5591 102.585 22.3275" fill="#4453E2"></path><path d="M110.426 19.4863C110.395 17.5117 110.835 15.5582 111.709 13.7874C112.512 12.156 113.74 10.7713 115.264 9.7793C116.792 8.80171 118.566 8.27563 120.38 8.26164C122.166 8.23368 123.922 8.7208 125.438 9.66471C126.943 10.6184 128.151 11.9734 128.927 13.577C129.758 15.3599 130.186 17.304 130.181 19.271C130.176 21.238 129.737 23.1797 128.897 24.9583C128.096 26.5986 126.862 27.9893 125.329 28.9804C123.797 29.961 122.016 30.4805 120.198 30.477C118.423 30.5021 116.678 30.015 115.173 29.0739C113.667 28.1215 112.458 26.7662 111.684 25.1617C110.824 23.395 110.393 21.4507 110.426 19.4863ZM120.413 9.99911C118.958 9.97827 117.533 10.4043 116.328 11.2198C115.097 12.0685 114.123 13.2379 113.51 14.6012C112.845 16.1179 112.499 17.7553 112.493 19.4115C112.487 21.0677 112.822 22.7074 113.477 24.2287C114.071 25.5594 115.012 26.7057 116.202 27.5469C117.353 28.3492 118.727 28.7711 120.13 28.7536C121.585 28.7741 123.012 28.3481 124.218 27.5329C125.443 26.6811 126.413 25.5123 127.024 24.1515C127.723 22.6191 128.071 20.9503 128.043 19.2664C128.07 17.6215 127.733 15.991 127.057 14.4913C126.465 13.1636 125.524 12.022 124.332 11.1894C123.177 10.3963 121.805 9.98048 120.404 9.99911" fill="#6579ED"></path><path d="M138.816 30.4489C137.804 30.4345 136.796 30.3083 135.811 30.0724C134.875 29.8843 133.969 29.5696 133.117 29.137L133.585 27.6358C134.347 28.0035 135.145 28.2919 135.966 28.4963C136.882 28.7362 137.825 28.8572 138.772 28.8564C140.526 28.8564 141.888 28.5018 142.859 27.7924C143.312 27.49 143.682 27.0795 143.936 26.5981C144.19 26.1167 144.32 25.5796 144.314 25.0354C144.333 24.3005 144.107 23.5801 143.673 22.9869C143.166 22.3444 142.539 21.8073 141.826 21.4061C140.763 20.799 139.66 20.2654 138.524 19.8089C134.682 18.1814 132.762 16.0627 132.762 13.453C132.756 12.5107 133.046 11.5904 133.592 10.8222C134.188 9.99833 134.996 9.35172 135.93 8.95145C137.025 8.46949 138.21 8.23016 139.405 8.24991C140.361 8.24741 141.313 8.36366 142.24 8.596C143.078 8.80007 143.892 9.09408 144.667 9.47292L143.977 10.9438C143.294 10.6348 142.591 10.3731 141.872 10.1604C141.086 9.95633 140.274 9.8619 139.462 9.87982C137.96 9.87982 136.771 10.2033 135.893 10.8503C135.476 11.1403 135.137 11.5296 134.908 11.9832C134.678 12.4367 134.565 12.9402 134.579 13.4483C134.559 14.179 134.785 14.8952 135.22 15.4828C135.715 16.1056 136.326 16.6266 137.02 17.0168C137.792 17.4845 138.929 18.0691 140.432 18.7706C141.577 19.2769 142.677 19.8793 143.72 20.5713C144.455 21.0631 145.075 21.7095 145.534 22.4654C145.973 23.2502 146.189 24.1393 146.161 25.0377C146.174 26.0425 145.867 27.0254 145.284 27.8439C144.636 28.7171 143.751 29.3852 142.733 29.7684C141.481 30.2524 140.146 30.4868 138.804 30.4583" fill="#6579ED"></path><path d="M37.5504 9.11988H15.9828C15.5732 9.11926 15.1674 9.19945 14.7888 9.35586C14.4102 9.51227 14.0662 9.74181 13.7764 10.0314C13.4867 10.3209 13.2568 10.6648 13.1002 11.0433C12.9435 11.4217 12.863 11.8274 12.8633 12.237V31.8591C12.863 32.2683 12.9433 32.6736 13.0997 33.0518C13.2561 33.43 13.4855 33.7736 13.7748 34.0631C14.064 34.3526 14.4075 34.5822 14.7856 34.7389C15.1636 34.8956 15.5689 34.9762 15.9781 34.9762H37.5457C38.3725 34.9762 39.1653 34.6478 39.7499 34.0632C40.3345 33.4787 40.6629 32.6858 40.6629 31.8591V12.237C40.6629 11.4103 40.3345 10.6175 39.7499 10.0329C39.1653 9.44829 38.3725 9.11988 37.5457 9.11988" fill="#4453E2"></path><path d="M21.5205 18.0083H17.0938V26.0853H21.5205V18.0083Z" fill="white"></path><path d="M36.4384 18.0083H32.0117V26.0853H36.4384V18.0083Z" fill="white"></path><path d="M7.33211 28.5103H5.73961C5.39168 28.5103 5.058 28.3721 4.81198 28.1261C4.56595 27.88 4.42773 27.5464 4.42773 27.1984V16.9349C4.42773 16.587 4.56595 16.2533 4.81198 16.0073C5.058 15.7613 5.39168 15.623 5.73961 15.623H7.33211C7.68004 15.623 8.01372 15.7613 8.25974 16.0073C8.50577 16.2533 8.64398 16.587 8.64398 16.9349V27.2031C8.64398 27.551 8.50577 27.8847 8.25974 28.1307C8.01372 28.3768 7.68004 28.515 7.33211 28.515" fill="#4453E2"></path><path d="M47.7927 28.4706H46.2025C45.8546 28.4706 45.5209 28.3324 45.2749 28.0864C45.0288 27.8403 44.8906 27.5067 44.8906 27.1587V16.8976C44.8906 16.7253 44.9246 16.5547 44.9905 16.3955C45.0564 16.2364 45.153 16.0918 45.2749 15.9699C45.3967 15.8481 45.5413 15.7515 45.7005 15.6856C45.8596 15.6196 46.0302 15.5857 46.2025 15.5857H47.7927C48.1408 15.5857 48.4747 15.7238 48.7211 15.9698C48.9675 16.2157 49.1063 16.5494 49.1069 16.8976V27.1587C49.1063 27.5069 48.9675 27.8406 48.7211 28.0865C48.4747 28.3325 48.1408 28.4706 47.7927 28.4706Z" fill="#4453E2"></path></g></svg>