<svg xmlns="http://www.w3.org/2000/svg" width="241" height="41" viewBox="0 0 241 41" fill="none"><path d="M52.5373 17.5015C52.3764 17.4775 52.1892 17.4584 51.9755 17.4392C51.7618 17.42 51.5697 17.4128 51.4016 17.4128C50.8832 17.3905 50.3675 17.4977 49.901 17.7245C49.5269 17.9227 49.229 18.2387 49.0534 18.6235V26.3433H45.8984V14.5359H48.8805L48.967 15.9432C49.2353 15.463 49.6128 15.0524 50.069 14.7444C50.5243 14.4514 51.057 14.3011 51.5985 14.3129C51.7762 14.3137 51.9536 14.3282 52.1291 14.3561C52.2818 14.378 52.4326 14.4108 52.5805 14.4544L52.5373 17.5015Z" fill="#0F2035"></path><path fill-rule="evenodd" clip-rule="evenodd" d="M56.8246 26.1037C57.6078 26.4119 58.444 26.5634 59.2857 26.5496C59.824 26.5558 60.361 26.4962 60.8848 26.3722C61.3371 26.2652 61.7748 26.1042 62.1885 25.8927C62.5442 25.7072 62.875 25.4777 63.173 25.2094C63.4426 24.9768 63.6843 24.7137 63.8933 24.4255L62.3446 22.6921C62.0165 23.1245 61.5847 23.4675 61.0889 23.6894C60.5857 23.9063 60.0426 24.0157 59.4946 24.0107C59.1191 24.0159 58.7458 23.9533 58.3925 23.8261C58.0759 23.7094 57.7849 23.5327 57.5353 23.3059C57.2859 23.0796 57.0822 22.8078 56.9351 22.5051C56.7719 22.1771 56.6664 21.8235 56.6229 21.4598H64.1454V20.1172C64.1554 19.313 64.0428 18.5119 63.8116 17.7414C63.6116 17.0725 63.2738 16.4527 62.82 15.9217C62.3711 15.4121 61.8131 15.0098 61.1873 14.7446C59.7264 14.1737 58.1016 14.1857 56.6494 14.7781C55.9867 15.068 55.3945 15.4973 54.9134 16.0368C54.4231 16.5974 54.0485 17.2492 53.8113 17.9548C53.5443 18.7462 53.4128 19.577 53.4224 20.4121V20.8389C53.4172 21.5996 53.5531 22.3548 53.8233 23.0661C54.0783 23.7456 54.4725 24.3646 54.9806 24.8834C55.5047 25.4124 56.1325 25.8278 56.8246 26.1037ZM58.023 17.0487C58.3064 16.9239 58.6138 16.8625 58.9234 16.8689C59.2472 16.8644 59.5687 16.9239 59.8694 17.0439C60.1211 17.1426 60.3458 17.2995 60.5249 17.5018C60.704 17.7045 60.8374 17.9432 60.9163 18.2018C61.0025 18.4841 61.0486 18.7771 61.0532 19.0721V19.3119H56.6641C56.7054 18.9729 56.786 18.6398 56.9042 18.3193C57.0116 18.0394 57.1649 17.7793 57.358 17.5497C57.5416 17.3375 57.7683 17.1667 58.023 17.0487Z" fill="#0F2035"></path><path fill-rule="evenodd" clip-rule="evenodd" d="M76.3104 22.9746C76.5059 22.1792 76.6011 21.3625 76.5938 20.5435L76.5769 20.2918C76.5824 19.484 76.4873 18.6787 76.2936 17.8944C76.1283 17.2133 75.835 16.5698 75.4292 15.998C75.0546 15.4757 74.5607 15.05 73.9886 14.7561C73.3593 14.4454 72.664 14.2916 71.9622 14.3078C71.3966 14.2947 70.8354 14.4085 70.3198 14.641C69.8473 14.8637 69.4281 15.185 69.0905 15.5832V9.5896H65.9355V26.3334H68.7808L68.9224 25.0795C69.2707 25.5295 69.7121 25.8992 70.2166 26.1632C70.7681 26.4331 71.377 26.5655 71.991 26.5492C72.6905 26.5656 73.3837 26.4143 74.0126 26.108C74.5853 25.8171 75.0795 25.3928 75.4533 24.8709C75.8547 24.2976 76.1454 23.6544 76.3104 22.9746ZM73.3388 18.9805C73.4056 19.4185 73.4385 19.8609 73.4372 20.3039L73.43 20.5436C73.4323 21.0082 73.3994 21.4722 73.3316 21.9318C73.2785 22.3158 73.1582 22.6874 72.9762 23.0298C72.8139 23.3259 72.5762 23.574 72.2871 23.749C71.9526 23.9357 71.5728 24.0261 71.1899 24.0104C70.7274 24.0311 70.2688 23.9178 69.8693 23.6843C69.5303 23.4603 69.2615 23.1454 69.0938 22.7757V18.1126C69.2584 17.7403 69.5278 17.4238 69.8693 17.2016C70.2586 16.9736 70.7053 16.8621 71.1562 16.8803C71.546 16.8645 71.9323 16.9593 72.2703 17.1537C72.5689 17.3297 72.8151 17.5821 72.9834 17.8849C73.1637 18.2271 73.2839 18.5977 73.3388 18.9805Z" fill="#0F2035"></path><path fill-rule="evenodd" clip-rule="evenodd" d="M85.0564 25.2741C85.1053 25.6416 85.2114 25.9991 85.371 26.3338L88.5668 26.3194V26.1324C88.4856 25.9781 88.4166 25.8178 88.3603 25.6529C88.2954 25.4677 88.2448 25.2777 88.209 25.0847C88.183 24.9286 88.1644 24.7613 88.1444 24.5799C88.1367 24.5105 88.1288 24.4391 88.1202 24.3655C88.089 24.0994 88.089 23.7997 88.089 23.4664V18.4726C88.1032 17.8491 87.982 17.2299 87.7336 16.6577C87.5092 16.1545 87.1715 15.7098 86.7468 15.3583C86.3007 15.0016 85.7882 14.7367 85.2389 14.5791C84.6209 14.4124 83.9821 14.3357 83.3421 14.3513C82.6392 14.3423 81.9392 14.4435 81.2676 14.651C80.6956 14.8267 80.1591 15.1018 79.6829 15.4638C79.2632 15.7851 78.919 16.1943 78.6745 16.6625C78.442 17.1065 78.3201 17.5999 78.3191 18.101H81.4741C81.4551 17.7012 81.6227 17.3151 81.9279 17.0557C82.2842 16.7817 82.7276 16.6455 83.1764 16.6721C83.7839 16.6721 84.2233 16.8255 84.5042 17.1516C84.7998 17.5219 84.9493 17.9876 84.9244 18.4606V19.1247H83.515C82.7156 19.1126 81.9179 19.2004 81.1403 19.386C80.5283 19.5305 79.9491 19.7892 79.4332 20.1484C78.9917 20.4619 78.6366 20.8817 78.4008 21.3687C78.1633 21.8848 78.0459 22.4479 78.0574 23.0157C78.052 23.511 78.1587 24.0011 78.3696 24.4494C78.5696 24.8776 78.8575 25.2591 79.2147 25.569C79.592 25.8872 80.0263 26.1313 80.4945 26.2882C81.0045 26.4661 81.5414 26.5545 82.0816 26.5496C82.694 26.5687 83.3022 26.4422 83.8559 26.1804C84.3085 25.9546 84.7155 25.6474 85.0564 25.2741ZM83.511 24.0441C83.2677 24.1104 83.0164 24.1426 82.7643 24.14C82.3475 24.1566 81.9404 24.0114 81.6286 23.7348C81.357 23.4907 81.2053 23.1406 81.2132 22.7758C81.2119 22.5291 81.2601 22.2845 81.3548 22.0566C81.454 21.8337 81.6055 21.6379 81.7966 21.486C82.0195 21.3092 82.276 21.1795 82.5506 21.1048C82.9022 21.0075 83.2662 20.9615 83.631 20.9682H84.93V22.9964C84.843 23.1521 84.7347 23.2949 84.6082 23.4207C84.4662 23.5649 84.3045 23.6884 84.128 23.7876C83.9335 23.8976 83.7263 23.9838 83.511 24.0441Z" fill="#0F2035"></path><path fill-rule="evenodd" clip-rule="evenodd" d="M90.9202 10.3163C90.6019 10.6201 90.4274 11.0444 90.44 11.4839C90.4409 11.7106 90.4874 11.9348 90.5768 12.1432C90.658 12.3386 90.779 12.5149 90.9322 12.661C91.0918 12.8119 91.2816 12.9271 91.4892 12.9991C91.9635 13.1589 92.4772 13.1589 92.9515 12.9991C93.1588 12.9265 93.3485 12.8114 93.5085 12.661C93.6617 12.5149 93.7827 12.3386 93.8639 12.1432C93.948 11.9336 93.9904 11.7097 93.9887 11.4839C94.001 11.0444 93.8266 10.6203 93.5085 10.3163C92.7541 9.70575 91.6746 9.70575 90.9202 10.3163ZM93.8552 26.9857V14.5357H90.6883V26.9857C90.6883 27.5179 90.5586 27.9087 90.3185 28.1484C90.0292 28.4075 89.6474 28.5389 89.2597 28.5128C89.0928 28.5125 88.9262 28.5037 88.7602 28.4865C88.597 28.4673 88.4313 28.4433 88.2656 28.4145V30.9103C88.5223 30.9754 88.783 31.0234 89.046 31.0541C89.3051 31.083 89.5656 31.0974 89.8263 31.0973C90.4074 31.1073 90.9859 31.0164 91.5358 30.8288C92.0106 30.665 92.4417 30.3952 92.7964 30.04C93.15 29.6721 93.418 29.2309 93.5815 28.7478C93.7727 28.1803 93.8653 27.5843 93.8552 26.9857Z" fill="#0F2035"></path><path fill-rule="evenodd" clip-rule="evenodd" d="M102.853 25.2739C102.902 25.6417 103.009 25.9994 103.17 26.3335L106.359 26.3287V26.1417C106.278 25.9871 106.208 25.8268 106.15 25.6623C106.089 25.4733 106.041 25.2802 106.008 25.0845C105.972 24.8687 105.943 24.6313 105.922 24.3652C105.9 24.0991 105.888 23.7994 105.888 23.4662V18.4723C105.901 17.8512 105.78 17.2346 105.533 16.6646C105.31 16.1605 104.972 15.7154 104.546 15.3652C104.1 15.0081 103.588 14.7432 103.038 14.586C102.421 14.4076 101.781 14.3196 101.139 14.3247C100.436 14.3162 99.736 14.4173 99.0643 14.6244C98.4912 14.8081 97.9554 15.0923 97.4821 15.4635C97.0624 15.7855 96.7175 16.1944 96.4712 16.6622C96.2387 17.1062 96.1168 17.5997 96.1159 18.1007H99.2852C99.2653 17.7012 99.432 17.3151 99.7366 17.0554C100.094 16.7815 100.538 16.6453 100.988 16.6718C101.593 16.6718 102.034 16.8253 102.313 17.1513C102.609 17.5215 102.76 17.9871 102.736 18.4603V19.1268H101.326C100.523 19.1128 99.721 19.1998 98.9395 19.3857C98.3265 19.5298 97.7464 19.7885 97.2299 20.1481C96.7891 20.4624 96.4341 20.8819 96.1975 21.3684C95.9611 21.8849 95.8438 22.4477 95.8542 23.0155C95.8488 23.5107 95.9555 24.0008 96.1663 24.4491C96.3654 24.8779 96.6535 25.2595 97.0115 25.5688C97.3879 25.887 97.8213 26.131 98.2888 26.288C98.7996 26.4659 99.3373 26.5543 99.8783 26.5493C100.491 26.5682 101.099 26.4417 101.653 26.1801C102.105 25.9546 102.512 25.6473 102.853 25.2739ZM101.308 24.044C101.064 24.1101 100.812 24.1424 100.559 24.1399C100.146 24.1534 99.744 24.0084 99.4351 23.7348C99.1643 23.4901 99.0128 23.1404 99.0198 22.7758C99.0181 22.5287 99.0671 22.284 99.1638 22.0565C99.2581 21.836 99.4028 21.6406 99.5864 21.4859C99.8095 21.3097 100.066 21.18 100.34 21.1048C100.692 21.0078 101.056 20.9618 101.421 20.9681H102.729V22.9963C102.641 23.1516 102.532 23.2944 102.405 23.4207C102.263 23.5644 102.101 23.6879 101.925 23.7875C101.73 23.8972 101.523 23.9833 101.308 24.044Z" fill="#0F2035"></path><path d="M111.368 11.6804V14.5358H113.569V16.0941H111.363V23.4111C111.354 23.6612 111.391 23.9107 111.473 24.1472C111.532 24.3121 111.631 24.4597 111.761 24.5763C111.88 24.6784 112.023 24.7479 112.177 24.7777C112.335 24.8113 112.496 24.8282 112.657 24.828C112.835 24.827 113.013 24.8102 113.188 24.7777C113.372 24.7465 113.516 24.7201 113.62 24.6962V26.3336C113.459 26.3768 113.25 26.4223 112.995 26.4751C112.69 26.5293 112.379 26.5542 112.069 26.5494C111.711 26.5516 111.356 26.4982 111.015 26.3912C110.686 26.2882 110.388 26.1072 110.145 25.8637C109.879 25.5861 109.678 25.2528 109.557 24.888C109.399 24.4079 109.325 23.9043 109.339 23.3991V16.0941H107.178V14.5358H109.339V11.6804H111.368Z" fill="#0F2035"></path><path d="M123.228 25.1731C122.845 25.6185 122.362 25.9676 121.819 26.192C121.166 26.4517 120.468 26.5757 119.766 26.5565C119.229 26.5649 118.694 26.4839 118.183 26.3167C117.72 26.1596 117.301 25.8941 116.961 25.5423C116.597 25.1546 116.326 24.6888 116.169 24.1806C115.969 23.5293 115.875 22.8502 115.89 22.1691V14.5356H117.91V22.1787C117.897 22.6239 117.96 23.068 118.095 23.4925C118.195 23.7983 118.364 24.0776 118.587 24.31C118.782 24.504 119.022 24.6465 119.285 24.7248C119.548 24.8017 119.821 24.8405 120.095 24.8399C120.787 24.8685 121.473 24.7024 122.075 24.3604C122.56 24.0667 122.944 23.6327 123.175 23.1161V14.5356H125.194V26.3335H123.274L123.228 25.1731Z" fill="#0F2035"></path><path d="M135.138 23.2026C135.141 22.9931 135.107 22.7848 135.04 22.5864C134.961 22.3744 134.828 22.1868 134.653 22.0422C134.407 21.8391 134.129 21.6772 133.83 21.5627C133.372 21.3899 132.901 21.2552 132.421 21.1599C131.82 21.0407 131.229 20.8805 130.651 20.6804C130.175 20.5177 129.725 20.2885 129.314 19.9996C128.964 19.7532 128.675 19.4311 128.468 19.0574C128.264 18.6638 128.163 18.2251 128.173 17.7819C128.172 17.322 128.278 16.868 128.483 16.4561C128.695 16.0285 128.995 15.6496 129.362 15.3437C129.77 15.0108 130.236 14.7556 130.737 14.5909C131.318 14.4012 131.927 14.3089 132.538 14.3176C133.181 14.3074 133.822 14.4055 134.433 14.6077C134.951 14.7787 135.433 15.0464 135.852 15.3965C136.622 16.0421 137.063 16.9982 137.052 18.0025H135.021C135.017 17.754 134.962 17.509 134.858 17.2833C134.745 17.0342 134.581 16.8114 134.377 16.6288C134.15 16.4229 133.888 16.2604 133.602 16.1493C133.263 16.0236 132.904 15.9626 132.543 15.9695C132.179 15.9615 131.816 16.0117 131.467 16.1181C131.204 16.2007 130.96 16.3334 130.747 16.5089C130.569 16.6606 130.428 16.8508 130.334 17.0651C130.247 17.2665 130.202 17.4835 130.202 17.7028C130.198 17.9048 130.236 18.1055 130.312 18.2926C130.401 18.4888 130.544 18.6553 130.725 18.7721C130.985 18.9395 131.266 19.071 131.561 19.1629C132.011 19.3088 132.469 19.4313 132.932 19.5297C133.571 19.6719 134.198 19.861 134.81 20.0955C135.284 20.2739 135.729 20.522 136.13 20.8315C136.461 21.0872 136.729 21.4153 136.913 21.7905C137.09 22.1877 137.177 22.6192 137.167 23.0539C137.174 23.545 137.064 24.0306 136.846 24.4708C136.628 24.9046 136.312 25.2821 135.924 25.5736C135.49 25.8972 135.002 26.1407 134.483 26.2929C133.877 26.471 133.247 26.5575 132.615 26.5494C131.908 26.5625 131.204 26.4522 130.536 26.2233C129.981 26.0314 129.468 25.737 129.023 25.3555C128.629 25.0158 128.313 24.5956 128.096 24.1232C127.888 23.6779 127.78 23.1928 127.779 22.7015H129.799C129.805 23.0652 129.905 23.4211 130.089 23.7348C130.26 24.0091 130.49 24.2424 130.761 24.4181C131.032 24.592 131.331 24.717 131.645 24.7873C131.96 24.8606 132.282 24.8976 132.605 24.8976C132.974 24.9039 133.341 24.8595 133.698 24.7657C133.981 24.6927 134.249 24.571 134.49 24.4061C134.69 24.2661 134.855 24.0814 134.97 23.8667C135.079 23.662 135.137 23.4342 135.138 23.2026Z" fill="#0F2035"></path><path d="M144.388 24.0104C144.659 24.0133 144.928 23.9704 145.185 23.8834C145.413 23.8082 145.625 23.6884 145.807 23.531C145.981 23.3783 146.121 23.1903 146.217 22.9795C146.317 22.7528 146.37 22.5081 146.373 22.2603H149.346C149.344 22.8577 149.21 23.4474 148.952 23.9865C148.703 24.507 148.35 24.9713 147.915 25.3506C147.461 25.7421 146.937 26.0439 146.371 26.2401C145.753 26.4534 145.104 26.5597 144.45 26.5541C143.626 26.5725 142.807 26.4148 142.049 26.0914C141.394 25.8032 140.812 25.3713 140.347 24.828C139.884 24.2737 139.539 23.632 139.331 22.9412C139.1 22.1836 138.986 21.3955 138.992 20.6037V20.292C138.987 19.4979 139.101 18.7074 139.331 17.9473C139.538 17.2588 139.88 16.6183 140.337 16.0629C140.799 15.5167 141.38 15.0822 142.035 14.7923C142.787 14.4691 143.6 14.3113 144.419 14.3296C145.097 14.3218 145.772 14.4304 146.414 14.6508C146.987 14.8497 147.512 15.1639 147.958 15.5738C148.392 15.9792 148.735 16.473 148.962 17.0219C149.214 17.63 149.344 18.2816 149.346 18.9398H146.373C146.368 18.666 146.319 18.3948 146.227 18.1367C146.141 17.8966 146.01 17.6753 145.84 17.4846C145.667 17.2938 145.454 17.1432 145.216 17.0435C144.947 16.929 144.658 16.8726 144.366 16.878C143.971 16.8618 143.579 16.9609 143.24 17.1633C142.95 17.3506 142.715 17.6111 142.558 17.9185C142.386 18.2635 142.274 18.6346 142.224 19.0166C142.166 19.4424 142.137 19.8718 142.138 20.3016V20.6085C142.137 21.0423 142.166 21.4756 142.224 21.9055C142.273 22.2845 142.386 22.6525 142.558 22.9939C142.716 23.2967 142.951 23.5523 143.24 23.7347C143.589 23.9333 143.987 24.0289 144.388 24.0104Z" fill="#0F2035"></path><path d="M158.211 25.1324C157.844 25.5789 157.381 25.9371 156.857 26.1801C156.265 26.4388 155.624 26.5649 154.979 26.5493C154.438 26.5573 153.899 26.4763 153.385 26.3095C152.916 26.1529 152.492 25.8875 152.146 25.5351C151.778 25.148 151.504 24.6823 151.344 24.1734C151.14 23.5261 151.044 22.8499 151.058 22.1715V14.5356H154.215V22.1883C154.208 22.4739 154.251 22.7585 154.34 23.0298C154.411 23.2412 154.53 23.4333 154.688 23.5908C154.84 23.7327 155.021 23.8384 155.219 23.9001C155.438 23.9685 155.667 24.0017 155.896 23.9984C156.375 24.0175 156.851 23.9169 157.282 23.7059C157.63 23.5194 157.915 23.2341 158.1 22.886V14.5356H161.267V26.3335H158.297L158.211 25.1324Z" fill="#0F2035"></path><path fill-rule="evenodd" clip-rule="evenodd" d="M166.633 26.1037C167.413 26.4107 168.246 26.5622 169.085 26.5496C169.624 26.5552 170.162 26.4948 170.686 26.3698C171.138 26.2628 171.576 26.1018 171.99 25.8903C172.353 25.7066 172.691 25.4778 172.996 25.2094C173.261 24.9761 173.499 24.713 173.704 24.4255L172.156 22.6921C171.824 23.1261 171.388 23.4692 170.888 23.6894C170.385 23.9061 169.842 24.0155 169.294 24.0107C168.917 24.0157 168.543 23.9532 168.189 23.8261C167.874 23.7087 167.583 23.5321 167.334 23.3059C167.085 23.0789 166.881 22.8073 166.732 22.5051C166.57 22.1765 166.466 21.8231 166.422 21.4598H173.944V20.1172C173.954 19.313 173.842 18.5119 173.611 17.7414C173.413 17.0733 173.079 16.4536 172.629 15.9217C172.179 15.4128 171.621 15.0106 170.996 14.7446C169.535 14.1737 167.91 14.1857 166.458 14.7781C165.795 15.068 165.203 15.4973 164.722 16.0368C164.232 16.5974 163.857 17.2492 163.62 17.9548C163.353 18.7462 163.221 19.577 163.231 20.4121V20.8389C163.226 21.5994 163.361 22.3543 163.63 23.0661C163.886 23.7447 164.28 24.3633 164.787 24.8834C165.312 25.412 165.941 25.8273 166.633 26.1037ZM167.824 17.0487C168.107 16.9239 168.415 16.8625 168.724 16.8689C169.048 16.8644 169.37 16.9239 169.67 17.0439C169.922 17.1432 170.146 17.3001 170.326 17.5018C170.506 17.7043 170.64 17.943 170.719 18.2018C170.805 18.4842 170.85 18.7772 170.854 19.0721V19.3119H166.465C166.506 18.9729 166.587 18.6398 166.705 18.3193C166.812 18.0394 166.966 17.7793 167.159 17.5497C167.342 17.337 167.569 17.1661 167.824 17.0487Z" fill="#0F2035"></path><path d="M178.638 14.5357L178.738 15.8998C179.131 15.4002 179.635 14.9988 180.21 14.7275C180.812 14.4489 181.468 14.3088 182.131 14.3175C182.65 14.3131 183.166 14.3941 183.658 14.5573C184.111 14.7094 184.518 14.9743 184.839 15.3269C185.193 15.7287 185.453 16.2035 185.601 16.7174C185.794 17.4052 185.883 18.1178 185.867 18.8319V26.3335H182.719V18.8103C182.728 18.4931 182.685 18.1765 182.592 17.8729C182.46 17.4205 182.092 17.0754 181.632 16.9715C181.367 16.9075 181.095 16.8769 180.823 16.8804C180.402 16.8669 179.985 16.9725 179.622 17.1849C179.289 17.39 179.014 17.6752 178.82 18.0144V26.3335H175.67V14.5357H178.638Z" fill="#0F2035"></path><path d="M192.037 11.6375V14.536H194.059V16.8471H192.037V22.7352C192.032 22.9417 192.058 23.1478 192.114 23.3466C192.192 23.6332 192.427 23.8507 192.719 23.9076C192.894 23.9414 193.072 23.9575 193.25 23.9555C193.439 23.9555 193.611 23.9483 193.768 23.934C193.924 23.9196 194.061 23.9004 194.179 23.8788V26.2763C193.897 26.3607 193.611 26.4279 193.322 26.4777C192.973 26.5355 192.621 26.5628 192.268 26.5592C191.795 26.5656 191.324 26.5018 190.87 26.3698C190.472 26.2531 190.107 26.0454 189.804 25.7632C189.494 25.463 189.26 25.0931 189.122 24.6844C188.951 24.1681 188.87 23.6265 188.882 23.0829V16.8495H187.158V14.536H188.882V11.6375H192.037Z" fill="#0F2035"></path><path fill-rule="evenodd" clip-rule="evenodd" d="M202.343 25.2741C202.392 25.6419 202.499 25.9997 202.66 26.3338L205.861 26.329V26.142C205.78 25.9873 205.71 25.8271 205.652 25.6625C205.591 25.4735 205.544 25.2804 205.51 25.0847C205.488 24.9531 205.474 24.8135 205.458 24.6642C205.448 24.5687 205.437 24.4693 205.424 24.3655C205.39 24.0994 205.39 23.7997 205.39 23.4664V18.4797C205.405 17.8563 205.283 17.2371 205.035 16.6649C204.812 16.1607 204.474 15.7157 204.048 15.3655C203.602 15.0083 203.09 14.7434 202.54 14.5863C201.923 14.4079 201.284 14.3199 200.641 14.325C199.938 14.3164 199.238 14.4175 198.567 14.6246C197.99 14.8076 197.45 15.0917 196.972 15.4638C196.553 15.7857 196.208 16.1947 195.962 16.6625C195.73 17.1068 195.608 17.6 195.606 18.1009H198.761C198.741 17.7015 198.908 17.3154 199.213 17.0557C199.57 16.7818 200.014 16.6456 200.463 16.6721C201.069 16.6721 201.51 16.8255 201.789 17.1516C202.085 17.5217 202.235 17.9873 202.211 18.4606V19.1271H200.802C200.003 19.1148 199.205 19.2026 198.427 19.3884C197.814 19.5324 197.234 19.7911 196.718 20.1508C196.277 20.465 195.922 20.8846 195.685 21.3711C195.45 21.887 195.334 22.449 195.344 23.0157C195.339 23.511 195.446 24.0011 195.657 24.4494C195.856 24.8781 196.144 25.2598 196.502 25.569C196.878 25.8872 197.312 26.1313 197.779 26.2882C198.29 26.4661 198.828 26.5545 199.369 26.5496C199.981 26.5684 200.589 26.4419 201.143 26.1803C201.596 25.9548 202.003 25.6475 202.343 25.2741ZM200.8 24.0443C200.556 24.1104 200.304 24.1426 200.051 24.1402C199.635 24.1568 199.227 24.0116 198.916 23.735C198.645 23.4903 198.493 23.1406 198.5 22.776C198.499 22.529 198.548 22.2842 198.644 22.0568C198.744 21.8342 198.896 21.6386 199.086 21.4862C199.309 21.3099 199.566 21.1803 199.84 21.105C200.192 21.0081 200.556 20.962 200.92 20.9683H202.222V22.9966C202.133 23.1519 202.024 23.2946 201.898 23.4209C201.755 23.5647 201.594 23.6881 201.417 23.7877C201.223 23.8974 201.016 23.9835 200.8 24.0443Z" fill="#0F2035"></path><path d="M214.204 23.0732C214.206 22.9152 214.172 22.7587 214.105 22.6153C214.019 22.4541 213.891 22.3197 213.733 22.2269C213.5 22.0841 213.251 21.969 212.991 21.8841C212.592 21.7569 212.186 21.6545 211.774 21.5772C211.203 21.4596 210.641 21.2993 210.093 21.0977C209.616 20.9244 209.167 20.682 208.761 20.3785C208.4 20.105 208.101 19.7596 207.882 19.3644C207.664 18.9518 207.555 18.4905 207.565 18.0242C207.563 17.5365 207.674 17.055 207.889 16.6169C208.11 16.1643 208.426 15.7645 208.816 15.4445C209.257 15.0791 209.764 14.8009 210.309 14.6246C210.95 14.4198 211.62 14.3202 212.293 14.3297C212.99 14.3212 213.685 14.4165 214.355 14.6126C214.919 14.777 215.446 15.0454 215.911 15.4038C216.324 15.7251 216.661 16.1347 216.895 16.6025C217.126 17.0775 217.244 17.5994 217.239 18.1273H214.084C214.097 17.711 213.939 17.3074 213.647 17.0101C213.357 16.716 212.902 16.5689 212.281 16.5689C211.84 16.5411 211.405 16.6683 211.049 16.9286C210.766 17.1476 210.604 17.4873 210.612 17.8444C210.608 18.0059 210.647 18.1655 210.725 18.3071C210.818 18.4582 210.946 18.5854 211.097 18.6787C211.309 18.8103 211.536 18.915 211.774 18.9904C212.112 19.0983 212.457 19.1856 212.806 19.2517C213.409 19.3647 214.003 19.5177 214.586 19.7096C215.09 19.8699 215.567 20.1068 216 20.4121C216.385 20.6867 216.704 21.0439 216.934 21.4573C217.393 22.3817 217.393 23.4675 216.934 24.3918C216.691 24.8419 216.35 25.2312 215.935 25.5306C215.46 25.87 214.929 26.1247 214.367 26.2834C213.7 26.4725 213.01 26.5637 212.317 26.5543C211.57 26.5683 210.826 26.4507 210.12 26.2067C209.535 26.0016 208.993 25.6912 208.521 25.2909C208.108 24.9393 207.775 24.5047 207.543 24.0154C207.33 23.5658 207.218 23.0746 207.217 22.577H210.208C210.215 22.8525 210.284 23.1229 210.41 23.3681C210.526 23.5828 210.69 23.7675 210.89 23.9075C211.097 24.0507 211.328 24.154 211.572 24.212C211.838 24.2791 212.112 24.3122 212.386 24.3103C212.867 24.343 213.346 24.223 213.755 23.9675C214.043 23.7617 214.211 23.427 214.204 23.0732Z" fill="#0F2035"></path><path d="M218.298 25.8924C218.293 25.7441 218.344 25.5994 218.442 25.4873C218.556 25.3724 218.715 25.3128 218.876 25.3242C219.04 25.3124 219.2 25.3719 219.316 25.4873C219.417 25.5974 219.472 25.7428 219.467 25.8924C219.471 26.0377 219.417 26.1785 219.316 26.2832C219.199 26.3961 219.039 26.4536 218.876 26.4414C218.724 26.4579 218.571 26.4064 218.46 26.3007C218.348 26.195 218.289 26.0457 218.298 25.8924Z" fill="#0F2035"></path><path d="M223.223 25.7126C223.387 25.7137 223.549 25.6861 223.703 25.6311C223.85 25.5815 223.987 25.506 224.107 25.4081C224.223 25.3151 224.32 25.2003 224.392 25.0701C224.464 24.94 224.509 24.7963 224.522 24.6481H225.41C225.396 24.8929 225.328 25.1313 225.209 25.3458C225.086 25.5681 224.923 25.7656 224.728 25.9284C224.307 26.2841 223.773 26.4795 223.221 26.4798C222.848 26.4879 222.479 26.4126 222.14 26.2592C221.843 26.1168 221.582 25.9095 221.377 25.6527C221.169 25.3945 221.014 25.098 220.92 24.78C220.819 24.4393 220.769 24.0854 220.772 23.7299V23.5166C220.769 23.1611 220.819 22.8072 220.92 22.4665C221.013 22.1483 221.168 21.8517 221.377 21.5938C221.582 21.3399 221.842 21.1358 222.138 20.9968C222.476 20.8432 222.844 20.7678 223.216 20.7763C223.515 20.7724 223.812 20.8236 224.092 20.9273C224.344 21.0235 224.575 21.1658 224.774 21.3469C224.965 21.5284 225.116 21.7471 225.218 21.9894C225.327 22.238 225.389 22.5046 225.401 22.7757H224.512C224.5 22.6103 224.459 22.4482 224.392 22.2963C224.328 22.1524 224.238 22.0216 224.126 21.9103C224.011 21.7987 223.876 21.71 223.727 21.6489C223.563 21.583 223.388 21.5504 223.211 21.553C222.96 21.5446 222.711 21.6042 222.491 21.7257C222.303 21.8377 222.145 21.9931 222.03 22.1788C221.913 22.3739 221.831 22.5882 221.79 22.8117C221.741 23.0484 221.717 23.2894 221.718 23.5309V23.7347C221.717 23.9763 221.741 24.2172 221.79 24.454C221.831 24.6777 221.912 24.8921 222.03 25.0869C222.145 25.2719 222.303 25.4265 222.491 25.5376C222.714 25.6611 222.968 25.7216 223.223 25.7126Z" fill="#0F2035"></path><path fill-rule="evenodd" clip-rule="evenodd" d="M226.392 22.4737C226.272 22.8306 226.213 23.205 226.217 23.5814L226.227 23.694C226.223 24.0704 226.282 24.4448 226.402 24.8017C226.508 25.1258 226.678 25.4256 226.901 25.6839C227.119 25.9332 227.387 26.1327 227.689 26.2689C228.355 26.5503 229.107 26.5503 229.773 26.2689C230.074 26.1327 230.343 25.9332 230.56 25.6839C230.783 25.4255 230.952 25.1256 231.057 24.8017C231.175 24.4444 231.234 24.0702 231.23 23.694V23.5814C231.234 23.2052 231.175 22.831 231.057 22.4737C230.951 22.1493 230.782 21.8487 230.56 21.5891C230.344 21.3371 230.074 21.1357 229.771 20.9993C229.44 20.8533 229.082 20.7805 228.721 20.7859C228.364 20.7807 228.01 20.8535 227.684 20.9993C227.382 21.1365 227.114 21.3378 226.899 21.5891C226.673 21.8479 226.501 22.1485 226.392 22.4737ZM227.256 24.4708C227.192 24.2169 227.159 23.956 227.16 23.6941L227.15 23.5814C227.15 23.3203 227.182 23.0601 227.246 22.807C227.305 22.5764 227.404 22.3581 227.539 22.1621C227.666 21.9827 227.83 21.8323 228.02 21.721C228.227 21.6091 228.461 21.5529 228.697 21.5579C228.935 21.5529 229.171 21.609 229.381 21.721C229.575 21.8302 229.743 21.9808 229.873 22.1621C230.008 22.3585 230.108 22.5766 230.168 22.807C230.235 23.0598 230.268 23.3201 230.267 23.5814V23.6941C230.268 23.9561 230.235 24.2173 230.168 24.4708C230.107 24.699 230.008 24.9154 229.876 25.1109C229.751 25.2919 229.587 25.4419 229.395 25.5497C228.966 25.7671 228.459 25.7671 228.029 25.5497C227.838 25.4411 227.674 25.2912 227.549 25.1109C227.414 24.9164 227.315 24.6997 227.256 24.4708Z" fill="#0F2035"></path><path d="M233.287 20.8866L233.311 21.4956C233.5 21.2733 233.735 21.0949 234 20.973C234.297 20.8425 234.619 20.7787 234.944 20.786C235.27 20.7788 235.593 20.8513 235.885 20.9969C236.165 21.1433 236.386 21.3799 236.514 21.6682C236.7 21.4017 236.947 21.1831 237.234 21.0305C237.554 20.8626 237.912 20.78 238.274 20.7908C238.539 20.7864 238.804 20.8252 239.057 20.9058C239.275 20.9755 239.473 21.0982 239.633 21.263C239.798 21.4391 239.921 21.6507 239.991 21.8816C240.075 22.1719 240.114 22.4736 240.106 22.7758V26.372H239.165V22.7758C239.17 22.5816 239.143 22.3878 239.083 22.2028C239.033 22.064 238.951 21.9391 238.843 21.8384C238.738 21.7449 238.61 21.679 238.473 21.6466C238.316 21.6112 238.155 21.5935 237.993 21.5939C237.817 21.591 237.643 21.6219 237.479 21.685C237.338 21.7408 237.207 21.822 237.095 21.9247C236.987 22.0315 236.901 22.1575 236.841 22.2963C236.777 22.4394 236.737 22.5915 236.72 22.7471V26.372H235.784V22.7758C235.788 22.5901 235.76 22.4052 235.7 22.2292C235.604 21.9504 235.379 21.7356 235.095 21.6538C234.939 21.6072 234.777 21.5846 234.615 21.5867C234.067 21.5459 233.555 21.8639 233.349 22.3731V26.372H232.408V20.8866H233.287Z" fill="#0F2035"></path><path fill-rule="evenodd" clip-rule="evenodd" d="M0.00120575 6.36762V21.3493C-0.076401 28.308 3.59713 34.7716 9.62001 38.2735C15.6429 41.7755 23.0859 41.7755 29.1087 38.2735C35.1316 34.7716 38.8051 28.308 38.7275 21.3493C38.7275 11.3399 30.9026 2.88893 20.9094 2.07859L20.0715 2.00906L19.6897 0L11.4878 5.58845L21.4857 9.51547L21.1736 7.44648L22.7871 7.85644C29.8183 9.6366 34.3073 16.5033 33.1099 23.6468C31.9126 30.7903 25.4289 35.8232 18.2003 35.2203C10.9718 34.6174 5.41422 28.5802 5.42035 21.3373L5.43475 6.35803L0.00120575 6.36762ZM27.6118 20.9921H22.207V30.4668C24.8116 29.5491 26.8201 27.4438 27.6118 24.8017V20.9921ZM11.1035 13.7733H16.5179V30.462C13.9131 29.5441 11.9022 27.4419 11.1035 24.8016V13.7733Z" fill="#3C9CD7"></path></svg>