<svg xmlns="http://www.w3.org/2000/svg" width="201" height="35" viewBox="0 0 201 35" fill="none"><path d="M44.0846 14.6271C43.9508 14.6072 43.7951 14.5912 43.6174 14.5753C43.4397 14.5593 43.28 14.5533 43.1402 14.5533C42.7092 14.5348 42.2803 14.6239 41.8924 14.8125C41.5814 14.9773 41.3336 15.2401 41.1876 15.5601V21.9793H38.5642V12.1611H41.0439L41.1158 13.3313C41.3389 12.932 41.6528 12.5906 42.0322 12.3345C42.4107 12.0908 42.8537 11.9659 43.304 11.9757C43.4517 11.9764 43.5992 11.9884 43.7452 12.0116C43.8721 12.0298 43.9975 12.0571 44.1205 12.0933L44.0846 14.6271Z" fill="black"></path><path fill-rule="evenodd" clip-rule="evenodd" d="M47.6498 21.7801C48.301 22.0365 48.9963 22.1624 49.6962 22.1509C50.1438 22.1561 50.5904 22.1065 51.0259 22.0034C51.402 21.9145 51.766 21.7806 52.11 21.6047C52.4057 21.4505 52.6808 21.2596 52.9286 21.0366C53.1528 20.8431 53.3538 20.6243 53.5275 20.3847L52.2398 18.9433C51.967 19.3029 51.6079 19.5881 51.1956 19.7726C50.7772 19.953 50.3256 20.0439 49.8699 20.0398C49.5577 20.0441 49.2472 19.9921 48.9535 19.8863C48.6903 19.7892 48.4482 19.6423 48.2408 19.4537C48.0334 19.2656 47.8639 19.0395 47.7416 18.7878C47.606 18.5151 47.5182 18.2211 47.4821 17.9187H53.7372V16.8023C53.7455 16.1335 53.6519 15.4674 53.4597 14.8267C53.2933 14.2705 53.0125 13.7551 52.6351 13.3136C52.2618 12.8898 51.7978 12.5553 51.2775 12.3348C50.0627 11.8601 48.7116 11.8701 47.504 12.3627C46.953 12.6037 46.4606 12.9607 46.0606 13.4093C45.6528 13.8754 45.3414 14.4174 45.1442 15.0041C44.9221 15.6622 44.8128 16.3531 44.8207 17.0475V17.4023C44.8164 18.0349 44.9294 18.6628 45.1541 19.2543C45.3662 19.8194 45.6939 20.334 46.1165 20.7654C46.5523 21.2053 47.0742 21.5508 47.6498 21.7801ZM48.647 14.2507C48.8826 14.1469 49.1382 14.0959 49.3957 14.1012C49.6649 14.0975 49.9322 14.1469 50.1823 14.2467C50.3916 14.3288 50.5784 14.4593 50.7273 14.6275C50.8762 14.796 50.9872 14.9945 51.0528 15.2096C51.1245 15.4443 51.1628 15.6879 51.1666 15.9332V16.1326H47.5169C47.5513 15.8507 47.6183 15.5737 47.7166 15.3072C47.8059 15.0745 47.9334 14.8582 48.0939 14.6673C48.2466 14.4909 48.4351 14.3488 48.647 14.2507Z" fill="black"></path><path fill-rule="evenodd" clip-rule="evenodd" d="M63.8523 19.1781C64.0149 18.5168 64.094 17.8377 64.0879 17.1567L64.0739 16.9474C64.0785 16.2757 63.9993 15.606 63.8383 14.9538C63.7009 14.3875 63.457 13.8524 63.1196 13.3769C62.808 12.9427 62.3974 12.5887 61.9217 12.3443C61.3984 12.086 60.8202 11.958 60.2366 11.9715C59.7664 11.9606 59.2997 12.0553 58.871 12.2486C58.478 12.4337 58.1295 12.7009 57.8488 13.0321V8.04822H55.2253V21.9711H57.5912L57.709 20.9285C57.9986 21.3027 58.3657 21.61 58.7851 21.8295C59.2438 22.054 59.75 22.1641 60.2606 22.1505C60.8422 22.1642 61.4187 22.0384 61.9416 21.7837C62.4178 21.5418 62.8287 21.189 63.1396 20.755C63.4734 20.2783 63.7151 19.7435 63.8523 19.1781ZM61.3821 15.8572C61.4376 16.2214 61.465 16.5893 61.4639 16.9576L61.4579 17.157C61.4598 17.5432 61.4324 17.9291 61.3761 18.3112C61.3319 18.6305 61.2319 18.9396 61.0806 19.2243C60.9456 19.4705 60.748 19.6768 60.5076 19.8223C60.2294 19.9775 59.9136 20.0527 59.5952 20.0396C59.2106 20.0569 58.8293 19.9627 58.4971 19.7685C58.2152 19.5822 57.9917 19.3204 57.8522 19.013V15.1355C57.9891 14.826 58.2132 14.5628 58.4971 14.378C58.8208 14.1884 59.1923 14.0957 59.5672 14.1109C59.8913 14.0977 60.2125 14.1765 60.4936 14.3381C60.7419 14.4845 60.9466 14.6944 61.0866 14.9461C61.2365 15.2307 61.3364 15.5389 61.3821 15.8572Z" fill="black"></path><path fill-rule="evenodd" clip-rule="evenodd" d="M71.124 21.0903C71.1646 21.3958 71.2528 21.6932 71.3855 21.9715L74.0429 21.9595V21.804C73.9754 21.6757 73.918 21.5424 73.8712 21.4053C73.8172 21.2512 73.7752 21.0933 73.7454 20.9328C73.7237 20.803 73.7083 20.6639 73.6917 20.513C73.6853 20.4553 73.6787 20.396 73.6715 20.3348C73.6456 20.1135 73.6456 19.8643 73.6456 19.5872V15.4346C73.6575 14.9162 73.5566 14.4013 73.3501 13.9255C73.1635 13.5071 72.8827 13.1374 72.5295 12.845C72.1586 12.5484 71.7324 12.3282 71.2757 12.1971C70.7618 12.0585 70.2306 11.9948 69.6985 12.0078C69.1139 12.0003 68.5319 12.0843 67.9735 12.2569C67.4978 12.403 67.0517 12.6318 66.6558 12.9328C66.3068 13.2 66.0206 13.5402 65.8172 13.9295C65.6239 14.2987 65.5225 14.709 65.5217 15.1256H68.1452C68.1293 14.7932 68.2687 14.4722 68.5225 14.2565C68.8188 14.0287 69.1874 13.9154 69.5607 13.9375C70.0658 13.9375 70.4312 14.0651 70.6648 14.3362C70.9106 14.6442 71.0349 15.0314 71.0142 15.4247V15.9769H69.8422C69.1775 15.9668 68.5142 16.0398 67.8676 16.1942C67.3587 16.3144 66.8771 16.5294 66.4481 16.8281C66.081 17.0889 65.7857 17.4379 65.5896 17.8428C65.3921 18.272 65.2945 18.7402 65.3041 19.2124C65.2996 19.6242 65.3884 20.0317 65.5637 20.4045C65.73 20.7606 65.9694 21.0778 66.2664 21.3355C66.5802 21.6001 66.9413 21.8031 67.3306 21.9336C67.7546 22.0814 68.2011 22.155 68.6503 22.1509C69.1595 22.1668 69.6652 22.0616 70.1257 21.8439C70.5021 21.6561 70.8405 21.4007 71.124 21.0903ZM69.8381 20.0677C69.6358 20.1228 69.4268 20.1496 69.2171 20.1474C68.8706 20.1612 68.5321 20.0405 68.2728 19.8105C68.0469 19.6075 67.9208 19.3164 67.9274 19.0131C67.9263 18.8079 67.9664 18.6045 68.0452 18.415C68.1276 18.2296 68.2536 18.0669 68.4125 17.9405C68.5978 17.7935 68.8111 17.6857 69.0395 17.6236C69.3319 17.5427 69.6345 17.5044 69.9379 17.5099H71.018V19.1965C70.9457 19.3259 70.8556 19.4447 70.7505 19.5493C70.6323 19.6692 70.4979 19.7719 70.3512 19.8543C70.1894 19.9459 70.0171 20.0175 69.8381 20.0677Z" fill="black"></path><path fill-rule="evenodd" clip-rule="evenodd" d="M76.0003 8.65245C75.7356 8.90506 75.5905 9.25784 75.601 9.6233C75.6017 9.81181 75.6404 9.99825 75.7148 10.1715C75.7822 10.334 75.8829 10.4806 76.0103 10.6021C76.1429 10.7276 76.3008 10.8234 76.4735 10.8832C76.8678 11.0161 77.295 11.0161 77.6893 10.8832C77.8617 10.8229 78.0195 10.7271 78.1525 10.6021C78.2799 10.4806 78.3806 10.334 78.448 10.1715C78.518 9.99726 78.5533 9.81104 78.5518 9.6233C78.5621 9.25789 78.417 8.90521 78.1525 8.65245C77.5252 8.14474 76.6276 8.14474 76.0003 8.65245ZM78.4411 22.5135V12.161H75.8077V22.5135C75.8077 22.956 75.6999 23.281 75.5002 23.4803C75.2597 23.6958 74.9422 23.8051 74.6198 23.7834C74.4811 23.7831 74.3425 23.7757 74.2045 23.7614C74.0687 23.7455 73.931 23.7255 73.7932 23.7016V25.7769C74.0066 25.831 74.2234 25.871 74.4421 25.8965C74.6575 25.9205 74.8742 25.9325 75.091 25.9324C75.5742 25.9407 76.0551 25.8651 76.5125 25.7091C76.9073 25.5729 77.2657 25.3486 77.5606 25.0532C77.8547 24.7473 78.0776 24.3804 78.2135 23.9787C78.3725 23.5068 78.4495 23.0113 78.4411 22.5135Z" fill="black"></path><path fill-rule="evenodd" clip-rule="evenodd" d="M85.9229 21.0903C85.9632 21.3962 86.0522 21.6936 86.1865 21.9715L88.8378 21.9675V21.812C88.7706 21.6833 88.7125 21.5501 88.6642 21.4133C88.6135 21.2561 88.5741 21.0956 88.5464 20.9328C88.5164 20.7534 88.4925 20.556 88.4745 20.3348C88.4565 20.1135 88.4465 19.8643 88.4465 19.5872V15.4346C88.4575 14.9182 88.3567 14.4055 88.151 13.9315C87.9658 13.5123 87.6848 13.1422 87.3305 12.851C86.9598 12.554 86.5335 12.3338 86.0767 12.2031C85.5635 12.0548 85.0316 11.9816 84.4974 11.9858C83.9129 11.9787 83.3309 12.0628 82.7724 12.235C82.2958 12.3878 81.8503 12.6241 81.4567 12.9328C81.1077 13.2005 80.821 13.5406 80.6162 13.9295C80.4228 14.2987 80.3215 14.709 80.3207 15.1256H82.9561C82.9395 14.7935 83.0781 14.4724 83.3314 14.2565C83.6285 14.0287 83.9978 13.9155 84.3716 13.9375C84.8748 13.9375 85.2421 14.0651 85.4737 14.3362C85.7201 14.644 85.8451 15.0312 85.8251 15.4247V15.9789H84.6531C83.9852 15.9672 83.3184 16.0396 82.6686 16.1942C82.1589 16.3139 81.6766 16.5291 81.2471 16.8281C80.8805 17.0894 80.5853 17.4383 80.3886 17.8428C80.192 18.2723 80.0944 18.7403 80.1031 19.2124C80.0986 19.6242 80.1873 20.0317 80.3626 20.4045C80.5282 20.7611 80.7678 21.0784 81.0654 21.3355C81.3784 21.6001 81.7388 21.803 82.1275 21.9336C82.5523 22.0815 82.9994 22.155 83.4492 22.1509C83.9584 22.1666 84.4641 22.0614 84.9247 21.8439C85.3011 21.6563 85.6396 21.4008 85.9229 21.0903ZM84.6387 20.0677C84.4357 20.1226 84.2261 20.1495 84.0158 20.1474C83.6727 20.1586 83.3383 20.038 83.0814 19.8105C82.8563 19.6071 82.7303 19.3163 82.736 19.0131C82.7347 18.8077 82.7754 18.6041 82.8558 18.415C82.9342 18.2316 83.0546 18.0691 83.2072 17.9406C83.3928 17.794 83.606 17.6862 83.8341 17.6236C84.1266 17.543 84.4292 17.5047 84.7326 17.51H85.8207V19.1965C85.7471 19.3256 85.6564 19.4443 85.5511 19.5493C85.4327 19.6689 85.2984 19.7715 85.1518 19.8544C84.9899 19.9455 84.8176 20.0172 84.6387 20.0677Z" fill="black"></path><path d="M93.0032 9.7868V12.1611H94.834V13.4569H92.9992V19.5412C92.9917 19.7491 93.0229 19.9566 93.0911 20.1532C93.1396 20.2904 93.222 20.4131 93.3306 20.51C93.4292 20.595 93.5483 20.6527 93.676 20.6775C93.8073 20.7054 93.9411 20.7195 94.0753 20.7194C94.2234 20.7185 94.371 20.7045 94.5166 20.6775C94.6703 20.6516 94.7901 20.6297 94.876 20.6097V21.9713C94.7422 22.0072 94.5685 22.0451 94.3569 22.0889C94.1025 22.134 93.8445 22.1547 93.5862 22.1507C93.289 22.1525 92.9933 22.1081 92.7097 22.0191C92.4368 21.9335 92.1888 21.783 91.987 21.5806C91.7656 21.3498 91.5985 21.0726 91.4978 20.7692C91.3665 20.37 91.305 19.9512 91.3162 19.5312V13.4569H89.5193V12.1611H91.3162V9.7868H93.0032Z" fill="black"></path><path d="M102.865 21.0065C102.547 21.3768 102.145 21.6671 101.694 21.8537C101.151 22.0696 100.57 22.1727 99.9865 22.1567C99.5399 22.1638 99.0952 22.0964 98.6708 21.9574C98.2855 21.8267 97.937 21.6059 97.6545 21.3135C97.3515 20.991 97.1261 20.6037 96.9957 20.1811C96.8292 19.6396 96.751 19.0749 96.7641 18.5086V12.1611H98.4432V18.5165C98.433 18.8867 98.485 19.256 98.5969 19.609C98.6808 19.8632 98.8207 20.0955 99.0062 20.2888C99.1682 20.4501 99.3679 20.5686 99.5872 20.6337C99.8057 20.6976 100.032 20.7299 100.26 20.7294C100.836 20.7532 101.406 20.615 101.907 20.3306C102.31 20.0864 102.629 19.7256 102.822 19.296V12.1611H104.501V21.9713H102.903L102.865 21.0065Z" fill="black"></path><path d="M112.769 19.3677C112.771 19.1935 112.744 19.0203 112.688 18.8553C112.622 18.679 112.511 18.523 112.366 18.4028C112.161 18.2339 111.93 18.0993 111.681 18.0041C111.301 17.8604 110.909 17.7484 110.509 17.6692C110.01 17.57 109.519 17.4368 109.038 17.2705C108.642 17.1351 108.268 16.9445 107.926 16.7043C107.635 16.4994 107.395 16.2316 107.223 15.9208C107.053 15.5935 106.969 15.2288 106.978 14.8603C106.976 14.4778 107.065 14.1003 107.235 13.7578C107.412 13.4022 107.661 13.0872 107.966 12.8328C108.306 12.556 108.693 12.3438 109.11 12.2069C109.593 12.0491 110.099 11.9723 110.607 11.9796C111.142 11.9711 111.675 12.0527 112.183 12.2208C112.614 12.363 113.014 12.5856 113.362 12.8767C114.003 13.4135 114.369 14.2086 114.361 15.0437H112.672C112.669 14.837 112.622 14.6333 112.536 14.4456C112.442 14.2385 112.306 14.0532 112.137 13.9014C111.948 13.7302 111.729 13.5951 111.492 13.5027C111.21 13.3982 110.912 13.3474 110.611 13.3532C110.308 13.3465 110.006 13.3883 109.717 13.4768C109.498 13.5455 109.295 13.6558 109.118 13.8017C108.97 13.9278 108.852 14.086 108.774 14.2642C108.702 14.4317 108.665 14.6121 108.665 14.7945C108.662 14.9625 108.693 15.1293 108.756 15.2849C108.83 15.448 108.949 15.5865 109.1 15.6836C109.316 15.8228 109.549 15.9321 109.795 16.0085C110.169 16.1299 110.55 16.2317 110.935 16.3136C111.466 16.4318 111.988 16.589 112.496 16.784C112.89 16.9324 113.261 17.1387 113.594 17.396C113.869 17.6087 114.092 17.8815 114.245 18.1935C114.392 18.5237 114.465 18.8825 114.457 19.2441C114.462 19.6524 114.37 20.0562 114.189 20.4222C114.008 20.7829 113.745 21.0968 113.422 21.3393C113.062 21.6083 112.656 21.8108 112.224 21.9373C111.72 22.0854 111.197 22.1573 110.671 22.1506C110.083 22.1615 109.498 22.0698 108.942 21.8795C108.481 21.7199 108.055 21.4751 107.684 21.1579C107.357 20.8754 107.094 20.526 106.914 20.1332C106.741 19.7629 106.651 19.3595 106.65 18.951H108.329C108.334 19.2534 108.418 19.5494 108.571 19.8102C108.713 20.0383 108.904 20.2323 109.13 20.3784C109.355 20.523 109.603 20.6269 109.865 20.6854C110.126 20.7464 110.394 20.7771 110.663 20.7771C110.97 20.7823 111.275 20.7454 111.572 20.6674C111.807 20.6068 112.03 20.5056 112.23 20.3684C112.397 20.252 112.533 20.0984 112.63 19.9199C112.72 19.7497 112.768 19.5603 112.769 19.3677Z" fill="black"></path><path d="M120.46 20.0396C120.685 20.0419 120.909 20.0062 121.123 19.9339C121.313 19.8714 121.488 19.7718 121.64 19.6408C121.785 19.5139 121.901 19.3576 121.981 19.1823C122.064 18.9938 122.109 18.7903 122.111 18.5843H124.583C124.581 19.081 124.47 19.5713 124.255 20.0196C124.048 20.4525 123.755 20.8385 123.393 21.1539C123.016 21.4794 122.58 21.7304 122.109 21.8935C121.595 22.071 121.055 22.1593 120.512 22.1547C119.826 22.17 119.146 22.0388 118.515 21.7699C117.97 21.5302 117.487 21.1712 117.1 20.7193C116.715 20.2585 116.428 19.7248 116.255 19.1504C116.063 18.5205 115.968 17.8651 115.974 17.2067V16.9476C115.969 16.2872 116.064 15.63 116.255 14.9979C116.427 14.4254 116.712 13.8928 117.092 13.431C117.476 12.9768 117.959 12.6155 118.503 12.3744C119.129 12.1057 119.805 11.9744 120.486 11.9897C121.05 11.9832 121.611 12.0735 122.145 12.2568C122.621 12.4222 123.058 12.6834 123.429 13.0243C123.79 13.3613 124.075 13.772 124.263 14.2284C124.473 14.734 124.582 15.2759 124.583 15.8232H122.111C122.107 15.5955 122.066 15.37 121.989 15.1554C121.918 14.9558 121.809 14.7717 121.668 14.6131C121.524 14.4545 121.346 14.3292 121.149 14.2463C120.925 14.1511 120.684 14.1042 120.442 14.1088C120.113 14.0953 119.788 14.1777 119.505 14.346C119.264 14.5017 119.069 14.7184 118.938 14.974C118.796 15.2608 118.702 15.5694 118.661 15.887C118.612 16.2411 118.588 16.5981 118.589 16.9556V17.2107C118.588 17.5714 118.612 17.9318 118.661 18.2892C118.702 18.6044 118.795 18.9104 118.938 19.1943C119.07 19.446 119.265 19.6586 119.505 19.8103C119.795 19.9754 120.126 20.0549 120.46 20.0396Z" fill="black"></path><path d="M131.954 20.9726C131.649 21.3439 131.264 21.6417 130.828 21.8437C130.336 22.0589 129.804 22.1637 129.267 22.1507C128.817 22.1575 128.369 22.0901 127.941 21.9514C127.552 21.8212 127.199 21.6005 126.911 21.3075C126.605 20.9856 126.377 20.5983 126.244 20.1752C126.075 19.6369 125.994 19.0746 126.007 18.5105V12.1611H128.632V18.5245C128.626 18.762 128.661 18.9987 128.736 19.2242C128.795 19.4 128.894 19.5597 129.025 19.6907C129.151 19.8087 129.302 19.8966 129.467 19.9479C129.649 20.0048 129.839 20.0324 130.03 20.0296C130.428 20.0455 130.824 19.9619 131.182 19.7864C131.471 19.6314 131.708 19.3941 131.862 19.1046V12.1611H134.496V21.9713H132.026L131.954 20.9726Z" fill="black"></path><path fill-rule="evenodd" clip-rule="evenodd" d="M138.958 21.7801C139.607 22.0354 140.299 22.1614 140.996 22.1509C141.445 22.1556 141.892 22.1054 142.328 22.0014C142.704 21.9125 143.068 21.7786 143.412 21.6027C143.714 21.4499 143.995 21.2597 144.249 21.0366C144.469 20.8425 144.667 20.6238 144.838 20.3847L143.55 18.9433C143.274 19.3042 142.912 19.5895 142.496 19.7726C142.077 19.9528 141.626 20.0438 141.17 20.0398C140.857 20.0439 140.546 19.9919 140.252 19.8863C139.989 19.7886 139.748 19.6418 139.541 19.4537C139.334 19.265 139.164 19.0391 139.04 18.7878C138.906 18.5146 138.819 18.2208 138.782 17.9187H145.037V16.8023C145.046 16.1335 144.952 15.4674 144.76 14.8267C144.596 14.2712 144.318 13.7558 143.943 13.3136C143.569 12.8904 143.105 12.556 142.586 12.3348C141.371 11.8601 140.02 11.8701 138.812 12.3627C138.261 12.6037 137.769 12.9607 137.369 13.4093C136.961 13.8754 136.65 14.4174 136.452 15.0041C136.23 15.6622 136.121 16.3531 136.129 17.0475V17.4023C136.125 18.0347 136.237 18.6625 136.46 19.2543C136.674 19.8186 137.001 20.333 137.423 20.7654C137.859 21.205 138.382 21.5503 138.958 21.7801ZM139.949 14.2507C140.184 14.1469 140.44 14.0959 140.697 14.1012C140.967 14.0975 141.234 14.1469 141.484 14.2467C141.693 14.3293 141.88 14.4597 142.029 14.6275C142.179 14.7959 142.29 14.9944 142.357 15.2096C142.428 15.4444 142.465 15.688 142.468 15.9332V16.1326H138.819C138.853 15.8507 138.92 15.5737 139.018 15.3072C139.108 15.0745 139.235 14.8582 139.396 14.6673C139.548 14.4904 139.737 14.3483 139.949 14.2507Z" fill="black"></path><path d="M148.939 12.161L149.023 13.2953C149.35 12.8798 149.769 12.5461 150.247 12.3205C150.747 12.0888 151.293 11.9723 151.844 11.9796C152.276 11.9759 152.705 12.0432 153.114 12.1789C153.491 12.3054 153.829 12.5257 154.096 12.8188C154.39 13.153 154.606 13.5478 154.729 13.9751C154.89 14.5471 154.964 15.1396 154.951 15.7334V21.9712H152.333V15.7155C152.34 15.4516 152.305 15.1884 152.228 14.936C152.118 14.5598 151.812 14.2728 151.429 14.1864C151.209 14.1332 150.983 14.1078 150.756 14.1107C150.406 14.0995 150.06 14.1872 149.758 14.3638C149.481 14.5344 149.252 14.7716 149.091 15.0536V21.9712H146.472V12.161H148.939Z" fill="black"></path><path d="M160.082 9.75116V12.1613H161.763V14.0831H160.082V18.9792C160.077 19.1509 160.099 19.3223 160.145 19.4876C160.211 19.726 160.406 19.9067 160.649 19.9541C160.794 19.9822 160.942 19.9956 161.09 19.994C161.247 19.994 161.391 19.988 161.521 19.976C161.651 19.9641 161.765 19.9481 161.862 19.9302V21.9237C161.629 21.9939 161.39 22.0498 161.15 22.0912C160.86 22.1393 160.567 22.1619 160.273 22.1589C159.88 22.1643 159.489 22.1112 159.111 22.0014C158.781 21.9045 158.477 21.7318 158.225 21.4971C157.967 21.2475 157.772 20.9399 157.658 20.6C157.516 20.1707 157.448 19.7203 157.458 19.2683V14.0851H156.025V12.1613H157.458V9.75116H160.082Z" fill="black"></path><path fill-rule="evenodd" clip-rule="evenodd" d="M168.652 21.0904C168.692 21.3962 168.781 21.6937 168.915 21.9715L171.577 21.9675V21.812C171.509 21.6834 171.451 21.5502 171.403 21.4133C171.352 21.2562 171.313 21.0956 171.285 20.9329C171.267 20.8235 171.255 20.7074 171.241 20.5832C171.233 20.5038 171.224 20.4212 171.213 20.3348C171.185 20.1135 171.185 19.8643 171.185 19.5872V15.4407C171.197 14.9222 171.096 14.4074 170.89 13.9316C170.705 13.5123 170.424 13.1423 170.069 12.8511C169.699 12.5541 169.272 12.3339 168.815 12.2032C168.302 12.0548 167.77 11.9816 167.236 11.9859C166.652 11.9788 166.07 12.0629 165.511 12.2351C165.031 12.3872 164.582 12.6235 164.186 12.9328C163.837 13.2006 163.55 13.5406 163.345 13.9296C163.152 14.2991 163.051 14.7092 163.049 15.1257H165.673C165.656 14.7935 165.795 14.4725 166.048 14.2565C166.345 14.0288 166.715 13.9155 167.088 13.9376C167.592 13.9376 167.959 14.0651 168.191 14.3363C168.437 14.6441 168.562 15.0312 168.542 15.4247V15.9789H167.37C166.705 15.9688 166.042 16.0418 165.395 16.1962C164.886 16.316 164.403 16.5311 163.974 16.8302C163.607 17.0915 163.312 17.4403 163.115 17.8449C162.92 18.2739 162.823 18.7412 162.832 19.2125C162.827 19.6243 162.916 20.0318 163.091 20.4046C163.257 20.7611 163.497 21.0784 163.794 21.3356C164.107 21.6002 164.468 21.8031 164.856 21.9336C165.281 22.0815 165.728 22.1551 166.178 22.1509C166.687 22.1666 167.193 22.0614 167.653 21.8439C168.03 21.6564 168.368 21.4009 168.652 21.0904ZM167.369 20.0676C167.166 20.1226 166.957 20.1494 166.747 20.1473C166.4 20.1611 166.062 20.0404 165.802 19.8104C165.577 19.607 165.451 19.3162 165.457 19.013C165.455 18.8076 165.496 18.6041 165.577 18.415C165.66 18.2299 165.785 18.0673 165.944 17.9405C166.129 17.7939 166.343 17.6861 166.571 17.6235C166.863 17.5429 167.166 17.5047 167.469 17.5099H168.551V19.1964C168.478 19.3256 168.387 19.4443 168.282 19.5493C168.163 19.6688 168.029 19.7714 167.883 19.8543C167.721 19.9455 167.548 20.0171 167.369 20.0676Z" fill="black"></path><path d="M178.513 19.2602C178.515 19.1288 178.487 18.9987 178.432 18.8794C178.36 18.7454 178.253 18.6337 178.122 18.5565C177.928 18.4377 177.721 18.3421 177.505 18.2714C177.173 18.1657 176.835 18.0805 176.493 18.0162C176.018 17.9184 175.551 17.7851 175.095 17.6175C174.699 17.4734 174.325 17.2719 173.987 17.0195C173.688 16.7921 173.439 16.5049 173.257 16.1762C173.075 15.8331 172.985 15.4496 172.993 15.0618C172.992 14.6563 173.084 14.2559 173.263 13.8916C173.447 13.5153 173.709 13.1828 174.033 12.9168C174.4 12.6129 174.822 12.3815 175.275 12.235C175.808 12.0646 176.365 11.9818 176.924 11.9898C177.504 11.9827 178.082 12.062 178.639 12.225C179.108 12.3617 179.547 12.5849 179.933 12.8829C180.277 13.1501 180.557 13.4906 180.752 13.8797C180.943 14.2746 181.041 14.7086 181.037 15.1475H178.414C178.424 14.8014 178.293 14.4658 178.05 14.2186C177.809 13.974 177.431 13.8517 176.914 13.8517C176.548 13.8286 176.186 13.9344 175.89 14.1508C175.655 14.3329 175.52 14.6154 175.527 14.9123C175.523 15.0466 175.556 15.1793 175.621 15.2971C175.698 15.4227 175.804 15.5285 175.93 15.6061C176.106 15.7155 176.295 15.8026 176.493 15.8652C176.774 15.955 177.061 16.0275 177.352 16.0825C177.853 16.1765 178.347 16.3037 178.831 16.4633C179.251 16.5965 179.647 16.7935 180.007 17.0474C180.327 17.2758 180.593 17.5727 180.784 17.9166C181.166 18.6852 181.166 19.5881 180.784 20.3567C180.582 20.7309 180.298 21.0546 179.953 21.3036C179.558 21.5858 179.117 21.7976 178.649 21.9296C178.095 22.0868 177.52 22.1626 176.944 22.1548C176.323 22.1665 175.705 22.0686 175.117 21.8658C174.631 21.6952 174.181 21.4371 173.788 21.1042C173.445 20.8119 173.168 20.4505 172.975 20.0437C172.798 19.6698 172.705 19.2614 172.704 18.8475H175.191C175.197 19.0766 175.254 19.3015 175.359 19.5054C175.455 19.6839 175.592 19.8375 175.758 19.954C175.93 20.073 176.122 20.1589 176.325 20.2071C176.547 20.263 176.774 20.2904 177.002 20.2889C177.402 20.3161 177.8 20.2163 178.14 20.0038C178.38 19.8327 178.52 19.5544 178.513 19.2602Z" fill="black"></path><path d="M181.918 21.6045C181.914 21.4811 181.957 21.3608 182.038 21.2676C182.133 21.1721 182.265 21.1226 182.4 21.132C182.535 21.1222 182.669 21.1716 182.765 21.2676C182.849 21.3592 182.894 21.4801 182.891 21.6045C182.894 21.7253 182.849 21.8424 182.765 21.9294C182.667 22.0233 182.535 22.0711 182.4 22.061C182.272 22.0747 182.146 22.0319 182.053 21.944C181.961 21.8561 181.911 21.7319 181.918 21.6045Z" fill="black"></path><path d="M186.014 21.4551C186.15 21.456 186.285 21.4331 186.413 21.3873C186.535 21.3461 186.649 21.2833 186.749 21.2019C186.845 21.1246 186.926 21.0291 186.986 20.9208C187.046 20.8126 187.083 20.6931 187.094 20.5699H187.833C187.821 20.7734 187.764 20.9717 187.665 21.1501C187.563 21.3349 187.428 21.4991 187.266 21.6345C186.915 21.9303 186.471 22.0927 186.012 22.093C185.702 22.0998 185.395 22.0371 185.113 21.9096C184.867 21.7912 184.65 21.6188 184.479 21.4052C184.306 21.1906 184.177 20.944 184.099 20.6796C184.015 20.3962 183.973 20.102 183.975 19.8064V19.629C183.973 19.3334 184.015 19.0392 184.099 18.7558C184.176 18.4913 184.305 18.2446 184.479 18.0302C184.649 17.8191 184.866 17.6493 185.111 17.5338C185.393 17.4061 185.699 17.3434 186.008 17.3504C186.256 17.3472 186.503 17.3897 186.737 17.476C186.946 17.556 187.138 17.6743 187.304 17.8248C187.462 17.9758 187.588 18.1576 187.673 18.3591C187.764 18.5658 187.815 18.7875 187.825 19.013H187.086C187.075 18.8754 187.042 18.7406 186.986 18.6143C186.933 18.4947 186.857 18.3859 186.765 18.2933C186.669 18.2005 186.556 18.1268 186.433 18.076C186.297 18.0212 186.151 17.9941 186.004 17.9963C185.795 17.9893 185.588 18.0389 185.405 18.1398C185.249 18.233 185.117 18.3622 185.022 18.5166C184.924 18.6788 184.857 18.857 184.822 19.0429C184.782 19.2397 184.762 19.4401 184.762 19.641V19.8104C184.762 20.0113 184.782 20.2116 184.822 20.4085C184.856 20.5945 184.924 20.7728 185.022 20.9348C185.117 21.0886 185.249 21.2172 185.405 21.3095C185.591 21.4122 185.801 21.4625 186.014 21.4551Z" fill="black"></path><path fill-rule="evenodd" clip-rule="evenodd" d="M188.649 18.7616C188.549 19.0583 188.5 19.3696 188.503 19.6826L188.511 19.7763C188.508 20.0893 188.557 20.4006 188.657 20.6973C188.746 20.9668 188.887 21.2162 189.072 21.4309C189.253 21.6382 189.476 21.8041 189.727 21.9174C190.281 22.1513 190.906 22.1513 191.46 21.9174C191.711 21.8041 191.934 21.6382 192.115 21.4309C192.3 21.2161 192.44 20.9667 192.528 20.6973C192.626 20.4002 192.675 20.0891 192.672 19.7763V19.6826C192.675 19.3698 192.626 19.0587 192.528 18.7616C192.44 18.4918 192.3 18.2419 192.115 18.026C191.935 17.8164 191.71 17.649 191.458 17.5356C191.184 17.4141 190.886 17.3536 190.586 17.3581C190.289 17.3538 189.994 17.4143 189.723 17.5356C189.472 17.6496 189.25 17.817 189.07 18.026C188.883 18.2412 188.74 18.4912 188.649 18.7616ZM189.368 20.4222C189.314 20.2111 189.287 19.9941 189.288 19.7763L189.28 19.6826C189.28 19.4655 189.307 19.2492 189.36 19.0387C189.409 18.847 189.491 18.6654 189.603 18.5024C189.709 18.3532 189.845 18.2282 190.003 18.1356C190.176 18.0426 190.369 17.9959 190.566 18.0001C190.764 17.9959 190.96 18.0426 191.135 18.1356C191.296 18.2265 191.436 18.3517 191.544 18.5024C191.656 18.6657 191.739 18.8471 191.79 19.0387C191.845 19.2489 191.872 19.4653 191.871 19.6826V19.7763C191.872 19.9942 191.845 20.2114 191.79 20.4222C191.739 20.612 191.656 20.7919 191.546 20.9545C191.443 21.1049 191.306 21.2297 191.147 21.3193C190.79 21.5001 190.368 21.5001 190.011 21.3193C189.852 21.229 189.716 21.1044 189.611 20.9545C189.499 20.7927 189.417 20.6126 189.368 20.4222Z" fill="black"></path><path d="M194.381 17.4421L194.401 17.9485C194.558 17.7636 194.754 17.6152 194.974 17.5139C195.221 17.4054 195.489 17.3523 195.759 17.3584C196.03 17.3525 196.299 17.4127 196.541 17.5338C196.774 17.6555 196.958 17.8523 197.064 18.092C197.219 17.8704 197.425 17.6886 197.663 17.5617C197.93 17.4221 198.227 17.3534 198.528 17.3624C198.749 17.3587 198.968 17.391 199.179 17.458C199.361 17.516 199.525 17.618 199.658 17.7551C199.795 17.9014 199.897 18.0774 199.955 18.2694C200.026 18.5108 200.058 18.7617 200.051 19.013V22.0033H199.269V19.013C199.273 18.8515 199.25 18.6904 199.201 18.5366C199.159 18.4211 199.091 18.3172 199.001 18.2335C198.913 18.1558 198.808 18.101 198.694 18.0741C198.563 18.0446 198.429 18.0299 198.294 18.0302C198.148 18.0277 198.003 18.0535 197.867 18.1059C197.749 18.1523 197.641 18.2199 197.548 18.3053C197.458 18.394 197.386 18.4989 197.336 18.6143C197.283 18.7332 197.25 18.8597 197.236 18.9891V22.0033H196.458V19.013C196.461 18.8586 196.437 18.7048 196.388 18.5585C196.308 18.3266 196.12 18.1481 195.884 18.08C195.755 18.0413 195.62 18.0225 195.485 18.0242C195.029 17.9903 194.604 18.2547 194.433 18.6781V22.0033H193.65V17.4421H194.381Z" fill="black"></path><path fill-rule="evenodd" clip-rule="evenodd" d="M0.398952 5.36918V17.8268C0.33442 23.6132 3.38905 28.9878 8.39722 31.8997C13.4054 34.8117 19.5944 34.8117 24.6026 31.8997C29.6108 28.9878 32.6654 23.6132 32.6009 17.8268C32.6009 9.50377 26.0942 2.47655 17.7847 1.80274L17.0879 1.74493L16.7704 0.0743408L9.95031 4.72128L18.2638 7.98669L18.0043 6.26627L19.3459 6.60716C25.1926 8.08741 28.9253 13.7972 27.9297 19.7372C26.934 25.6772 21.5427 29.8622 15.532 29.3609C9.52127 28.8596 4.90001 23.8395 4.9051 17.8168L4.91708 5.3612L0.398952 5.36918ZM23.3578 17.5297H18.8636V25.4081C21.0294 24.645 22.6995 22.8944 23.3578 20.6974V17.5297ZM9.63078 11.5271H14.1329V25.4041C11.967 24.6409 10.2949 22.8928 9.63078 20.6974V11.5271Z" fill="black"></path></svg>