<svg xmlns="http://www.w3.org/2000/svg" width="111" height="28" viewBox="0 0 111 28" fill="none"><path d="M8.61474 27.21C6.98051 27.21 5.5097 26.9298 4.20231 26.3695C2.89493 25.7858 1.86769 24.9687 1.12062 23.9182C0.373539 22.8676 0 21.6419 0 20.2411H4.27235C4.36573 21.2917 4.77429 22.1555 5.49802 22.8326C6.2451 23.5096 7.28401 23.8481 8.61474 23.8481C9.99216 23.8481 11.0661 23.5213 11.8365 22.8676C12.6069 22.1905 12.9921 21.3267 12.9921 20.2761C12.9921 19.459 12.747 18.7937 12.2567 18.2801C11.7898 17.7664 11.1945 17.3696 10.4708 17.0894C9.77037 16.8092 8.78983 16.5057 7.52914 16.1789C5.9416 15.7587 4.64589 15.3384 3.642 14.9182C2.66146 14.4746 1.821 13.7976 1.12062 12.8871C0.420231 11.9766 0.0700385 10.7626 0.0700385 9.24508C0.0700385 7.84431 0.420231 6.61864 1.12062 5.56806C1.821 4.51749 2.80154 3.71204 4.06223 3.15173C5.32293 2.59142 6.78206 2.31127 8.43964 2.31127C10.7976 2.31127 12.7237 2.9066 14.2178 4.09725C15.7353 5.26456 16.5758 6.87545 16.7392 8.92991H12.3268C12.2567 8.04276 11.8365 7.28401 11.0661 6.65366C10.2957 6.02331 9.2801 5.70814 8.01941 5.70814C6.87545 5.70814 5.9416 5.99997 5.21787 6.58362C4.49414 7.16727 4.13227 8.00774 4.13227 9.10501C4.13227 9.85208 4.35406 10.4708 4.79764 10.961C5.26456 11.428 5.84822 11.8015 6.5486 12.0816C7.24899 12.3618 8.20618 12.6653 9.42018 12.9921C11.0311 13.4357 12.3385 13.8793 13.3423 14.3229C14.3696 14.7665 15.2334 15.4552 15.9338 16.389C16.6575 17.2995 17.0194 18.5252 17.0194 20.066C17.0194 21.3034 16.6808 22.4707 16.0038 23.568C15.3501 24.6652 14.3812 25.5524 13.0972 26.2294C11.8365 26.8831 10.3424 27.21 8.61474 27.21Z" fill="#070508"></path><path d="M26.5376 10.926V21.6069C26.5376 22.3306 26.7011 22.8559 27.0279 23.1827C27.3781 23.4862 27.9618 23.638 28.7789 23.638H31.2302V26.9648H28.0785C26.2808 26.9648 24.9034 26.5446 23.9462 25.7041C22.989 24.8637 22.5104 23.4979 22.5104 21.6069V10.926H20.2342V7.66922H22.5104V2.87158H26.5376V7.66922H31.2302V10.926H26.5376Z" fill="#070508"></path><path d="M33.7291 17.2295C33.7291 15.2917 34.1259 13.5758 34.9197 12.0816C35.7368 10.5875 36.8341 9.43185 38.2115 8.61474C39.6123 7.77428 41.1531 7.35404 42.8341 7.35404C44.3516 7.35404 45.6706 7.65754 46.7912 8.26454C47.9352 8.8482 48.8457 9.5836 49.5227 10.4708V7.66922H53.55V26.9648H49.5227V24.0932C48.8457 25.0037 47.9235 25.7625 46.7562 26.3695C45.5889 26.9765 44.2582 27.28 42.764 27.28C41.1064 27.28 39.5889 26.8598 38.2115 26.0193C36.8341 25.1555 35.7368 23.9648 34.9197 22.4473C34.1259 20.9065 33.7291 19.1672 33.7291 17.2295ZM49.5227 17.2995C49.5227 15.9688 49.2426 14.8131 48.6823 13.8326C48.1453 12.8521 47.4333 12.105 46.5461 11.5914C45.659 11.0778 44.7018 10.821 43.6745 10.821C42.6473 10.821 41.6901 11.0778 40.8029 11.5914C39.9158 12.0816 39.1921 12.817 38.6318 13.7976C38.0948 14.7548 37.8263 15.8987 37.8263 17.2295C37.8263 18.5602 38.0948 19.7275 38.6318 20.7314C39.1921 21.7353 39.9158 22.5057 40.8029 23.0427C41.7135 23.5563 42.6706 23.8131 43.6745 23.8131C44.7018 23.8131 45.659 23.5563 46.5461 23.0427C47.4333 22.5291 48.1453 21.782 48.6823 20.8014C49.2426 19.7976 49.5227 18.6302 49.5227 17.2995Z" fill="#070508"></path><path d="M57.6129 17.2295C57.6129 15.2917 58.0098 13.5758 58.8035 12.0816C59.6207 10.5875 60.7179 9.43185 62.0954 8.61474C63.4961 7.77428 65.0486 7.35404 66.7529 7.35404C68.0136 7.35404 69.251 7.6342 70.465 8.19451C71.7023 8.73147 72.6828 9.4552 73.4066 10.3657V1.05058H77.4338V26.9648H73.4066V24.0582C72.7529 24.9921 71.8424 25.7625 70.6751 26.3695C69.5311 26.9765 68.2121 27.28 66.7179 27.28C65.037 27.28 63.4961 26.8598 62.0954 26.0193C60.7179 25.1555 59.6207 23.9648 58.8035 22.4473C58.0098 20.9065 57.6129 19.1672 57.6129 17.2295ZM73.4066 17.2995C73.4066 15.9688 73.1264 14.8131 72.5661 13.8326C72.0292 12.8521 71.3171 12.105 70.4299 11.5914C69.5428 11.0778 68.5856 10.821 67.5584 10.821C66.5311 10.821 65.5739 11.0778 64.6868 11.5914C63.7996 12.0816 63.0759 12.817 62.5156 13.7976C61.9786 14.7548 61.7101 15.8987 61.7101 17.2295C61.7101 18.5602 61.9786 19.7275 62.5156 20.7314C63.0759 21.7353 63.7996 22.5057 64.6868 23.0427C65.5973 23.5563 66.5545 23.8131 67.5584 23.8131C68.5856 23.8131 69.5428 23.5563 70.4299 23.0427C71.3171 22.5291 72.0292 21.782 72.5661 20.8014C73.1264 19.7976 73.4066 18.6302 73.4066 17.2995Z" fill="#070508"></path><path d="M84.8586 5.11281C84.1349 5.11281 83.5279 4.86768 83.0376 4.37741C82.5473 3.88714 82.3022 3.28014 82.3022 2.55641C82.3022 1.83267 82.5473 1.22567 83.0376 0.735405C83.5279 0.245135 84.1349 0 84.8586 0C85.559 0 86.1543 0.245135 86.6446 0.735405C87.1348 1.22567 87.38 1.83267 87.38 2.55641C87.38 3.28014 87.1348 3.88714 86.6446 4.37741C86.1543 4.86768 85.559 5.11281 84.8586 5.11281ZM86.8197 7.66922V26.9648H82.8275V7.66922H86.8197Z" fill="#070508"></path><path d="M100.581 27.28C98.7597 27.28 97.1138 26.8714 95.643 26.0543C94.1722 25.2139 93.0166 24.0466 92.1761 22.5524C91.3357 21.0349 90.9154 19.2839 90.9154 17.2995C90.9154 15.3384 91.3473 13.5991 92.2111 12.0816C93.075 10.5641 94.2539 9.39684 95.7481 8.57972C97.2422 7.7626 98.9115 7.35404 100.756 7.35404C102.6 7.35404 104.269 7.7626 105.764 8.57972C107.258 9.39684 108.437 10.5641 109.301 12.0816C110.164 13.5991 110.596 15.3384 110.596 17.2995C110.596 19.2606 110.153 20.9999 109.266 22.5174C108.378 24.0349 107.164 25.2139 105.624 26.0543C104.106 26.8714 102.425 27.28 100.581 27.28ZM100.581 23.8131C101.608 23.8131 102.565 23.568 103.452 23.0777C104.363 22.5874 105.098 21.852 105.659 20.8715C106.219 19.8909 106.499 18.7003 106.499 17.2995C106.499 15.8987 106.231 14.7198 105.694 13.7626C105.157 12.782 104.445 12.0466 103.557 11.5564C102.67 11.0661 101.713 10.821 100.686 10.821C99.6586 10.821 98.7014 11.0661 97.8142 11.5564C96.9504 12.0466 96.2617 12.782 95.7481 13.7626C95.2345 14.7198 94.9777 15.8987 94.9777 17.2995C94.9777 19.3773 95.503 20.9882 96.5535 22.1322C97.6275 23.2528 98.9699 23.8131 100.581 23.8131Z" fill="#070508"></path></svg>