<svg xmlns="http://www.w3.org/2000/svg" width="117" height="33" viewBox="0 0 117 33" fill="none"><g style="mix-blend-mode:luminosity"><path d="M18.6757 3.09021C13.7865 3.12703 9.7963 7.01863 9.63016 11.9122H9.55078V30.4508C13.3222 30.45 16.704 28.1244 18.0591 24.5997C17.9779 24.5997 17.8948 24.5997 17.8118 24.5997C15.8373 24.6022 14.0295 23.4918 13.1369 21.7281C12.2443 19.9644 12.4189 17.8477 13.5883 16.2546C14.7577 14.6614 16.7229 13.8629 18.6702 14.1897V12.2153H18.7422C23.7513 12.1808 27.7949 8.10664 27.7988 3.09021H18.6757Z" fill="url(#paint0_linear_1353_2705)"></path><path d="M17.4253 22.1896L15.8614 20.7347C15.4889 20.3884 15.2689 19.9076 15.2499 19.3983C15.2308 18.889 15.4143 18.393 15.7598 18.0196L17.4677 19.6098L22.0837 15.677C22.8924 14.9895 24.1016 15.0828 24.796 15.8864L17.4253 22.1896Z" fill="url(#paint1_linear_1353_2705)"></path><path d="M9.49116 3.09021C4.49516 3.13065 0.46618 7.19048 0.465332 12.1852H18.5594V3.09021H9.49116Z" fill="url(#paint2_linear_1353_2705)"></path><path d="M12.5282 19.0048C12.5578 19.0028 12.5617 18.7538 12.6235 18.3946C12.6603 18.181 12.7237 17.9273 12.8088 17.6664C12.9528 17.2247 13.187 16.7497 13.4869 16.3174C13.6314 16.1092 13.7934 15.9117 13.9633 15.7309C14.0814 15.6051 14.2025 15.4873 14.3277 15.3806C14.5042 15.2302 14.6822 15.0929 14.8652 14.9705C15.3958 14.6156 15.9551 14.3772 16.5383 14.2365C16.8369 14.1644 17.2494 14.0877 17.7806 14.0905C17.8949 14.0911 18.0621 14.0941 18.2782 14.1156C18.3481 14.1226 18.4642 14.1382 18.6265 14.1625C18.6181 12.8671 18.6181 12.2137 18.6265 12.2021C19.3707 11.1722 21.6739 11.5025 22.2582 11.2877C22.3767 11.2442 22.3172 10.6102 22.3172 10.2638C22.3172 7.30101 20.852 4.68087 18.6075 3.09036C17.0969 3.09002 11.7655 3.09036 9.34829 3.09036C9.03402 3.09763 8.56802 3.16134 8.37536 3.17063C6.19396 4.76818 4.7771 7.35032 4.7771 10.2638C4.7771 10.929 4.99307 11.5738 5.425 12.1981C5.8253 12.1981 7.19317 12.1981 9.52861 12.1981C9.52861 13.889 9.52861 14.9006 9.52861 15.233C9.52861 16.3316 9.52861 17.594 9.52861 18.0702C10.6328 18.6438 11.5535 18.949 12.3183 18.998C12.3897 19.0025 12.4599 19.0095 12.5282 19.0048Z" fill="url(#paint3_radial_1353_2705)"></path><path d="M18.6757 3.09021C13.7865 3.12697 9.7963 7.01274 9.63016 11.8989L9.55078 21.1285C9.55078 16.2034 13.5436 12.2109 18.469 12.2109H18.6702H18.7422C23.7549 12.1764 27.7999 8.10271 27.7988 3.09021H18.6757Z" fill="black"></path><path fill-rule="evenodd" clip-rule="evenodd" d="M40.3894 11.2789H42.5051C44.2676 11.2789 45.6963 9.84954 45.6963 8.08636H34.8744C33.1119 8.08636 31.6831 9.5157 31.6831 11.2789H36.9744V25.2152C38.8595 25.213 40.3872 23.6847 40.3894 21.7988V11.2789ZM53.3835 16.4279L53.8579 13.2683C53.3239 13.0885 52.7628 13.0024 52.1994 13.0138C50.7448 13.0138 49.6078 13.511 48.8629 14.623V13.3309H45.7733V25.1394C46.6194 25.1394 47.4308 24.8035 48.0287 24.2057C48.6266 23.6079 48.9619 22.7972 48.9609 21.9524V18.6988C48.9609 16.9408 49.9764 16.0364 51.4545 16.0364C52.1166 16.0427 52.7714 16.1756 53.3835 16.4279ZM89.815 13.2683L89.3369 16.4279C88.7251 16.1757 88.0706 16.0428 87.4088 16.0364C85.9314 16.0364 84.9164 16.9408 84.9164 18.6988V21.9524C84.9174 22.7973 84.5822 23.6079 83.9846 24.2057C83.387 24.8035 82.5761 25.1394 81.7304 25.1394V13.331H84.8224V14.623C85.5669 13.5111 86.6995 13.0138 88.1534 13.0138C88.7178 13.0021 89.28 13.0883 89.815 13.2683ZM60.7529 25.5183C63.6983 25.5183 66.3273 23.9085 66.3273 20.1757L66.3312 13.3957H63.1671V19.8976C63.1671 21.7738 62.1319 22.5572 60.7568 22.5572C59.3818 22.5572 58.3505 21.7895 58.3505 19.8976V13.3917H55.1668V20.1757C55.1668 23.9085 57.8075 25.5183 60.7529 25.5183ZM99.5506 25.1388H102.665L102.673 13.3323H100.863C100.139 13.3323 99.5528 13.9148 99.5506 14.6346C98.6968 13.5673 97.3851 12.9665 96.0155 13.0156C92.7475 13.0156 90.2769 15.6866 90.2769 19.2297C90.2769 22.7728 92.7475 25.4399 96.0155 25.4399C97.3822 25.4874 98.6917 24.892 99.5506 23.8326V25.1388ZM96.5811 22.4795C94.6997 22.4795 93.5213 21.0325 93.5213 19.2297C93.5213 17.423 94.7547 15.976 96.5811 15.976C98.4076 15.976 99.6409 17.3682 99.6409 19.2297C99.6409 21.0912 98.4626 22.4795 96.5811 22.4795ZM74.0595 13.1645C74.8916 13.1582 75.7161 13.3233 76.4817 13.6495C77.2168 13.9651 77.8861 14.4162 78.4546 14.9793C79.0188 15.5463 79.4685 16.2169 79.779 16.9544C80.1064 17.7206 80.2726 18.546 80.2673 19.3793C80.2731 20.2076 80.1068 21.028 79.779 21.7886C79.4647 22.524 79.0155 23.194 78.4546 23.7637C77.8907 24.3354 77.2204 24.7911 76.4817 25.1052C74.9326 25.7571 73.1865 25.7571 71.6374 25.1052C70.9056 24.7889 70.2422 24.3333 69.684 23.7637C69.1231 23.194 68.6739 22.524 68.3596 21.7886C68.0318 21.028 67.8655 20.2076 67.8713 19.3793C67.866 18.546 68.0322 17.7206 68.3596 16.9544C68.6701 16.2169 69.1198 15.5463 69.684 14.9793C70.2468 14.4182 70.9092 13.9672 71.6374 13.6495C72.403 13.3233 73.2275 13.1582 74.0595 13.1645ZM74.0595 16.0862C73.1906 16.0694 72.3534 16.4134 71.7468 17.0366C71.1132 17.6511 70.7613 18.5002 70.774 19.3832C70.7722 19.8096 70.8586 20.2318 71.0279 20.6231C71.2041 21.0202 71.4473 21.3841 71.7468 21.6986C72.3507 22.3284 73.1875 22.6808 74.0595 22.6725C74.4897 22.6739 74.9159 22.5902 75.3136 22.4261C75.715 22.2633 76.0762 22.015 76.3723 21.6986C77.314 20.7614 77.5978 19.3481 77.0911 18.1193C76.5844 16.8906 75.3874 16.0893 74.0595 16.0901V16.0862Z" fill="black"></path><rect x="105.565" y="21.3692" width="4.01426" height="3.97403" rx="1" fill="url(#paint4_linear_1353_2705)"></rect></g><defs><linearGradient id="paint0_linear_1353_2705" x1="9.54524" y1="30.455" x2="27.7988" y2="30.455" gradientUnits="userSpaceOnUse"><stop stop-color="#6300FF"></stop><stop offset="1" stop-color="#0000FF"></stop></linearGradient><linearGradient id="paint1_linear_1353_2705" x1="15.2502" y1="22.1861" x2="24.7923" y2="22.1861" gradientUnits="userSpaceOnUse"><stop stop-color="#6300FF"></stop><stop offset="1" stop-color="#0000FF"></stop></linearGradient><linearGradient id="paint2_linear_1353_2705" x1="0.46349" y1="12.1787" x2="18.5575" y2="12.1787" gradientUnits="userSpaceOnUse"><stop stop-color="#6300FF"></stop><stop offset="1" stop-color="#0000FF"></stop></linearGradient><radialGradient id="paint3_radial_1353_2705" cx="0" cy="0" r="1" gradientUnits="userSpaceOnUse" gradientTransform="translate(13.9863 11.2581) scale(8.81262 7.9899)"><stop stop-color="#030238"></stop><stop offset="1" stop-color="#4500FF"></stop></radialGradient><linearGradient id="paint4_linear_1353_2705" x1="103.022" y1="23.2484" x2="107.426" y2="27.629" gradientUnits="userSpaceOnUse"><stop stop-color="#8846EC"></stop><stop offset="1" stop-color="#1E08EF"></stop></linearGradient></defs></svg>