<svg xmlns="http://www.w3.org/2000/svg" width="127" height="43" viewBox="0 0 127 43" fill="none"><path d="M62.7029 18.6172C61.6976 17.6494 60.2727 17.1661 58.4395 17.1661C57.4656 17.157 56.5002 17.3471 55.6024 17.7246C54.7798 18.0639 54.0534 18.6004 53.4874 19.2867C52.9281 19.9803 52.5946 20.8285 52.5319 21.7171H55.3384C55.4659 20.9788 55.8091 20.419 56.3691 20.0505C56.9737 19.6516 57.686 19.4474 58.4102 19.4652C59.2896 19.4652 60.0022 19.7203 60.5482 20.2303C61.121 20.7404 61.4017 21.5144 61.4017 22.532V22.7742H57.9522C56.1204 22.7742 54.7078 23.1432 53.7144 23.8811C52.7347 24.6181 52.2385 25.6242 52.2385 26.8955C52.2344 27.6011 52.4189 28.2948 52.773 28.9052C53.1609 29.5342 53.7221 30.038 54.3893 30.3563C55.1151 30.7248 56.0311 30.9161 57.1384 30.9161C58.2865 30.9161 59.2126 30.6738 59.9257 30.1778C60.6088 29.7117 61.1645 29.0823 61.542 28.3467V30.5973H64.2145V22.5307C64.2184 20.8641 63.7094 19.5672 62.7029 18.6172ZM60.82 26.6507C60.5471 27.2329 60.1256 27.733 59.5979 28.1006C59.0876 28.4568 58.4497 28.6348 57.6843 28.6348C56.9075 28.6348 56.2964 28.4691 55.8512 28.1248C55.6348 27.9577 55.4617 27.7412 55.3464 27.4933C55.2312 27.2454 55.1773 26.9735 55.1891 26.7004C55.1875 26.4218 55.2489 26.1464 55.3689 25.8949C55.4888 25.6433 55.6642 25.4222 55.8818 25.248C56.3525 24.854 57.1575 24.6627 58.2622 24.6627H61.38C61.3177 25.3543 61.1278 26.0283 60.82 26.6507Z" fill="black"></path><path d="M70.5125 36.1302H67.3055L70.1439 29.8845L64.4543 17.3663H67.6614L71.7091 26.7297L75.7811 17.3663H79.0136L70.5125 36.1302Z" fill="black"></path><path d="M89.3339 10.7802V19.1643C88.873 18.5585 88.2755 18.07 87.5901 17.7387C86.8228 17.3302 85.9654 17.1202 85.0961 17.1279C83.2885 17.1279 81.7794 17.8024 80.5394 19.1388C79.2994 20.4751 78.7075 22.1022 78.7075 24.0111C78.7075 25.92 79.3186 27.5471 80.5394 28.8835C81.7602 30.2199 83.3012 30.8931 85.0961 30.8931C85.9623 30.9003 86.8176 30.6996 87.5901 30.3078C88.2751 29.9649 88.8718 29.4688 89.3339 28.858V30.6254H92.2488V10.7802H89.3339ZM88.469 27.0256C88.1129 27.4218 87.6751 27.7362 87.1857 27.9471C86.6964 28.158 86.1672 28.2604 85.6345 28.2472C84.4761 28.2472 83.5347 27.8404 82.7961 27.0256C82.0575 26.2108 81.6888 25.206 81.6888 24.0111C81.6888 22.8163 82.046 21.8102 82.7961 20.9954C83.1531 20.5993 83.5916 20.285 84.0815 20.0742C84.5715 19.8633 85.1012 19.7608 85.6345 19.7738C86.7928 19.7738 87.7342 20.1819 88.4728 20.9954C89.2114 21.8089 89.5801 22.815 89.5801 24.0111C89.5801 25.2072 89.2217 26.212 88.4716 27.0256H88.469Z" fill="black"></path><path d="M105.89 19.1388C104.565 17.8024 102.924 17.1279 100.964 17.1279C99.0048 17.1279 97.3502 17.8024 96.0133 19.1388C94.6764 20.4751 94.0284 22.0895 94.0284 24.0111C94.0284 25.9328 94.6904 27.5726 96.0133 28.909C97.3362 30.2454 99.0048 30.8931 100.964 30.8931C102.924 30.8931 104.565 30.2313 105.89 28.909C106.54 28.2717 107.053 27.5088 107.399 26.6668C107.744 25.8247 107.915 24.9212 107.9 24.0111C107.9 22.0895 107.225 20.4611 105.89 19.1388ZM103.79 27.0001C103.051 27.8022 102.11 28.1962 100.964 28.1962C100.426 28.2101 99.8902 28.1109 99.3924 27.9048C98.8947 27.6988 98.4458 27.3906 98.0748 27.0001C97.3375 26.1865 96.9675 25.1932 96.9675 24.0111C96.9675 22.8291 97.3375 21.8357 98.0748 21.0464C98.4417 20.649 98.8893 20.3344 99.3876 20.1238C99.8858 19.9131 100.423 19.8112 100.964 19.8248C102.11 19.8248 103.052 20.232 103.79 21.0464C104.54 21.8357 104.923 22.8316 104.923 24.0111C104.923 25.1907 104.553 26.1865 103.79 27.0001Z" fill="black"></path><path d="M120.946 19.2089C119.624 17.8726 117.982 17.198 116.021 17.198C114.06 17.198 112.407 17.8726 111.071 19.2089C109.736 20.5453 109.085 22.1596 109.085 24.0813C109.085 26.0029 109.747 27.6428 111.071 28.9791C112.396 30.3155 114.062 30.9633 116.021 30.9633C117.981 30.9633 119.624 30.3015 120.946 28.9791C122.296 27.63 122.957 26.0017 122.957 24.0813C122.957 22.1609 122.283 20.53 120.946 19.2089ZM118.859 27.0702C118.108 27.8723 117.167 28.2663 116.021 28.2663C115.483 28.2791 114.948 28.1794 114.451 27.9734C113.953 27.7674 113.504 27.4598 113.133 27.0702C112.394 26.2567 112.026 25.2633 112.026 24.0813C112.026 22.8992 112.394 21.9059 113.133 21.1165C113.898 20.303 114.851 19.895 116.021 19.895C117.191 19.895 118.121 20.303 118.859 21.1165C119.611 21.9059 119.992 22.9018 119.992 24.0813C119.992 25.2608 119.624 26.2567 118.859 27.0702Z" fill="black"></path><path d="M46.0157 30.6037V22.6582L38.8898 11.8067H42.5165L47.544 19.5927L52.5944 11.8067H56.2479L49.0952 22.6837V30.6037H46.0157Z" fill="black"></path><path d="M15.4098 8.06529L13.4006 10.0737L17.5746 14.2472L21.7486 10.0737L19.7395 8.06529C19.1653 7.49141 18.3866 7.16901 17.5746 7.16901C16.7627 7.16901 15.984 7.49141 15.4098 8.06529Z" fill="black"></path><path d="M11.3123 12.1611L7.83356 15.6397L16.0987 23.9014V16.9455L11.3123 12.1611Z" fill="black"></path><path d="M5.74655 17.7246L4.43133 19.038C3.8572 19.6119 3.53467 20.3903 3.53467 21.2019C3.53467 22.0135 3.8572 22.7919 4.43133 23.3659L16.0987 35.0284V28.075L5.74655 17.7246Z" fill="black"></path><path d="M23.8382 12.1611L27.317 15.6397L19.0506 23.9014V16.9455L23.8382 12.1611Z" fill="black"></path><path d="M29.4027 17.7246L30.7167 19.038C31.2908 19.6119 31.6133 20.3903 31.6133 21.2019C31.6133 22.0135 31.2908 22.7919 30.7167 23.3659L19.0493 35.0284V28.075L29.4027 17.7246Z" fill="black"></path></svg>