<svg width="358" height="450" viewBox="0 0 358 450" fill="none" xmlns="http://www.w3.org/2000/svg">
<mask id="mask0_1323_4309" style="mask-type:alpha" maskUnits="userSpaceOnUse" x="0" y="0" width="303" height="450">
<rect width="303" height="450" rx="13" fill="#004C43"/>
</mask>
<g mask="url(#mask0_1323_4309)">
<circle cx="131" cy="113" r="172" fill="#004C43"/>
</g>
<mask id="mask1_1323_4309" style="mask-type:alpha" maskUnits="userSpaceOnUse" x="0" y="0" width="358" height="450">
<path d="M0 13C0 5.82029 5.8203 0 13 0H358V450H13C5.82029 450 0 444.18 0 437V13Z" fill="white"/>
</mask>
<g mask="url(#mask1_1323_4309)">
<path d="M20.8341 334C-5.8297 407.167 -52.9264 543.1 -54.9473 553.5H433.001L212.393 128L131.138 293.5L92.4054 259L57.8828 349L20.8341 334Z" fill="black" stroke="black"/>
<path d="M15.7814 346.5C-10.8824 419.667 -57.9792 555.6 -60 566H427.948L207.34 140.5L126.085 306L87.3527 271.5L52.8301 361.5L15.7814 346.5Z" fill="white" stroke="black"/>
</g>
<path d="M62.692 189.888V185.928L74.464 169.08H80.332V185.496H83.5V189.888H80.332V195H75.292V189.888H62.692ZM75.616 174.48L68.236 185.496H75.616V174.48ZM86.7088 181.536C86.7088 177.384 87.4528 174.132 88.9408 171.78C90.4528 169.428 92.9488 168.252 96.4288 168.252C99.9088 168.252 102.393 169.428 103.881 171.78C105.393 174.132 106.149 177.384 106.149 181.536C106.149 185.712 105.393 188.988 103.881 191.364C102.393 193.74 99.9088 194.928 96.4288 194.928C92.9488 194.928 90.4528 193.74 88.9408 191.364C87.4528 188.988 86.7088 185.712 86.7088 181.536ZM101.181 181.536C101.181 179.76 101.061 178.272 100.821 177.072C100.605 175.848 100.149 174.852 99.4528 174.084C98.7808 173.316 97.7728 172.932 96.4288 172.932C95.0848 172.932 94.0648 173.316 93.3688 174.084C92.6968 174.852 92.2408 175.848 92.0008 177.072C91.7848 178.272 91.6768 179.76 91.6768 181.536C91.6768 183.36 91.7848 184.896 92.0008 186.144C92.2168 187.368 92.6728 188.364 93.3688 189.132C94.0648 189.876 95.0848 190.248 96.4288 190.248C97.7728 190.248 98.7928 189.876 99.4888 189.132C100.185 188.364 100.641 187.368 100.857 186.144C101.073 184.896 101.181 183.36 101.181 181.536ZM109.406 175.2C109.406 173.376 109.934 171.948 110.99 170.916C112.07 169.884 113.45 169.368 115.13 169.368C116.81 169.368 118.178 169.884 119.234 170.916C120.314 171.948 120.854 173.376 120.854 175.2C120.854 177.048 120.314 178.488 119.234 179.52C118.178 180.552 116.81 181.068 115.13 181.068C113.45 181.068 112.07 180.552 110.99 179.52C109.934 178.488 109.406 177.048 109.406 175.2ZM132.518 169.8L118.37 195H113.474L127.586 169.8H132.518ZM115.094 172.392C113.774 172.392 113.114 173.328 113.114 175.2C113.114 177.096 113.774 178.044 115.094 178.044C115.742 178.044 116.246 177.816 116.606 177.36C116.966 176.88 117.146 176.16 117.146 175.2C117.146 173.328 116.462 172.392 115.094 172.392ZM125.21 189.564C125.21 187.716 125.738 186.288 126.794 185.28C127.874 184.248 129.254 183.732 130.934 183.732C132.614 183.732 133.97 184.248 135.002 185.28C136.058 186.288 136.586 187.716 136.586 189.564C136.586 191.412 136.058 192.852 135.002 193.884C133.97 194.916 132.614 195.432 130.934 195.432C129.23 195.432 127.85 194.916 126.794 193.884C125.738 192.852 125.21 191.412 125.21 189.564ZM130.898 186.756C129.53 186.756 128.846 187.692 128.846 189.564C128.846 191.46 129.53 192.408 130.898 192.408C132.242 192.408 132.914 191.46 132.914 189.564C132.914 187.692 132.242 186.756 130.898 186.756ZM64.135 216.335H67.585V218H62.035V207.53H64.135V216.335ZM72.6098 218.135C71.8098 218.135 71.0898 217.96 70.4498 217.61C69.8098 217.25 69.3048 216.745 68.9348 216.095C68.5748 215.445 68.3948 214.695 68.3948 213.845C68.3948 212.995 68.5798 212.245 68.9498 211.595C69.3298 210.945 69.8448 210.445 70.4948 210.095C71.1448 209.735 71.8698 209.555 72.6698 209.555C73.4698 209.555 74.1948 209.735 74.8448 210.095C75.4948 210.445 76.0048 210.945 76.3748 211.595C76.7548 212.245 76.9448 212.995 76.9448 213.845C76.9448 214.695 76.7498 215.445 76.3598 216.095C75.9798 216.745 75.4598 217.25 74.7998 217.61C74.1498 217.96 73.4198 218.135 72.6098 218.135ZM72.6098 216.305C72.9898 216.305 73.3448 216.215 73.6748 216.035C74.0148 215.845 74.2848 215.565 74.4848 215.195C74.6848 214.825 74.7848 214.375 74.7848 213.845C74.7848 213.055 74.5748 212.45 74.1548 212.03C73.7448 211.6 73.2398 211.385 72.6398 211.385C72.0398 211.385 71.5348 211.6 71.1248 212.03C70.7248 212.45 70.5248 213.055 70.5248 213.845C70.5248 214.635 70.7198 215.245 71.1098 215.675C71.5098 216.095 72.0098 216.305 72.6098 216.305ZM81.9502 216.065L84.0502 209.69H86.2852L83.2102 218H80.6602L77.6002 209.69H79.8502L81.9502 216.065ZM95.1897 213.665C95.1897 213.965 95.1697 214.235 95.1297 214.475H89.0547C89.1047 215.075 89.3147 215.545 89.6847 215.885C90.0547 216.225 90.5097 216.395 91.0497 216.395C91.8297 216.395 92.3847 216.06 92.7147 215.39H94.9797C94.7397 216.19 94.2797 216.85 93.5997 217.37C92.9197 217.88 92.0847 218.135 91.0947 218.135C90.2947 218.135 89.5747 217.96 88.9347 217.61C88.3047 217.25 87.8097 216.745 87.4497 216.095C87.0997 215.445 86.9247 214.695 86.9247 213.845C86.9247 212.985 87.0997 212.23 87.4497 211.58C87.7997 210.93 88.2897 210.43 88.9197 210.08C89.5497 209.73 90.2747 209.555 91.0947 209.555C91.8847 209.555 92.5897 209.725 93.2097 210.065C93.8397 210.405 94.3247 210.89 94.6647 211.52C95.0147 212.14 95.1897 212.855 95.1897 213.665ZM93.0147 213.065C93.0047 212.525 92.8097 212.095 92.4297 211.775C92.0497 211.445 91.5847 211.28 91.0347 211.28C90.5147 211.28 90.0747 211.44 89.7147 211.76C89.3647 212.07 89.1497 212.505 89.0697 213.065H93.0147ZM108.247 209.69L103.102 221.93H100.867L102.667 217.79L99.3367 209.69H101.692L103.837 215.495L106.012 209.69H108.247ZM113.069 218.135C112.269 218.135 111.549 217.96 110.909 217.61C110.269 217.25 109.764 216.745 109.394 216.095C109.034 215.445 108.854 214.695 108.854 213.845C108.854 212.995 109.039 212.245 109.409 211.595C109.789 210.945 110.304 210.445 110.954 210.095C111.604 209.735 112.329 209.555 113.129 209.555C113.929 209.555 114.654 209.735 115.304 210.095C115.954 210.445 116.464 210.945 116.834 211.595C117.214 212.245 117.404 212.995 117.404 213.845C117.404 214.695 117.209 215.445 116.819 216.095C116.439 216.745 115.919 217.25 115.259 217.61C114.609 217.96 113.879 218.135 113.069 218.135ZM113.069 216.305C113.449 216.305 113.804 216.215 114.134 216.035C114.474 215.845 114.744 215.565 114.944 215.195C115.144 214.825 115.244 214.375 115.244 213.845C115.244 213.055 115.034 212.45 114.614 212.03C114.204 211.6 113.699 211.385 113.099 211.385C112.499 211.385 111.994 211.6 111.584 212.03C111.184 212.45 110.984 213.055 110.984 213.845C110.984 214.635 111.179 215.245 111.569 215.675C111.969 216.095 112.469 216.305 113.069 216.305ZM126.789 209.69V218H124.674V216.95C124.404 217.31 124.049 217.595 123.609 217.805C123.179 218.005 122.709 218.105 122.199 218.105C121.549 218.105 120.974 217.97 120.474 217.7C119.974 217.42 119.579 217.015 119.289 216.485C119.009 215.945 118.869 215.305 118.869 214.565V209.69H120.969V214.265C120.969 214.925 121.134 215.435 121.464 215.795C121.794 216.145 122.244 216.32 122.814 216.32C123.394 216.32 123.849 216.145 124.179 215.795C124.509 215.435 124.674 214.925 124.674 214.265V209.69H126.789ZM130.961 210.98C131.231 210.54 131.581 210.195 132.011 209.945C132.451 209.695 132.951 209.57 133.511 209.57V211.775H132.956C132.296 211.775 131.796 211.93 131.456 212.24C131.126 212.55 130.961 213.09 130.961 213.86V218H128.861V209.69H130.961V210.98ZM64.135 226.89C64.405 226.51 64.775 226.195 65.245 225.945C65.725 225.685 66.27 225.555 66.88 225.555C67.59 225.555 68.23 225.73 68.8 226.08C69.38 226.43 69.835 226.93 70.165 227.58C70.505 228.22 70.675 228.965 70.675 229.815C70.675 230.665 70.505 231.42 70.165 232.08C69.835 232.73 69.38 233.235 68.8 233.595C68.23 233.955 67.59 234.135 66.88 234.135C66.27 234.135 65.73 234.01 65.26 233.76C64.8 233.51 64.425 233.195 64.135 232.815V237.96H62.035V225.69H64.135V226.89ZM68.53 229.815C68.53 229.315 68.425 228.885 68.215 228.525C68.015 228.155 67.745 227.875 67.405 227.685C67.075 227.495 66.715 227.4 66.325 227.4C65.945 227.4 65.585 227.5 65.245 227.7C64.915 227.89 64.645 228.17 64.435 228.54C64.235 228.91 64.135 229.345 64.135 229.845C64.135 230.345 64.235 230.78 64.435 231.15C64.645 231.52 64.915 231.805 65.245 232.005C65.585 232.195 65.945 232.29 66.325 232.29C66.715 232.29 67.075 232.19 67.405 231.99C67.745 231.79 68.015 231.505 68.215 231.135C68.425 230.765 68.53 230.325 68.53 229.815ZM74.301 226.98C74.571 226.54 74.921 226.195 75.351 225.945C75.791 225.695 76.291 225.57 76.851 225.57V227.775H76.296C75.636 227.775 75.136 227.93 74.796 228.24C74.466 228.55 74.301 229.09 74.301 229.86V234H72.201V225.69H74.301V226.98ZM81.9555 234.135C81.1555 234.135 80.4355 233.96 79.7955 233.61C79.1555 233.25 78.6505 232.745 78.2805 232.095C77.9205 231.445 77.7405 230.695 77.7405 229.845C77.7405 228.995 77.9255 228.245 78.2955 227.595C78.6755 226.945 79.1905 226.445 79.8405 226.095C80.4905 225.735 81.2155 225.555 82.0155 225.555C82.8155 225.555 83.5405 225.735 84.1905 226.095C84.8405 226.445 85.3505 226.945 85.7205 227.595C86.1005 228.245 86.2905 228.995 86.2905 229.845C86.2905 230.695 86.0955 231.445 85.7055 232.095C85.3255 232.745 84.8055 233.25 84.1455 233.61C83.4955 233.96 82.7655 234.135 81.9555 234.135ZM81.9555 232.305C82.3355 232.305 82.6905 232.215 83.0205 232.035C83.3605 231.845 83.6305 231.565 83.8305 231.195C84.0305 230.825 84.1305 230.375 84.1305 229.845C84.1305 229.055 83.9205 228.45 83.5005 228.03C83.0905 227.6 82.5855 227.385 81.9855 227.385C81.3855 227.385 80.8805 227.6 80.4705 228.03C80.0705 228.45 79.8705 229.055 79.8705 229.845C79.8705 230.635 80.0655 231.245 80.4555 231.675C80.8555 232.095 81.3555 232.305 81.9555 232.305ZM87.2909 229.815C87.2909 228.975 87.4559 228.23 87.7859 227.58C88.1259 226.93 88.5859 226.43 89.1659 226.08C89.7459 225.73 90.3909 225.555 91.1009 225.555C91.6409 225.555 92.1559 225.675 92.6459 225.915C93.1359 226.145 93.5259 226.455 93.8159 226.845V222.9H95.9459V234H93.8159V232.77C93.5559 233.18 93.1909 233.51 92.7209 233.76C92.2509 234.01 91.7059 234.135 91.0859 234.135C90.3859 234.135 89.7459 233.955 89.1659 233.595C88.5859 233.235 88.1259 232.73 87.7859 232.08C87.4559 231.42 87.2909 230.665 87.2909 229.815ZM93.8309 229.845C93.8309 229.335 93.7309 228.9 93.5309 228.54C93.3309 228.17 93.0609 227.89 92.7209 227.7C92.3809 227.5 92.0159 227.4 91.6259 227.4C91.2359 227.4 90.8759 227.495 90.5459 227.685C90.2159 227.875 89.9459 228.155 89.7359 228.525C89.5359 228.885 89.4359 229.315 89.4359 229.815C89.4359 230.315 89.5359 230.755 89.7359 231.135C89.9459 231.505 90.2159 231.79 90.5459 231.99C90.8859 232.19 91.2459 232.29 91.6259 232.29C92.0159 232.29 92.3809 232.195 92.7209 232.005C93.0609 231.805 93.3309 231.525 93.5309 231.165C93.7309 230.795 93.8309 230.355 93.8309 229.845ZM105.842 225.69V234H103.727V232.95C103.457 233.31 103.102 233.595 102.662 233.805C102.232 234.005 101.762 234.105 101.252 234.105C100.602 234.105 100.027 233.97 99.5269 233.7C99.0269 233.42 98.6319 233.015 98.3419 232.485C98.0619 231.945 97.9219 231.305 97.9219 230.565V225.69H100.022V230.265C100.022 230.925 100.187 231.435 100.517 231.795C100.847 232.145 101.297 232.32 101.867 232.32C102.447 232.32 102.902 232.145 103.232 231.795C103.562 231.435 103.727 230.925 103.727 230.265V225.69H105.842ZM107.374 229.845C107.374 228.985 107.549 228.235 107.899 227.595C108.249 226.945 108.734 226.445 109.354 226.095C109.974 225.735 110.684 225.555 111.484 225.555C112.514 225.555 113.364 225.815 114.034 226.335C114.714 226.845 115.169 227.565 115.399 228.495H113.134C113.014 228.135 112.809 227.855 112.519 227.655C112.239 227.445 111.889 227.34 111.469 227.34C110.869 227.34 110.394 227.56 110.044 228C109.694 228.43 109.519 229.045 109.519 229.845C109.519 230.635 109.694 231.25 110.044 231.69C110.394 232.12 110.869 232.335 111.469 232.335C112.319 232.335 112.874 231.955 113.134 231.195H115.399C115.169 232.095 114.714 232.81 114.034 233.34C113.354 233.87 112.504 234.135 111.484 234.135C110.684 234.135 109.974 233.96 109.354 233.61C108.734 233.25 108.249 232.75 107.899 232.11C107.549 231.46 107.374 230.705 107.374 229.845ZM119.382 227.415V231.435C119.382 231.715 119.447 231.92 119.577 232.05C119.717 232.17 119.947 232.23 120.267 232.23H121.242V234H119.922C118.152 234 117.267 233.14 117.267 231.42V227.415H116.277V225.69H117.267V223.635H119.382V225.69H121.242V227.415H119.382Z" fill="white"/>
<path d="M194.516 57.308C194.276 56.3 193.856 55.544 193.256 55.04C192.68 54.536 191.84 54.284 190.736 54.284C189.08 54.284 187.856 54.956 187.064 56.3C186.296 57.62 185.9 59.78 185.876 62.78C186.452 61.82 187.292 61.076 188.396 60.548C189.5 59.996 190.7 59.72 191.996 59.72C193.556 59.72 194.936 60.056 196.136 60.728C197.336 61.4 198.272 62.384 198.944 63.68C199.616 64.952 199.952 66.488 199.952 68.288C199.952 69.992 199.604 71.516 198.908 72.86C198.236 74.18 197.24 75.212 195.92 75.956C194.6 76.7 193.028 77.072 191.204 77.072C188.708 77.072 186.74 76.52 185.3 75.416C183.884 74.312 182.888 72.776 182.312 70.808C181.76 68.816 181.484 66.368 181.484 63.464C181.484 59.072 182.24 55.76 183.752 53.528C185.264 51.272 187.652 50.144 190.916 50.144C193.436 50.144 195.392 50.828 196.784 52.196C198.176 53.564 198.98 55.268 199.196 57.308H194.516ZM190.844 63.86C189.572 63.86 188.504 64.232 187.64 64.976C186.776 65.72 186.344 66.8 186.344 68.216C186.344 69.632 186.74 70.748 187.532 71.564C188.348 72.38 189.488 72.788 190.952 72.788C192.248 72.788 193.268 72.392 194.012 71.6C194.78 70.808 195.164 69.74 195.164 68.396C195.164 67.004 194.792 65.9 194.048 65.084C193.328 64.268 192.26 63.86 190.844 63.86ZM203.935 63.536C203.935 59.384 204.679 56.132 206.167 53.78C207.679 51.428 210.175 50.252 213.655 50.252C217.135 50.252 219.619 51.428 221.107 53.78C222.619 56.132 223.375 59.384 223.375 63.536C223.375 67.712 222.619 70.988 221.107 73.364C219.619 75.74 217.135 76.928 213.655 76.928C210.175 76.928 207.679 75.74 206.167 73.364C204.679 70.988 203.935 67.712 203.935 63.536ZM218.407 63.536C218.407 61.76 218.287 60.272 218.047 59.072C217.831 57.848 217.375 56.852 216.679 56.084C216.007 55.316 214.999 54.932 213.655 54.932C212.311 54.932 211.291 55.316 210.595 56.084C209.923 56.852 209.467 57.848 209.227 59.072C209.011 60.272 208.903 61.76 208.903 63.536C208.903 65.36 209.011 66.896 209.227 68.144C209.443 69.368 209.899 70.364 210.595 71.132C211.291 71.876 212.311 72.248 213.655 72.248C214.999 72.248 216.019 71.876 216.715 71.132C217.411 70.364 217.867 69.368 218.083 68.144C218.299 66.896 218.407 65.36 218.407 63.536ZM226.633 57.2C226.633 55.376 227.161 53.948 228.217 52.916C229.297 51.884 230.677 51.368 232.357 51.368C234.037 51.368 235.405 51.884 236.461 52.916C237.541 53.948 238.081 55.376 238.081 57.2C238.081 59.048 237.541 60.488 236.461 61.52C235.405 62.552 234.037 63.068 232.357 63.068C230.677 63.068 229.297 62.552 228.217 61.52C227.161 60.488 226.633 59.048 226.633 57.2ZM249.745 51.8L235.597 77H230.701L244.813 51.8H249.745ZM232.321 54.392C231.001 54.392 230.341 55.328 230.341 57.2C230.341 59.096 231.001 60.044 232.321 60.044C232.969 60.044 233.473 59.816 233.833 59.36C234.193 58.88 234.373 58.16 234.373 57.2C234.373 55.328 233.689 54.392 232.321 54.392ZM242.437 71.564C242.437 69.716 242.965 68.288 244.021 67.28C245.101 66.248 246.481 65.732 248.161 65.732C249.841 65.732 251.197 66.248 252.229 67.28C253.285 68.288 253.813 69.716 253.813 71.564C253.813 73.412 253.285 74.852 252.229 75.884C251.197 76.916 249.841 77.432 248.161 77.432C246.457 77.432 245.077 76.916 244.021 75.884C242.965 74.852 242.437 73.412 242.437 71.564ZM248.125 68.756C246.757 68.756 246.073 69.692 246.073 71.564C246.073 73.46 246.757 74.408 248.125 74.408C249.469 74.408 250.141 73.46 250.141 71.564C250.141 69.692 249.469 68.756 248.125 68.756ZM187.67 92.77C187.67 93.33 187.535 93.855 187.265 94.345C187.005 94.835 186.59 95.23 186.02 95.53C185.46 95.83 184.75 95.98 183.89 95.98H182.135V100H180.035V89.53H183.89C184.7 89.53 185.39 89.67 185.96 89.95C186.53 90.23 186.955 90.615 187.235 91.105C187.525 91.595 187.67 92.15 187.67 92.77ZM183.8 94.285C184.38 94.285 184.81 94.155 185.09 93.895C185.37 93.625 185.51 93.25 185.51 92.77C185.51 91.75 184.94 91.24 183.8 91.24H182.135V94.285H183.8ZM191.261 92.98C191.531 92.54 191.881 92.195 192.311 91.945C192.751 91.695 193.251 91.57 193.811 91.57V93.775H193.256C192.596 93.775 192.096 93.93 191.756 94.24C191.426 94.55 191.261 95.09 191.261 95.86V100H189.161V91.69H191.261V92.98ZM202.95 95.665C202.95 95.965 202.93 96.235 202.89 96.475H196.815C196.865 97.075 197.075 97.545 197.445 97.885C197.815 98.225 198.27 98.395 198.81 98.395C199.59 98.395 200.145 98.06 200.475 97.39H202.74C202.5 98.19 202.04 98.85 201.36 99.37C200.68 99.88 199.845 100.135 198.855 100.135C198.055 100.135 197.335 99.96 196.695 99.61C196.065 99.25 195.57 98.745 195.21 98.095C194.86 97.445 194.685 96.695 194.685 95.845C194.685 94.985 194.86 94.23 195.21 93.58C195.56 92.93 196.05 92.43 196.68 92.08C197.31 91.73 198.035 91.555 198.855 91.555C199.645 91.555 200.35 91.725 200.97 92.065C201.6 92.405 202.085 92.89 202.425 93.52C202.775 94.14 202.95 94.855 202.95 95.665ZM200.775 95.065C200.765 94.525 200.57 94.095 200.19 93.775C199.81 93.445 199.345 93.28 198.795 93.28C198.275 93.28 197.835 93.44 197.475 93.76C197.125 94.07 196.91 94.505 196.83 95.065H200.775ZM208.293 93.415H206.838V100H204.708V93.415H203.763V91.69H204.708V91.27C204.708 90.25 204.998 89.5 205.578 89.02C206.158 88.54 207.033 88.315 208.203 88.345V90.115C207.693 90.105 207.338 90.19 207.138 90.37C206.938 90.55 206.838 90.875 206.838 91.345V91.69H208.293V93.415ZM217.379 95.665C217.379 95.965 217.359 96.235 217.319 96.475H211.244C211.294 97.075 211.504 97.545 211.874 97.885C212.244 98.225 212.699 98.395 213.239 98.395C214.019 98.395 214.574 98.06 214.904 97.39H217.169C216.929 98.19 216.469 98.85 215.789 99.37C215.109 99.88 214.274 100.135 213.284 100.135C212.484 100.135 211.764 99.96 211.124 99.61C210.494 99.25 209.999 98.745 209.639 98.095C209.289 97.445 209.114 96.695 209.114 95.845C209.114 94.985 209.289 94.23 209.639 93.58C209.989 92.93 210.479 92.43 211.109 92.08C211.739 91.73 212.464 91.555 213.284 91.555C214.074 91.555 214.779 91.725 215.399 92.065C216.029 92.405 216.514 92.89 216.854 93.52C217.204 94.14 217.379 94.855 217.379 95.665ZM215.204 95.065C215.194 94.525 214.999 94.095 214.619 93.775C214.239 93.445 213.774 93.28 213.224 93.28C212.704 93.28 212.264 93.44 211.904 93.76C211.554 94.07 211.339 94.505 211.259 95.065H215.204ZM221.012 92.98C221.282 92.54 221.632 92.195 222.062 91.945C222.502 91.695 223.002 91.57 223.562 91.57V93.775H223.007C222.347 93.775 221.847 93.93 221.507 94.24C221.177 94.55 221.012 95.09 221.012 95.86V100H218.912V91.69H221.012V92.98ZM232.241 100.135C231.441 100.135 230.721 99.96 230.081 99.61C229.441 99.25 228.936 98.745 228.566 98.095C228.206 97.445 228.026 96.695 228.026 95.845C228.026 94.995 228.211 94.245 228.581 93.595C228.961 92.945 229.476 92.445 230.126 92.095C230.776 91.735 231.501 91.555 232.301 91.555C233.101 91.555 233.826 91.735 234.476 92.095C235.126 92.445 235.636 92.945 236.006 93.595C236.386 94.245 236.576 94.995 236.576 95.845C236.576 96.695 236.381 97.445 235.991 98.095C235.611 98.745 235.091 99.25 234.431 99.61C233.781 99.96 233.051 100.135 232.241 100.135ZM232.241 98.305C232.621 98.305 232.976 98.215 233.306 98.035C233.646 97.845 233.916 97.565 234.116 97.195C234.316 96.825 234.416 96.375 234.416 95.845C234.416 95.055 234.206 94.45 233.786 94.03C233.376 93.6 232.871 93.385 232.271 93.385C231.671 93.385 231.166 93.6 230.756 94.03C230.356 94.45 230.156 95.055 230.156 95.845C230.156 96.635 230.351 97.245 230.741 97.675C231.141 98.095 231.641 98.305 232.241 98.305ZM240.561 93.415V97.435C240.561 97.715 240.626 97.92 240.756 98.05C240.896 98.17 241.126 98.23 241.446 98.23H242.421V100H241.101C239.331 100 238.446 99.14 238.446 97.42V93.415H237.456V91.69H238.446V89.635H240.561V91.69H242.421V93.415H240.561ZM248.611 91.57C249.241 91.57 249.801 91.71 250.291 91.99C250.781 92.26 251.161 92.665 251.431 93.205C251.711 93.735 251.851 94.375 251.851 95.125V100H249.751V95.41C249.751 94.75 249.586 94.245 249.256 93.895C248.926 93.535 248.476 93.355 247.906 93.355C247.326 93.355 246.866 93.535 246.526 93.895C246.196 94.245 246.031 94.75 246.031 95.41V100H243.931V88.9H246.031V92.725C246.301 92.365 246.661 92.085 247.111 91.885C247.561 91.675 248.061 91.57 248.611 91.57ZM261.573 95.665C261.573 95.965 261.553 96.235 261.513 96.475H255.438C255.488 97.075 255.698 97.545 256.068 97.885C256.438 98.225 256.893 98.395 257.433 98.395C258.213 98.395 258.768 98.06 259.098 97.39H261.363C261.123 98.19 260.663 98.85 259.983 99.37C259.303 99.88 258.468 100.135 257.478 100.135C256.678 100.135 255.958 99.96 255.318 99.61C254.688 99.25 254.193 98.745 253.833 98.095C253.483 97.445 253.308 96.695 253.308 95.845C253.308 94.985 253.483 94.23 253.833 93.58C254.183 92.93 254.673 92.43 255.303 92.08C255.933 91.73 256.658 91.555 257.478 91.555C258.268 91.555 258.973 91.725 259.593 92.065C260.223 92.405 260.708 92.89 261.048 93.52C261.398 94.14 261.573 94.855 261.573 95.665ZM259.398 95.065C259.388 94.525 259.193 94.095 258.813 93.775C258.433 93.445 257.968 93.28 257.418 93.28C256.898 93.28 256.458 93.44 256.098 93.76C255.748 94.07 255.533 94.505 255.453 95.065H259.398ZM265.206 92.98C265.476 92.54 265.826 92.195 266.256 91.945C266.696 91.695 267.196 91.57 267.756 91.57V93.775H267.201C266.541 93.775 266.041 93.93 265.701 94.24C265.371 94.55 265.206 95.09 265.206 95.86V100H263.106V91.69H265.206V92.98ZM183.215 116.135C182.535 116.135 181.925 116.015 181.385 115.775C180.845 115.525 180.415 115.19 180.095 114.77C179.785 114.35 179.615 113.885 179.585 113.375H181.7C181.74 113.695 181.895 113.96 182.165 114.17C182.445 114.38 182.79 114.485 183.2 114.485C183.6 114.485 183.91 114.405 184.13 114.245C184.36 114.085 184.475 113.88 184.475 113.63C184.475 113.36 184.335 113.16 184.055 113.03C183.785 112.89 183.35 112.74 182.75 112.58C182.13 112.43 181.62 112.275 181.22 112.115C180.83 111.955 180.49 111.71 180.2 111.38C179.92 111.05 179.78 110.605 179.78 110.045C179.78 109.585 179.91 109.165 180.17 108.785C180.44 108.405 180.82 108.105 181.31 107.885C181.81 107.665 182.395 107.555 183.065 107.555C184.055 107.555 184.845 107.805 185.435 108.305C186.025 108.795 186.35 109.46 186.41 110.3H184.4C184.37 109.97 184.23 109.71 183.98 109.52C183.74 109.32 183.415 109.22 183.005 109.22C182.625 109.22 182.33 109.29 182.12 109.43C181.92 109.57 181.82 109.765 181.82 110.015C181.82 110.295 181.96 110.51 182.24 110.66C182.52 110.8 182.955 110.945 183.545 111.095C184.145 111.245 184.64 111.4 185.03 111.56C185.42 111.72 185.755 111.97 186.035 112.31C186.325 112.64 186.475 113.08 186.485 113.63C186.485 114.11 186.35 114.54 186.08 114.92C185.82 115.3 185.44 115.6 184.94 115.82C184.45 116.03 183.875 116.135 183.215 116.135ZM195.934 111.665C195.934 111.965 195.914 112.235 195.874 112.475H189.799C189.849 113.075 190.059 113.545 190.429 113.885C190.799 114.225 191.254 114.395 191.794 114.395C192.574 114.395 193.129 114.06 193.459 113.39H195.724C195.484 114.19 195.024 114.85 194.344 115.37C193.664 115.88 192.829 116.135 191.839 116.135C191.039 116.135 190.319 115.96 189.679 115.61C189.049 115.25 188.554 114.745 188.194 114.095C187.844 113.445 187.669 112.695 187.669 111.845C187.669 110.985 187.844 110.23 188.194 109.58C188.544 108.93 189.034 108.43 189.664 108.08C190.294 107.73 191.019 107.555 191.839 107.555C192.629 107.555 193.334 107.725 193.954 108.065C194.584 108.405 195.069 108.89 195.409 109.52C195.759 110.14 195.934 110.855 195.934 111.665ZM193.759 111.065C193.749 110.525 193.554 110.095 193.174 109.775C192.794 109.445 192.329 109.28 191.779 109.28C191.259 109.28 190.819 109.44 190.459 109.76C190.109 110.07 189.894 110.505 189.814 111.065H193.759ZM199.567 108.98C199.837 108.54 200.187 108.195 200.617 107.945C201.057 107.695 201.557 107.57 202.117 107.57V109.775H201.562C200.902 109.775 200.402 109.93 200.062 110.24C199.732 110.55 199.567 111.09 199.567 111.86V116H197.467V107.69H199.567V108.98ZM206.996 114.065L209.096 107.69H211.331L208.256 116H205.706L202.646 107.69H204.896L206.996 114.065ZM213.576 106.7C213.206 106.7 212.896 106.585 212.646 106.355C212.406 106.115 212.286 105.82 212.286 105.47C212.286 105.12 212.406 104.83 212.646 104.6C212.896 104.36 213.206 104.24 213.576 104.24C213.946 104.24 214.251 104.36 214.491 104.6C214.741 104.83 214.866 105.12 214.866 105.47C214.866 105.82 214.741 106.115 214.491 106.355C214.251 106.585 213.946 106.7 213.576 106.7ZM214.611 107.69V116H212.511V107.69H214.611ZM216.145 111.845C216.145 110.985 216.32 110.235 216.67 109.595C217.02 108.945 217.505 108.445 218.125 108.095C218.745 107.735 219.455 107.555 220.255 107.555C221.285 107.555 222.135 107.815 222.805 108.335C223.485 108.845 223.94 109.565 224.17 110.495H221.905C221.785 110.135 221.58 109.855 221.29 109.655C221.01 109.445 220.66 109.34 220.24 109.34C219.64 109.34 219.165 109.56 218.815 110C218.465 110.43 218.29 111.045 218.29 111.845C218.29 112.635 218.465 113.25 218.815 113.69C219.165 114.12 219.64 114.335 220.24 114.335C221.09 114.335 221.645 113.955 221.905 113.195H224.17C223.94 114.095 223.485 114.81 222.805 115.34C222.125 115.87 221.275 116.135 220.255 116.135C219.455 116.135 218.745 115.96 218.125 115.61C217.505 115.25 217.02 114.75 216.67 114.11C216.32 113.46 216.145 112.705 216.145 111.845ZM233.434 111.665C233.434 111.965 233.414 112.235 233.374 112.475H227.299C227.349 113.075 227.559 113.545 227.929 113.885C228.299 114.225 228.754 114.395 229.294 114.395C230.074 114.395 230.629 114.06 230.959 113.39H233.224C232.984 114.19 232.524 114.85 231.844 115.37C231.164 115.88 230.329 116.135 229.339 116.135C228.539 116.135 227.819 115.96 227.179 115.61C226.549 115.25 226.054 114.745 225.694 114.095C225.344 113.445 225.169 112.695 225.169 111.845C225.169 110.985 225.344 110.23 225.694 109.58C226.044 108.93 226.534 108.43 227.164 108.08C227.794 107.73 228.519 107.555 229.339 107.555C230.129 107.555 230.834 107.725 231.454 108.065C232.084 108.405 232.569 108.89 232.909 109.52C233.259 110.14 233.434 110.855 233.434 111.665ZM231.259 111.065C231.249 110.525 231.054 110.095 230.674 109.775C230.294 109.445 229.829 109.28 229.279 109.28C228.759 109.28 228.319 109.44 227.959 109.76C227.609 110.07 227.394 110.505 227.314 111.065H231.259Z" fill="white"/>
</svg>
