<svg width="358" height="450" viewBox="0 0 358 450" fill="none" xmlns="http://www.w3.org/2000/svg">
<mask id="mask0_1230_3905" style="mask-type:alpha" maskUnits="userSpaceOnUse" x="0" y="0" width="358" height="450">
<rect width="358" height="450" rx="13" fill="white"/>
</mask>
<g mask="url(#mask0_1230_3905)">
<circle cx="104" cy="190" r="248" fill="#FAFBFB"/>
</g>
<circle cx="152" cy="300" r="84.5" fill="#DCE7E9" stroke="white" stroke-width="7"/>
<path d="M137.497 279.732H130.225V287.184H126.409V279.732H119.137V276.276H126.409V268.824H130.225V276.276H137.497V279.732ZM142.82 285.528V282.432L154.916 265.08H159.884V281.964H163.232V285.528H159.884V291H155.852V285.528H142.82ZM156.032 269.256L147.536 281.964H156.032V269.256ZM166.633 277.536C166.633 273.384 167.329 270.144 168.721 267.816C170.137 265.464 172.561 264.288 175.993 264.288C179.425 264.288 181.837 265.464 183.229 267.816C184.645 270.144 185.353 273.384 185.353 277.536C185.353 281.736 184.645 285.024 183.229 287.4C181.837 289.752 179.425 290.928 175.993 290.928C172.561 290.928 170.137 289.752 168.721 287.4C167.329 285.024 166.633 281.736 166.633 277.536ZM181.321 277.536C181.321 275.592 181.189 273.948 180.925 272.604C180.685 271.26 180.181 270.168 179.413 269.328C178.645 268.464 177.505 268.032 175.993 268.032C174.481 268.032 173.341 268.464 172.573 269.328C171.805 270.168 171.289 271.26 171.025 272.604C170.785 273.948 170.665 275.592 170.665 277.536C170.665 279.552 170.785 281.244 171.025 282.612C171.265 283.98 171.769 285.084 172.537 285.924C173.329 286.764 174.481 287.184 175.993 287.184C177.505 287.184 178.645 286.764 179.413 285.924C180.205 285.084 180.721 283.98 180.961 282.612C181.201 281.244 181.321 279.552 181.321 277.536ZM100.088 303.575C101.198 303.575 102.168 303.79 102.998 304.22C103.838 304.64 104.483 305.25 104.933 306.05C105.393 306.84 105.623 307.765 105.623 308.825C105.623 309.885 105.393 310.805 104.933 311.585C104.483 312.365 103.838 312.965 102.998 313.385C102.168 313.795 101.198 314 100.088 314H96.6826V303.575H100.088ZM100.088 312.605C101.308 312.605 102.243 312.275 102.893 311.615C103.543 310.955 103.868 310.025 103.868 308.825C103.868 307.615 103.543 306.67 102.893 305.99C102.243 305.31 101.308 304.97 100.088 304.97H98.3926V312.605H100.088ZM114.892 309.665C114.892 309.975 114.872 310.255 114.832 310.505H108.517C108.567 311.165 108.812 311.695 109.252 312.095C109.692 312.495 110.232 312.695 110.872 312.695C111.792 312.695 112.442 312.31 112.822 311.54H114.667C114.417 312.3 113.962 312.925 113.302 313.415C112.652 313.895 111.842 314.135 110.872 314.135C110.082 314.135 109.372 313.96 108.742 313.61C108.122 313.25 107.632 312.75 107.272 312.11C106.922 311.46 106.747 310.71 106.747 309.86C106.747 309.01 106.917 308.265 107.257 307.625C107.607 306.975 108.092 306.475 108.712 306.125C109.342 305.775 110.062 305.6 110.872 305.6C111.652 305.6 112.347 305.77 112.957 306.11C113.567 306.45 114.042 306.93 114.382 307.55C114.722 308.16 114.892 308.865 114.892 309.665ZM113.107 309.125C113.097 308.495 112.872 307.99 112.432 307.61C111.992 307.23 111.447 307.04 110.797 307.04C110.207 307.04 109.702 307.23 109.282 307.61C108.862 307.98 108.612 308.485 108.532 309.125H113.107ZM119.575 314.135C118.925 314.135 118.34 314.02 117.82 313.79C117.31 313.55 116.905 313.23 116.605 312.83C116.305 312.42 116.145 311.965 116.125 311.465H117.895C117.925 311.815 118.09 312.11 118.39 312.35C118.7 312.58 119.085 312.695 119.545 312.695C120.025 312.695 120.395 312.605 120.655 312.425C120.925 312.235 121.06 311.995 121.06 311.705C121.06 311.395 120.91 311.165 120.61 311.015C120.32 310.865 119.855 310.7 119.215 310.52C118.595 310.35 118.09 310.185 117.7 310.025C117.31 309.865 116.97 309.62 116.68 309.29C116.4 308.96 116.26 308.525 116.26 307.985C116.26 307.545 116.39 307.145 116.65 306.785C116.91 306.415 117.28 306.125 117.76 305.915C118.25 305.705 118.81 305.6 119.44 305.6C120.38 305.6 121.135 305.84 121.705 306.32C122.285 306.79 122.595 307.435 122.635 308.255H120.925C120.895 307.885 120.745 307.59 120.475 307.37C120.205 307.15 119.84 307.04 119.38 307.04C118.93 307.04 118.585 307.125 118.345 307.295C118.105 307.465 117.985 307.69 117.985 307.97C117.985 308.19 118.065 308.375 118.225 308.525C118.385 308.675 118.58 308.795 118.81 308.885C119.04 308.965 119.38 309.07 119.83 309.2C120.43 309.36 120.92 309.525 121.3 309.695C121.69 309.855 122.025 310.095 122.305 310.415C122.585 310.735 122.73 311.16 122.74 311.69C122.74 312.16 122.61 312.58 122.35 312.95C122.09 313.32 121.72 313.61 121.24 313.82C120.77 314.03 120.215 314.135 119.575 314.135ZM125.458 304.64C125.148 304.64 124.888 304.535 124.678 304.325C124.468 304.115 124.363 303.855 124.363 303.545C124.363 303.235 124.468 302.975 124.678 302.765C124.888 302.555 125.148 302.45 125.458 302.45C125.758 302.45 126.013 302.555 126.223 302.765C126.433 302.975 126.538 303.235 126.538 303.545C126.538 303.855 126.433 304.115 126.223 304.325C126.013 304.535 125.758 304.64 125.458 304.64ZM126.298 305.735V314H124.588V305.735H126.298ZM131.873 305.6C132.513 305.6 133.078 305.73 133.568 305.99C134.068 306.24 134.458 306.555 134.738 306.935V305.735H136.463V314.135C136.463 314.895 136.303 315.57 135.983 316.16C135.663 316.76 135.198 317.23 134.588 317.57C133.988 317.91 133.268 318.08 132.428 318.08C131.308 318.08 130.378 317.815 129.638 317.285C128.898 316.765 128.478 316.055 128.378 315.155H130.073C130.203 315.585 130.478 315.93 130.898 316.19C131.328 316.46 131.838 316.595 132.428 316.595C133.118 316.595 133.673 316.385 134.093 315.965C134.523 315.545 134.738 314.935 134.738 314.135V312.755C134.448 313.145 134.053 313.475 133.553 313.745C133.063 314.005 132.503 314.135 131.873 314.135C131.153 314.135 130.493 313.955 129.893 313.595C129.303 313.225 128.833 312.715 128.483 312.065C128.143 311.405 127.973 310.66 127.973 309.83C127.973 309 128.143 308.265 128.483 307.625C128.833 306.985 129.303 306.49 129.893 306.14C130.493 305.78 131.153 305.6 131.873 305.6ZM134.738 309.86C134.738 309.29 134.618 308.795 134.378 308.375C134.148 307.955 133.843 307.635 133.463 307.415C133.083 307.195 132.673 307.085 132.233 307.085C131.793 307.085 131.383 307.195 131.003 307.415C130.623 307.625 130.313 307.94 130.073 308.36C129.843 308.77 129.728 309.26 129.728 309.83C129.728 310.4 129.843 310.9 130.073 311.33C130.313 311.76 130.623 312.09 131.003 312.32C131.393 312.54 131.803 312.65 132.233 312.65C132.673 312.65 133.083 312.54 133.463 312.32C133.843 312.1 134.148 311.78 134.378 311.36C134.618 310.93 134.738 310.43 134.738 309.86ZM142.879 305.6C143.529 305.6 144.109 305.735 144.619 306.005C145.139 306.275 145.544 306.675 145.834 307.205C146.124 307.735 146.269 308.375 146.269 309.125V314H144.574V309.38C144.574 308.64 144.389 308.075 144.019 307.685C143.649 307.285 143.144 307.085 142.504 307.085C141.864 307.085 141.354 307.285 140.974 307.685C140.604 308.075 140.419 308.64 140.419 309.38V314H138.709V305.735H140.419V306.68C140.699 306.34 141.054 306.075 141.484 305.885C141.924 305.695 142.389 305.6 142.879 305.6ZM155.782 314.105C155.082 314.105 154.452 313.985 153.892 313.745C153.332 313.495 152.892 313.145 152.572 312.695C152.252 312.245 152.092 311.72 152.092 311.12H153.922C153.962 311.57 154.137 311.94 154.447 312.23C154.767 312.52 155.212 312.665 155.782 312.665C156.372 312.665 156.832 312.525 157.162 312.245C157.492 311.955 157.657 311.585 157.657 311.135C157.657 310.785 157.552 310.5 157.342 310.28C157.142 310.06 156.887 309.89 156.577 309.77C156.277 309.65 155.857 309.52 155.317 309.38C154.637 309.2 154.082 309.02 153.652 308.84C153.232 308.65 152.872 308.36 152.572 307.97C152.272 307.58 152.122 307.06 152.122 306.41C152.122 305.81 152.272 305.285 152.572 304.835C152.872 304.385 153.292 304.04 153.832 303.8C154.372 303.56 154.997 303.44 155.707 303.44C156.717 303.44 157.542 303.695 158.182 304.205C158.832 304.705 159.192 305.395 159.262 306.275H157.372C157.342 305.895 157.162 305.57 156.832 305.3C156.502 305.03 156.067 304.895 155.527 304.895C155.037 304.895 154.637 305.02 154.327 305.27C154.017 305.52 153.862 305.88 153.862 306.35C153.862 306.67 153.957 306.935 154.147 307.145C154.347 307.345 154.597 307.505 154.897 307.625C155.197 307.745 155.607 307.875 156.127 308.015C156.817 308.205 157.377 308.395 157.807 308.585C158.247 308.775 158.617 309.07 158.917 309.47C159.227 309.86 159.382 310.385 159.382 311.045C159.382 311.575 159.237 312.075 158.947 312.545C158.667 313.015 158.252 313.395 157.702 313.685C157.162 313.965 156.522 314.105 155.782 314.105ZM168.839 305.735L163.769 317.885H161.999L163.679 313.865L160.424 305.735H162.329L164.654 312.035L167.069 305.735H168.839ZM173.13 314.135C172.48 314.135 171.895 314.02 171.375 313.79C170.865 313.55 170.46 313.23 170.16 312.83C169.86 312.42 169.7 311.965 169.68 311.465H171.45C171.48 311.815 171.645 312.11 171.945 312.35C172.255 312.58 172.64 312.695 173.1 312.695C173.58 312.695 173.95 312.605 174.21 312.425C174.48 312.235 174.615 311.995 174.615 311.705C174.615 311.395 174.465 311.165 174.165 311.015C173.875 310.865 173.41 310.7 172.77 310.52C172.15 310.35 171.645 310.185 171.255 310.025C170.865 309.865 170.525 309.62 170.235 309.29C169.955 308.96 169.815 308.525 169.815 307.985C169.815 307.545 169.945 307.145 170.205 306.785C170.465 306.415 170.835 306.125 171.315 305.915C171.805 305.705 172.365 305.6 172.995 305.6C173.935 305.6 174.69 305.84 175.26 306.32C175.84 306.79 176.15 307.435 176.19 308.255H174.48C174.45 307.885 174.3 307.59 174.03 307.37C173.76 307.15 173.395 307.04 172.935 307.04C172.485 307.04 172.14 307.125 171.9 307.295C171.66 307.465 171.54 307.69 171.54 307.97C171.54 308.19 171.62 308.375 171.78 308.525C171.94 308.675 172.135 308.795 172.365 308.885C172.595 308.965 172.935 309.07 173.385 309.2C173.985 309.36 174.475 309.525 174.855 309.695C175.245 309.855 175.58 310.095 175.86 310.415C176.14 310.735 176.285 311.16 176.295 311.69C176.295 312.16 176.165 312.58 175.905 312.95C175.645 313.32 175.275 313.61 174.795 313.82C174.325 314.03 173.77 314.135 173.13 314.135ZM180.138 307.13V311.705C180.138 312.015 180.208 312.24 180.348 312.38C180.498 312.51 180.748 312.575 181.098 312.575H182.148V314H180.798C180.028 314 179.438 313.82 179.028 313.46C178.618 313.1 178.413 312.515 178.413 311.705V307.13H177.438V305.735H178.413V303.68H180.138V305.735H182.148V307.13H180.138ZM191.299 309.665C191.299 309.975 191.279 310.255 191.239 310.505H184.924C184.974 311.165 185.219 311.695 185.659 312.095C186.099 312.495 186.639 312.695 187.279 312.695C188.199 312.695 188.849 312.31 189.229 311.54H191.074C190.824 312.3 190.369 312.925 189.709 313.415C189.059 313.895 188.249 314.135 187.279 314.135C186.489 314.135 185.779 313.96 185.149 313.61C184.529 313.25 184.039 312.75 183.679 312.11C183.329 311.46 183.154 310.71 183.154 309.86C183.154 309.01 183.324 308.265 183.664 307.625C184.014 306.975 184.499 306.475 185.119 306.125C185.749 305.775 186.469 305.6 187.279 305.6C188.059 305.6 188.754 305.77 189.364 306.11C189.974 306.45 190.449 306.93 190.789 307.55C191.129 308.16 191.299 308.865 191.299 309.665ZM189.514 309.125C189.504 308.495 189.279 307.99 188.839 307.61C188.399 307.23 187.854 307.04 187.204 307.04C186.614 307.04 186.109 307.23 185.689 307.61C185.269 307.98 185.019 308.485 184.939 309.125H189.514ZM202.986 305.6C203.636 305.6 204.216 305.735 204.726 306.005C205.246 306.275 205.651 306.675 205.941 307.205C206.241 307.735 206.391 308.375 206.391 309.125V314H204.696V309.38C204.696 308.64 204.511 308.075 204.141 307.685C203.771 307.285 203.266 307.085 202.626 307.085C201.986 307.085 201.476 307.285 201.096 307.685C200.726 308.075 200.541 308.64 200.541 309.38V314H198.846V309.38C198.846 308.64 198.661 308.075 198.291 307.685C197.921 307.285 197.416 307.085 196.776 307.085C196.136 307.085 195.626 307.285 195.246 307.685C194.876 308.075 194.691 308.64 194.691 309.38V314H192.981V305.735H194.691V306.68C194.971 306.34 195.326 306.075 195.756 305.885C196.186 305.695 196.646 305.6 197.136 305.6C197.796 305.6 198.386 305.74 198.906 306.02C199.426 306.3 199.826 306.705 200.106 307.235C200.356 306.735 200.746 306.34 201.276 306.05C201.806 305.75 202.376 305.6 202.986 305.6ZM106.652 324.765C106.652 323.745 106.887 322.83 107.357 322.02C107.837 321.21 108.482 320.58 109.292 320.13C110.112 319.67 111.007 319.44 111.977 319.44C113.087 319.44 114.072 319.715 114.932 320.265C115.802 320.805 116.432 321.575 116.822 322.575H114.767C114.497 322.025 114.122 321.615 113.642 321.345C113.162 321.075 112.607 320.94 111.977 320.94C111.287 320.94 110.672 321.095 110.132 321.405C109.592 321.715 109.167 322.16 108.857 322.74C108.557 323.32 108.407 323.995 108.407 324.765C108.407 325.535 108.557 326.21 108.857 326.79C109.167 327.37 109.592 327.82 110.132 328.14C110.672 328.45 111.287 328.605 111.977 328.605C112.607 328.605 113.162 328.47 113.642 328.2C114.122 327.93 114.497 327.52 114.767 326.97H116.822C116.432 327.97 115.802 328.74 114.932 329.28C114.072 329.82 113.087 330.09 111.977 330.09C110.997 330.09 110.102 329.865 109.292 329.415C108.482 328.955 107.837 328.32 107.357 327.51C106.887 326.7 106.652 325.785 106.652 324.765ZM122.409 330.135C121.629 330.135 120.924 329.96 120.294 329.61C119.664 329.25 119.169 328.75 118.809 328.11C118.449 327.46 118.269 326.71 118.269 325.86C118.269 325.02 118.454 324.275 118.824 323.625C119.194 322.975 119.699 322.475 120.339 322.125C120.979 321.775 121.694 321.6 122.484 321.6C123.274 321.6 123.989 321.775 124.629 322.125C125.269 322.475 125.774 322.975 126.144 323.625C126.514 324.275 126.699 325.02 126.699 325.86C126.699 326.7 126.509 327.445 126.129 328.095C125.749 328.745 125.229 329.25 124.569 329.61C123.919 329.96 123.199 330.135 122.409 330.135ZM122.409 328.65C122.849 328.65 123.259 328.545 123.639 328.335C124.029 328.125 124.344 327.81 124.584 327.39C124.824 326.97 124.944 326.46 124.944 325.86C124.944 325.26 124.829 324.755 124.599 324.345C124.369 323.925 124.064 323.61 123.684 323.4C123.304 323.19 122.894 323.085 122.454 323.085C122.014 323.085 121.604 323.19 121.224 323.4C120.854 323.61 120.559 323.925 120.339 324.345C120.119 324.755 120.009 325.26 120.009 325.86C120.009 326.75 120.234 327.44 120.684 327.93C121.144 328.41 121.719 328.65 122.409 328.65ZM138.394 321.6C139.044 321.6 139.624 321.735 140.134 322.005C140.654 322.275 141.059 322.675 141.349 323.205C141.649 323.735 141.799 324.375 141.799 325.125V330H140.104V325.38C140.104 324.64 139.919 324.075 139.549 323.685C139.179 323.285 138.674 323.085 138.034 323.085C137.394 323.085 136.884 323.285 136.504 323.685C136.134 324.075 135.949 324.64 135.949 325.38V330H134.254V325.38C134.254 324.64 134.069 324.075 133.699 323.685C133.329 323.285 132.824 323.085 132.184 323.085C131.544 323.085 131.034 323.285 130.654 323.685C130.284 324.075 130.099 324.64 130.099 325.38V330H128.389V321.735H130.099V322.68C130.379 322.34 130.734 322.075 131.164 321.885C131.594 321.695 132.054 321.6 132.544 321.6C133.204 321.6 133.794 321.74 134.314 322.02C134.834 322.3 135.234 322.705 135.514 323.235C135.764 322.735 136.154 322.34 136.684 322.05C137.214 321.75 137.784 321.6 138.394 321.6ZM145.685 322.95C145.975 322.57 146.37 322.25 146.87 321.99C147.37 321.73 147.935 321.6 148.565 321.6C149.285 321.6 149.94 321.78 150.53 322.14C151.13 322.49 151.6 322.985 151.94 323.625C152.28 324.265 152.45 325 152.45 325.83C152.45 326.66 152.28 327.405 151.94 328.065C151.6 328.715 151.13 329.225 150.53 329.595C149.94 329.955 149.285 330.135 148.565 330.135C147.935 330.135 147.375 330.01 146.885 329.76C146.395 329.5 145.995 329.18 145.685 328.8V333.93H143.975V321.735H145.685V322.95ZM150.71 325.83C150.71 325.26 150.59 324.77 150.35 324.36C150.12 323.94 149.81 323.625 149.42 323.415C149.04 323.195 148.63 323.085 148.19 323.085C147.76 323.085 147.35 323.195 146.96 323.415C146.58 323.635 146.27 323.955 146.03 324.375C145.8 324.795 145.685 325.29 145.685 325.86C145.685 326.43 145.8 326.93 146.03 327.36C146.27 327.78 146.58 328.1 146.96 328.32C147.35 328.54 147.76 328.65 148.19 328.65C148.63 328.65 149.04 328.54 149.42 328.32C149.81 328.09 150.12 327.76 150.35 327.33C150.59 326.9 150.71 326.4 150.71 325.83ZM157.726 330.135C156.946 330.135 156.241 329.96 155.611 329.61C154.981 329.25 154.486 328.75 154.126 328.11C153.766 327.46 153.586 326.71 153.586 325.86C153.586 325.02 153.771 324.275 154.141 323.625C154.511 322.975 155.016 322.475 155.656 322.125C156.296 321.775 157.011 321.6 157.801 321.6C158.591 321.6 159.306 321.775 159.946 322.125C160.586 322.475 161.091 322.975 161.461 323.625C161.831 324.275 162.016 325.02 162.016 325.86C162.016 326.7 161.826 327.445 161.446 328.095C161.066 328.745 160.546 329.25 159.886 329.61C159.236 329.96 158.516 330.135 157.726 330.135ZM157.726 328.65C158.166 328.65 158.576 328.545 158.956 328.335C159.346 328.125 159.661 327.81 159.901 327.39C160.141 326.97 160.261 326.46 160.261 325.86C160.261 325.26 160.146 324.755 159.916 324.345C159.686 323.925 159.381 323.61 159.001 323.4C158.621 323.19 158.211 323.085 157.771 323.085C157.331 323.085 156.921 323.19 156.541 323.4C156.171 323.61 155.876 323.925 155.656 324.345C155.436 324.755 155.326 325.26 155.326 325.86C155.326 326.75 155.551 327.44 156.001 327.93C156.461 328.41 157.036 328.65 157.726 328.65ZM167.877 321.6C168.527 321.6 169.107 321.735 169.617 322.005C170.137 322.275 170.542 322.675 170.832 323.205C171.122 323.735 171.267 324.375 171.267 325.125V330H169.572V325.38C169.572 324.64 169.387 324.075 169.017 323.685C168.647 323.285 168.142 323.085 167.502 323.085C166.862 323.085 166.352 323.285 165.972 323.685C165.602 324.075 165.417 324.64 165.417 325.38V330H163.707V321.735H165.417V322.68C165.697 322.34 166.052 322.075 166.482 321.885C166.922 321.695 167.387 321.6 167.877 321.6ZM181.023 325.665C181.023 325.975 181.003 326.255 180.963 326.505H174.648C174.698 327.165 174.943 327.695 175.383 328.095C175.823 328.495 176.363 328.695 177.003 328.695C177.923 328.695 178.573 328.31 178.953 327.54H180.798C180.548 328.3 180.093 328.925 179.433 329.415C178.783 329.895 177.973 330.135 177.003 330.135C176.213 330.135 175.503 329.96 174.873 329.61C174.253 329.25 173.763 328.75 173.403 328.11C173.053 327.46 172.878 326.71 172.878 325.86C172.878 325.01 173.048 324.265 173.388 323.625C173.738 322.975 174.223 322.475 174.843 322.125C175.473 321.775 176.193 321.6 177.003 321.6C177.783 321.6 178.478 321.77 179.088 322.11C179.698 322.45 180.173 322.93 180.513 323.55C180.853 324.16 181.023 324.865 181.023 325.665ZM179.238 325.125C179.228 324.495 179.003 323.99 178.563 323.61C178.123 323.23 177.578 323.04 176.928 323.04C176.338 323.04 175.833 323.23 175.413 323.61C174.993 323.98 174.743 324.485 174.663 325.125H179.238ZM186.876 321.6C187.526 321.6 188.106 321.735 188.616 322.005C189.136 322.275 189.541 322.675 189.831 323.205C190.121 323.735 190.266 324.375 190.266 325.125V330H188.571V325.38C188.571 324.64 188.386 324.075 188.016 323.685C187.646 323.285 187.141 323.085 186.501 323.085C185.861 323.085 185.351 323.285 184.971 323.685C184.601 324.075 184.416 324.64 184.416 325.38V330H182.706V321.735H184.416V322.68C184.696 322.34 185.051 322.075 185.481 321.885C185.921 321.695 186.386 321.6 186.876 321.6ZM194.442 323.13V327.705C194.442 328.015 194.512 328.24 194.652 328.38C194.802 328.51 195.052 328.575 195.402 328.575H196.452V330H195.102C194.332 330 193.742 329.82 193.332 329.46C192.922 329.1 192.717 328.515 192.717 327.705V323.13H191.742V321.735H192.717V319.68H194.442V321.735H196.452V323.13H194.442Z" fill="#1D262C"/>
<circle cx="99" cy="153" r="84.5" fill="#004C43" stroke="white" stroke-width="7"/>
<path d="M83.9386 119.4V114.756H92.6146V141H87.4306V119.4H83.9386ZM99.1775 135.312C101.482 133.392 103.318 131.796 104.686 130.524C106.054 129.228 107.194 127.884 108.106 126.492C109.018 125.1 109.474 123.732 109.474 122.388C109.474 121.164 109.186 120.204 108.61 119.508C108.034 118.812 107.146 118.464 105.946 118.464C104.746 118.464 103.822 118.872 103.174 119.688C102.526 120.48 102.19 121.572 102.166 122.964H97.2695C97.3655 120.084 98.2175 117.9 99.8255 116.412C101.458 114.924 103.522 114.18 106.018 114.18C108.754 114.18 110.854 114.912 112.318 116.376C113.782 117.816 114.514 119.724 114.514 122.1C114.514 123.972 114.01 125.76 113.002 127.464C111.994 129.168 110.842 130.656 109.546 131.928C108.25 133.176 106.558 134.688 104.47 136.464H115.09V140.64H97.3055V136.896L99.1775 135.312ZM71.9054 143.056L66.0734 163H60.6374L57.0014 149.068L53.3654 163H47.8934L42.0254 143.056H47.1374L50.6654 158.248L54.4814 143.056H59.8094L63.5534 158.212L67.0814 143.056H71.9054ZM93.1724 152.596C93.1724 153.316 93.1244 153.964 93.0284 154.54H78.4484C78.5684 155.98 79.0724 157.108 79.9604 157.924C80.8484 158.74 81.9404 159.148 83.2364 159.148C85.1084 159.148 86.4404 158.344 87.2324 156.736H92.6684C92.0924 158.656 90.9884 160.24 89.3564 161.488C87.7244 162.712 85.7204 163.324 83.3444 163.324C81.4244 163.324 79.6964 162.904 78.1604 162.064C76.6484 161.2 75.4604 159.988 74.5964 158.428C73.7564 156.868 73.3364 155.068 73.3364 153.028C73.3364 150.964 73.7564 149.152 74.5964 147.592C75.4364 146.032 76.6124 144.832 78.1244 143.992C79.6364 143.152 81.3764 142.732 83.3444 142.732C85.2404 142.732 86.9324 143.14 88.4204 143.956C89.9324 144.772 91.0964 145.936 91.9124 147.448C92.7524 148.936 93.1724 150.652 93.1724 152.596ZM87.9524 151.156C87.9284 149.86 87.4604 148.828 86.5484 148.06C85.6364 147.268 84.5204 146.872 83.2004 146.872C81.9524 146.872 80.8964 147.256 80.0324 148.024C79.1924 148.768 78.6764 149.812 78.4844 151.156H87.9524ZM115.391 152.596C115.391 153.316 115.343 153.964 115.247 154.54H100.667C100.787 155.98 101.291 157.108 102.179 157.924C103.067 158.74 104.159 159.148 105.455 159.148C107.327 159.148 108.659 158.344 109.451 156.736H114.887C114.311 158.656 113.207 160.24 111.575 161.488C109.943 162.712 107.939 163.324 105.563 163.324C103.643 163.324 101.915 162.904 100.379 162.064C98.8672 161.2 97.6792 159.988 96.8152 158.428C95.9752 156.868 95.5552 155.068 95.5552 153.028C95.5552 150.964 95.9752 149.152 96.8152 147.592C97.6552 146.032 98.8312 144.832 100.343 143.992C101.855 143.152 103.595 142.732 105.563 142.732C107.459 142.732 109.151 143.14 110.639 143.956C112.151 144.772 113.315 145.936 114.131 147.448C114.971 148.936 115.391 150.652 115.391 152.596ZM110.171 151.156C110.147 149.86 109.679 148.828 108.767 148.06C107.855 147.268 106.739 146.872 105.419 146.872C104.171 146.872 103.115 147.256 102.251 148.024C101.411 148.768 100.895 149.812 100.703 151.156H110.171ZM130.878 163L124.11 154.504V163H119.07V136.36H124.11V151.516L130.806 143.056H137.358L128.574 153.064L137.43 163H130.878ZM147.725 163.324C146.093 163.324 144.629 163.036 143.333 162.46C142.037 161.86 141.005 161.056 140.237 160.048C139.493 159.04 139.085 157.924 139.013 156.7H144.089C144.185 157.468 144.557 158.104 145.205 158.608C145.877 159.112 146.705 159.364 147.689 159.364C148.649 159.364 149.393 159.172 149.921 158.788C150.473 158.404 150.749 157.912 150.749 157.312C150.749 156.664 150.413 156.184 149.741 155.872C149.093 155.536 148.049 155.176 146.609 154.792C145.121 154.432 143.897 154.06 142.937 153.676C142.001 153.292 141.185 152.704 140.489 151.912C139.817 151.12 139.481 150.052 139.481 148.708C139.481 147.604 139.793 146.596 140.417 145.684C141.065 144.772 141.977 144.052 143.153 143.524C144.353 142.996 145.757 142.732 147.365 142.732C149.741 142.732 151.637 143.332 153.053 144.532C154.469 145.708 155.249 147.304 155.393 149.32H150.569C150.497 148.528 150.161 147.904 149.561 147.448C148.985 146.968 148.205 146.728 147.221 146.728C146.309 146.728 145.601 146.896 145.097 147.232C144.617 147.568 144.377 148.036 144.377 148.636C144.377 149.308 144.713 149.824 145.385 150.184C146.057 150.52 147.101 150.868 148.517 151.228C149.957 151.588 151.145 151.96 152.081 152.344C153.017 152.728 153.821 153.328 154.493 154.144C155.189 154.936 155.549 155.992 155.573 157.312C155.573 158.464 155.249 159.496 154.601 160.408C153.977 161.32 153.065 162.04 151.865 162.568C150.689 163.072 149.309 163.324 147.725 163.324ZM74.5901 186H72.4901L67.7351 178.815V186H65.6351V175.515H67.7351L72.4901 182.715V175.515H74.5901V186ZM84.3904 181.665C84.3904 181.965 84.3704 182.235 84.3304 182.475H78.2554C78.3054 183.075 78.5154 183.545 78.8854 183.885C79.2554 184.225 79.7104 184.395 80.2504 184.395C81.0304 184.395 81.5854 184.06 81.9154 183.39H84.1804C83.9404 184.19 83.4804 184.85 82.8004 185.37C82.1204 185.88 81.2854 186.135 80.2954 186.135C79.4954 186.135 78.7754 185.96 78.1354 185.61C77.5054 185.25 77.0104 184.745 76.6504 184.095C76.3004 183.445 76.1254 182.695 76.1254 181.845C76.1254 180.985 76.3004 180.23 76.6504 179.58C77.0004 178.93 77.4904 178.43 78.1204 178.08C78.7504 177.73 79.4754 177.555 80.2954 177.555C81.0854 177.555 81.7904 177.725 82.4104 178.065C83.0404 178.405 83.5254 178.89 83.8654 179.52C84.2154 180.14 84.3904 180.855 84.3904 181.665ZM82.2154 181.065C82.2054 180.525 82.0104 180.095 81.6304 179.775C81.2504 179.445 80.7854 179.28 80.2354 179.28C79.7154 179.28 79.2754 179.44 78.9154 179.76C78.5654 180.07 78.3504 180.505 78.2704 181.065H82.2154ZM97.4432 177.69L95.0132 186H92.7482L91.2332 180.195L89.7182 186H87.4382L84.9932 177.69H87.1232L88.5932 184.02L90.1832 177.69H92.4032L93.9632 184.005L95.4332 177.69H97.4432ZM113.569 175.53V186H111.469V179.19L108.664 186H107.074L104.254 179.19V186H102.154V175.53H104.539L107.869 183.315L111.199 175.53H113.569ZM125.05 175.53L121.21 186H118.66L114.82 175.53H117.07L119.95 183.855L122.815 175.53H125.05ZM133.944 178.77C133.944 179.33 133.809 179.855 133.539 180.345C133.279 180.835 132.864 181.23 132.294 181.53C131.734 181.83 131.024 181.98 130.164 181.98H128.409V186H126.309V175.53H130.164C130.974 175.53 131.664 175.67 132.234 175.95C132.804 176.23 133.229 176.615 133.509 177.105C133.799 177.595 133.944 178.15 133.944 178.77ZM130.074 180.285C130.654 180.285 131.084 180.155 131.364 179.895C131.644 179.625 131.784 179.25 131.784 178.77C131.784 177.75 131.214 177.24 130.074 177.24H128.409V180.285H130.074Z" fill="#FEFBEB"/>
<circle cx="231" cy="127" r="58.5" fill="#DCE7E9" stroke="white" stroke-width="7"/>
<path d="M219.035 118.28C220.571 116.952 221.779 115.864 222.659 115.016C223.555 114.152 224.299 113.256 224.891 112.328C225.483 111.4 225.779 110.472 225.779 109.544C225.779 108.584 225.547 107.832 225.083 107.288C224.635 106.744 223.923 106.472 222.947 106.472C222.003 106.472 221.267 106.776 220.739 107.384C220.227 107.976 219.955 108.776 219.923 109.784H217.283C217.331 107.96 217.875 106.568 218.915 105.608C219.971 104.632 221.307 104.144 222.923 104.144C224.667 104.144 226.027 104.624 227.003 105.584C227.995 106.544 228.491 107.824 228.491 109.424C228.491 110.576 228.195 111.688 227.603 112.76C227.027 113.816 226.331 114.768 225.515 115.616C224.715 116.448 223.691 117.416 222.443 118.52L221.363 119.48H228.971V121.76H217.307V119.768L219.035 118.28ZM231.374 113.024C231.374 110.256 231.838 108.096 232.766 106.544C233.71 104.976 235.326 104.192 237.614 104.192C239.902 104.192 241.51 104.976 242.438 106.544C243.382 108.096 243.854 110.256 243.854 113.024C243.854 115.824 243.382 118.016 242.438 119.6C241.51 121.168 239.902 121.952 237.614 121.952C235.326 121.952 233.71 121.168 232.766 119.6C231.838 118.016 231.374 115.824 231.374 113.024ZM241.166 113.024C241.166 111.728 241.078 110.632 240.902 109.736C240.742 108.84 240.406 108.112 239.894 107.552C239.382 106.976 238.622 106.688 237.614 106.688C236.606 106.688 235.846 106.976 235.334 107.552C234.822 108.112 234.478 108.84 234.302 109.736C234.142 110.632 234.062 111.728 234.062 113.024C234.062 114.368 234.142 115.496 234.302 116.408C234.462 117.32 234.798 118.056 235.31 118.616C235.838 119.176 236.606 119.456 237.614 119.456C238.622 119.456 239.382 119.176 239.894 118.616C240.422 118.056 240.766 117.32 240.926 116.408C241.086 115.496 241.166 114.368 241.166 113.024ZM202.244 132.72C202.708 132.112 203.34 131.6 204.14 131.184C204.94 130.768 205.844 130.56 206.852 130.56C208.004 130.56 209.052 130.848 209.996 131.424C210.956 131.984 211.708 132.776 212.252 133.8C212.796 134.824 213.068 136 213.068 137.328C213.068 138.656 212.796 139.848 212.252 140.904C211.708 141.944 210.956 142.76 209.996 143.352C209.052 143.928 208.004 144.216 206.852 144.216C205.844 144.216 204.948 144.016 204.164 143.616C203.38 143.2 202.74 142.688 202.244 142.08V150.288H199.508V130.776H202.244V132.72ZM210.284 137.328C210.284 136.416 210.092 135.632 209.708 134.976C209.34 134.304 208.844 133.8 208.22 133.464C207.612 133.112 206.956 132.936 206.252 132.936C205.564 132.936 204.908 133.112 204.284 133.464C203.676 133.816 203.18 134.328 202.796 135C202.428 135.672 202.244 136.464 202.244 137.376C202.244 138.288 202.428 139.088 202.796 139.776C203.18 140.448 203.676 140.96 204.284 141.312C204.908 141.664 205.564 141.84 206.252 141.84C206.956 141.84 207.612 141.664 208.22 141.312C208.844 140.944 209.34 140.416 209.708 139.728C210.092 139.04 210.284 138.24 210.284 137.328ZM217.165 129.024C216.669 129.024 216.253 128.856 215.917 128.52C215.581 128.184 215.413 127.768 215.413 127.272C215.413 126.776 215.581 126.36 215.917 126.024C216.253 125.688 216.669 125.52 217.165 125.52C217.645 125.52 218.053 125.688 218.389 126.024C218.725 126.36 218.893 126.776 218.893 127.272C218.893 127.768 218.725 128.184 218.389 128.52C218.053 128.856 217.645 129.024 217.165 129.024ZM218.509 130.776V144H215.773V130.776H218.509ZM224.837 126.24V144H222.101V126.24H224.837ZM234.166 144.216C232.918 144.216 231.79 143.936 230.782 143.376C229.774 142.8 228.982 142 228.406 140.976C227.83 139.936 227.542 138.736 227.542 137.376C227.542 136.032 227.838 134.84 228.43 133.8C229.022 132.76 229.83 131.96 230.854 131.4C231.878 130.84 233.022 130.56 234.286 130.56C235.55 130.56 236.694 130.84 237.718 131.4C238.742 131.96 239.55 132.76 240.142 133.8C240.734 134.84 241.03 136.032 241.03 137.376C241.03 138.72 240.726 139.912 240.118 140.952C239.51 141.992 238.678 142.8 237.622 143.376C236.582 143.936 235.43 144.216 234.166 144.216ZM234.166 141.84C234.87 141.84 235.526 141.672 236.134 141.336C236.758 141 237.262 140.496 237.646 139.824C238.03 139.152 238.222 138.336 238.222 137.376C238.222 136.416 238.038 135.608 237.67 134.952C237.302 134.28 236.814 133.776 236.206 133.44C235.598 133.104 234.942 132.936 234.238 132.936C233.534 132.936 232.878 133.104 232.27 133.44C231.678 133.776 231.206 134.28 230.854 134.952C230.502 135.608 230.326 136.416 230.326 137.376C230.326 138.8 230.686 139.904 231.406 140.688C232.142 141.456 233.062 141.84 234.166 141.84ZM246.926 133.008V140.328C246.926 140.824 247.038 141.184 247.262 141.408C247.502 141.616 247.902 141.72 248.462 141.72H250.142V144H247.982C246.75 144 245.806 143.712 245.15 143.136C244.494 142.56 244.166 141.624 244.166 140.328V133.008H242.606V130.776H244.166V127.488H246.926V130.776H250.142V133.008H246.926ZM257.464 144.216C256.424 144.216 255.488 144.032 254.656 143.664C253.84 143.28 253.192 142.768 252.712 142.128C252.232 141.472 251.976 140.744 251.944 139.944H254.776C254.824 140.504 255.088 140.976 255.568 141.36C256.064 141.728 256.68 141.912 257.416 141.912C258.184 141.912 258.776 141.768 259.192 141.48C259.624 141.176 259.84 140.792 259.84 140.328C259.84 139.832 259.6 139.464 259.12 139.224C258.656 138.984 257.912 138.72 256.888 138.432C255.896 138.16 255.088 137.896 254.464 137.64C253.84 137.384 253.296 136.992 252.832 136.464C252.384 135.936 252.16 135.24 252.16 134.376C252.16 133.672 252.368 133.032 252.784 132.456C253.2 131.864 253.792 131.4 254.56 131.064C255.344 130.728 256.24 130.56 257.248 130.56C258.752 130.56 259.96 130.944 260.872 131.712C261.8 132.464 262.296 133.496 262.36 134.808H259.624C259.576 134.216 259.336 133.744 258.904 133.392C258.472 133.04 257.888 132.864 257.152 132.864C256.432 132.864 255.88 133 255.496 133.272C255.112 133.544 254.92 133.904 254.92 134.352C254.92 134.704 255.048 135 255.304 135.24C255.56 135.48 255.872 135.672 256.24 135.816C256.608 135.944 257.152 136.112 257.872 136.32C258.832 136.576 259.616 136.84 260.224 137.112C260.848 137.368 261.384 137.752 261.832 138.264C262.28 138.776 262.512 139.456 262.528 140.304C262.528 141.056 262.32 141.728 261.904 142.32C261.488 142.912 260.896 143.376 260.128 143.712C259.376 144.048 258.488 144.216 257.464 144.216Z" fill="#1D262C"/>
<rect x="37.5" y="35.5" width="58" height="58" rx="16.5" fill="#DCE7E9" stroke="white" stroke-width="7"/>
<path d="M52.1385 78.7378H80.1385V50.7378H52.1385V78.7378Z" fill="black"/>
</svg>
